0
SECTION
2
HEADER
9
$INSUNITS
70
1
9
$ACADVER
1
AC1014
9
$HANDSEED
5
FFFF
0
ENDSEC
0
SECTION
2
TABLES
0
TABLE
2
VPORT
5
8
100
AcDbSymbolTable
0
ENDTAB
0
TABLE
2
LTYPE
5
5
100
AcDbSymbolTable
0
LTYPE
5
14
100
AcDbSymbolTableRecord
100
AcDbLinetypeTableRecord
2
BYBLOCK
70
0
0
LTYPE
5
15
100
AcDbSymbolTableRecord
100
AcDbLinetypeTableRecord
2
BYLAYER
70
0
0
ENDTAB
0
TABLE
2
LAYER
5
2
100
AcDbSymbolTable
70
2
0
LAYER
5
50
100
AcDbSymbolTableRecord
100
AcDbLayerTableRecord
2
0
70
0
6
CONTINUOUS
0
ENDTAB
0
TABLE
2
STYLE
5
3
100
AcDbSymbolTable
70
1
0
STYLE
5
11
100
AcDbSymbolTableRecord
100
AcDbTextStyleTableRecord
2
STANDARD
70
0
0
ENDTAB
0
TABLE
2
VIEW
5
6
100
AcDbSymbolTable
70
0
0
ENDTAB
0
TABLE
2
UCS
5
7
100
AcDbSymbolTable
70
0
0
ENDTAB
0
TABLE
2
APPID
5
9
100
AcDbSymbolTable
70
2
0
APPID
5
12
100
AcDbSymbolTableRecord
100
AcDbRegAppTableRecord
2
ACAD
70
0
0
ENDTAB
0
TABLE
2
DIMSTYLE
5
A
100
AcDbSymbolTable
70
1
0
ENDTAB
0
TABLE
2
BLOCK_RECORD
5
1
100
AcDbSymbolTable
70
1
0
BLOCK_RECORD
5
1F
100
AcDbSymbolTableRecord
100
AcDbBlockTableRecord
2
*MODEL_SPACE
0
BLOCK_RECORD
5
1B
100
AcDbSymbolTableRecord
100
AcDbBlockTableRecord
2
*PAPER_SPACE
0
ENDTAB
0
ENDSEC
0
SECTION
2
BLOCKS
0
BLOCK
5
20
100
AcDbEntity
100
AcDbBlockBegin
2
*MODEL_SPACE
0
ENDBLK
5
21
100
AcDbEntity
100
AcDbBlockEnd
0
BLOCK
5
1C
100
AcDbEntity
100
AcDbBlockBegin
2
*PAPER_SPACE
0
ENDBLK
5
1D
100
AcDbEntity
100
AcDbBlockEnd
0
ENDSEC
0
SECTION
2
ENTITIES
0
LINE
5
100
100
AcDbEntity
8
0
100
AcDbLine
10
3
20
5.196152422706632
30
0
11
8.9999999999999982
21
5.196152422706632
31
0
0
CIRCLE
5
101
100
AcDbEntity
8
0
100
AcDbCircle
10
8.9999999999999982
20
15.588457268119894
30
0
40
1.9999999999999991
0
CIRCLE
5
102
100
AcDbEntity
8
0
100
AcDbCircle
10
11.999999999999996
20
10.392304845413262
30
0
40
1.9999999999999991
0
CIRCLE
5
103
100
AcDbEntity
8
0
100
AcDbCircle
10
14.999999999999996
20
5.1961524227066311
30
0
40
1.9999999999999998
0
CIRCLE
5
104
100
AcDbEntity
8
0
100
AcDbCircle
10
17.999999999999996
20
0
30
0
40
1.9999999999999991
0
CIRCLE
5
105
100
AcDbEntity
8
0
100
AcDbCircle
10
11.999999819778081
20
0
30
0
40
1.9999999999999991
0
CIRCLE
5
106
100
AcDbEntity
8
0
100
AcDbCircle
10
5.9999999098890404
20
0
30
0
40
1.9999999999999991
0
CIRCLE
5
107
100
AcDbEntity
8
0
100
AcDbCircle
10
0
20
0
30
0
40
1.9999999999999998
0
CIRCLE
5
108
100
AcDbEntity
8
0
100
AcDbCircle
10
3
20
5.196152422706632
30
0
40
1.9999999999999996
0
CIRCLE
5
109
100
AcDbEntity
8
0
100
AcDbCircle
10
5.9999999999999991
20
10.392304845413264
30
0
40
2.0000000000000009
0
CIRCLE
5
110
100
AcDbEntity
8
0
100
AcDbCircle
10
8.9999999999999982
20
5.196152422706632
30
0
40
1.9999999999999998
0
CIRCLE
5
111
100
AcDbEntity
8
0
100
AcDbCircle
10
8.9999999999999982
20
12.338457268119894
30
0
40
0.109375
0
CIRCLE
5
112
100
AcDbEntity
8
0
100
AcDbCircle
10
11.999999999999996
20
7.1423048454132632
30
0
40
0.109375
0
CIRCLE
5
113
100
AcDbEntity
8
0
100
AcDbCircle
10
5.9999999999999964
20
7.1423048454132632
30
0
40
0.109375
0
CIRCLE
5
114
100
AcDbEntity
8
0
100
AcDbCircle
10
14.999999999999996
20
1.9461524227066311
30
0
40
0.109375
0
CIRCLE
5
115
100
AcDbEntity
8
0
100
AcDbCircle
10
17.999999999999996
20
-3.25
30
0
40
0.109375
0
CIRCLE
5
116
100
AcDbEntity
8
0
100
AcDbCircle
10
11.999999999999995
20
-3.25
30
0
40
0.109375
0
CIRCLE
5
117
100
AcDbEntity
8
0
100
AcDbCircle
10
8.9999999999999964
20
1.9461524227066311
30
0
40
0.109375
0
CIRCLE
5
118
100
AcDbEntity
8
0
100
AcDbCircle
10
5.9999999999999964
20
-3.25
30
0
40
0.109375
0
CIRCLE
5
119
100
AcDbEntity
8
0
100
AcDbCircle
10
2.9999999999999973
20
1.9461524227066311
30
0
40
0.109375
0
CIRCLE
5
120
100
AcDbEntity
8
0
100
AcDbCircle
10
-4.1961185182683078e-15
20
-3.25
30
0
40
0.109375
0
LWPOLYLINE
5
121
100
AcDbEntity
8
0
100
AcDbPolyline
90
4
70
1
43
0.0
10
20.999999684611641
20
-5.4115423714362683
10
-3
20
-5.4115423714362683
10
-2.9999999999999987
20
18.588457268119893
10
20.999999684611641
20
18.588457268119893
0
CIRCLE
5
122
100
AcDbEntity
8
0
100
AcDbCircle
10
-1.5
20
-5.0365423714362683
30
0
40
0.062499999999999972
0
CIRCLE
5
123
100
AcDbEntity
8
0
100
AcDbCircle
10
19.499999684611641
20
-5.0365423714362683
30
0
40
0.062499999999999119
0
CIRCLE
5
124
100
AcDbEntity
8
0
100
AcDbCircle
10
14.249999999999998
20
-5.0365423714362683
30
0
40
0.062499999999999098
0
CIRCLE
5
125
100
AcDbEntity
8
0
100
AcDbCircle
10
8.9999999999999982
20
-5.0365423714362683
30
0
40
0.062500000000000194
0
CIRCLE
5
126
100
AcDbEntity
8
0
100
AcDbCircle
10
3.75
20
-5.0365423714362683
30
0
40
0.062499999999999799
0
CIRCLE
5
127
100
AcDbEntity
8
0
100
AcDbCircle
10
20.624999684611641
20
1.3384573131753734
30
0
40
0.062500000000000722
0
CIRCLE
5
128
100
AcDbEntity
8
0
100
AcDbCircle
10
20.624999684611641
20
6.588457313175371
30
0
40
0.062499999999999889
0
CIRCLE
5
129
100
AcDbEntity
8
0
100
AcDbCircle
10
20.624999684611637
20
11.838457313175372
30
0
40
0.062499999999999285
0
CIRCLE
5
130
100
AcDbEntity
8
0
100
AcDbCircle
10
20.624999684611637
20
17.088457313175372
30
0
40
0.062499999999999098
0
CIRCLE
5
131
100
AcDbEntity
8
0
100
AcDbCircle
10
19.499999684611641
20
18.213457628563731
30
0
40
0.062500000000000958
0
CIRCLE
5
132
100
AcDbEntity
8
0
100
AcDbCircle
10
14.249999999999998
20
18.213457628563731
30
0
40
0.062499999999999098
0
CIRCLE
5
133
100
AcDbEntity
8
0
100
AcDbCircle
10
3.75
20
18.213457628563731
30
0
40
0.062499999999999986
0
CIRCLE
5
134
100
AcDbEntity
8
0
100
AcDbCircle
10
-1.5
20
18.213457628563731
30
0
40
0.062500000000000153
0
CIRCLE
5
135
100
AcDbEntity
8
0
100
AcDbCircle
10
-2.6250003153883563
20
1.3384573131753734
30
0
40
0.062500000000000111
0
CIRCLE
5
136
100
AcDbEntity
8
0
100
AcDbCircle
10
-2.6250003153883563
20
6.588457313175371
30
0
40
0.062500000000000153
0
CIRCLE
5
137
100
AcDbEntity
8
0
100
AcDbCircle
10
-2.6250003153883594
20
11.838457313175372
30
0
40
0.062500000000000153
0
CIRCLE
5
138
100
AcDbEntity
8
0
100
AcDbCircle
10
-2.6250003153883594
20
17.088457313175372
30
0
40
0.062500000000000153
0
ENDSEC
0
SECTION
2
OBJECTS
0
DICTIONARY
5
C
100
AcDbDictionary
3
ACAD_GROUP
350
D
3
ACAD_MLINESTYLE
350
17
0
DICTIONARY
5
D
100
AcDbDictionary
0
DICTIONARY
5
1A
330
C
100
AcDbDictionary
0
DICTIONARY
5
17
100
AcDbDictionary
0
ENDSEC
0
EOF
