solid ascii
  facet normal -4.475862e-15 1.000000e+00 0.000000e+00
    outer loop
      vertex   -1.148080e+02 1.635125e+02 4.434840e+01
      vertex   -1.148080e+02 1.635125e+02 5.069840e+01
      vertex   -1.084580e+02 1.635125e+02 4.434840e+01
    endloop
  endfacet
  facet normal -4.475862e-15 1.000000e+00 0.000000e+00
    outer loop
      vertex   -1.084580e+02 1.635125e+02 4.434840e+01
      vertex   -1.148080e+02 1.635125e+02 5.069840e+01
      vertex   -1.084580e+02 1.635125e+02 5.069840e+01
    endloop
  endfacet
  facet normal 0.000000e+00 0.000000e+00 -1.000000e+00
    outer loop
      vertex   -1.148080e+02 1.603375e+02 4.434840e+01
      vertex   -1.148080e+02 1.635125e+02 4.434840e+01
      vertex   -1.084580e+02 1.603375e+02 4.434840e+01
    endloop
  endfacet
  facet normal 0.000000e+00 0.000000e+00 -1.000000e+00
    outer loop
      vertex   -1.084580e+02 1.603375e+02 4.434840e+01
      vertex   -1.148080e+02 1.635125e+02 4.434840e+01
      vertex   -1.084580e+02 1.635125e+02 4.434840e+01
    endloop
  endfacet
  facet normal 0.000000e+00 -1.000000e+00 0.000000e+00
    outer loop
      vertex   -1.148080e+02 1.603375e+02 5.069840e+01
      vertex   -1.148080e+02 1.603375e+02 4.434840e+01
      vertex   -1.084580e+02 1.603375e+02 5.069840e+01
    endloop
  endfacet
  facet normal 0.000000e+00 -1.000000e+00 -0.000000e+00
    outer loop
      vertex   -1.084580e+02 1.603375e+02 5.069840e+01
      vertex   -1.148080e+02 1.603375e+02 4.434840e+01
      vertex   -1.084580e+02 1.603375e+02 4.434840e+01
    endloop
  endfacet
  facet normal 1.000000e+00 0.000000e+00 0.000000e+00
    outer loop
      vertex   -1.084580e+02 1.635125e+02 5.069840e+01
      vertex   -1.084580e+02 1.603375e+02 5.069840e+01
      vertex   -1.084580e+02 1.635125e+02 4.434840e+01
    endloop
  endfacet
  facet normal 1.000000e+00 0.000000e+00 0.000000e+00
    outer loop
      vertex   -1.084580e+02 1.635125e+02 4.434840e+01
      vertex   -1.084580e+02 1.603375e+02 5.069840e+01
      vertex   -1.084580e+02 1.603375e+02 4.434840e+01
    endloop
  endfacet
  facet normal -0.000000e+00 -0.000000e+00 -1.000000e+00
    outer loop
      vertex   -3.759199e+01 1.635125e+02 4.434840e+01
      vertex   -3.759199e+01 1.603375e+02 4.434840e+01
      vertex   -4.394200e+01 1.635125e+02 4.434840e+01
    endloop
  endfacet
  facet normal -0.000000e+00 -0.000000e+00 -1.000000e+00
    outer loop
      vertex   -4.394200e+01 1.635125e+02 4.434840e+01
      vertex   -3.759199e+01 1.603375e+02 4.434840e+01
      vertex   -4.394200e+01 1.603375e+02 4.434840e+01
    endloop
  endfacet
  facet normal 0.000000e+00 1.000000e+00 0.000000e+00
    outer loop
      vertex   -3.759199e+01 1.635125e+02 5.069840e+01
      vertex   -3.759199e+01 1.635125e+02 4.434840e+01
      vertex   -4.394200e+01 1.635125e+02 5.069840e+01
    endloop
  endfacet
  facet normal 0.000000e+00 1.000000e+00 0.000000e+00
    outer loop
      vertex   -4.394200e+01 1.635125e+02 5.069840e+01
      vertex   -3.759199e+01 1.635125e+02 4.434840e+01
      vertex   -4.394200e+01 1.635125e+02 4.434840e+01
    endloop
  endfacet
  facet normal -0.000000e+00 -1.000000e+00 0.000000e+00
    outer loop
      vertex   -3.759199e+01 1.603375e+02 4.434840e+01
      vertex   -3.759199e+01 1.603375e+02 5.069840e+01
      vertex   -4.394200e+01 1.603375e+02 4.434840e+01
    endloop
  endfacet
  facet normal 0.000000e+00 -1.000000e+00 0.000000e+00
    outer loop
      vertex   -4.394200e+01 1.603375e+02 4.434840e+01
      vertex   -3.759199e+01 1.603375e+02 5.069840e+01
      vertex   -4.394200e+01 1.603375e+02 5.069840e+01
    endloop
  endfacet
  facet normal -1.000000e+00 0.000000e+00 -0.000000e+00
    outer loop
      vertex   -4.394200e+01 1.603375e+02 5.069840e+01
      vertex   -4.394200e+01 1.635125e+02 5.069840e+01
      vertex   -4.394200e+01 1.603375e+02 4.434840e+01
    endloop
  endfacet
  facet normal -1.000000e+00 0.000000e+00 0.000000e+00
    outer loop
      vertex   -4.394200e+01 1.603375e+02 4.434840e+01
      vertex   -4.394200e+01 1.635125e+02 5.069840e+01
      vertex   -4.394200e+01 1.635125e+02 4.434840e+01
    endloop
  endfacet
  facet normal 1.000000e+00 0.000000e+00 0.000000e+00
    outer loop
      vertex   -1.148080e+02 1.603375e+02 5.069840e+01
      vertex   -1.148080e+02 1.587500e+02 5.069840e+01
      vertex   -1.148080e+02 1.603375e+02 4.434840e+01
    endloop
  endfacet
  facet normal 1.000000e+00 0.000000e+00 0.000000e+00
    outer loop
      vertex   -1.148080e+02 1.603375e+02 4.434840e+01
      vertex   -1.148080e+02 1.587500e+02 5.069840e+01
      vertex   -1.148080e+02 1.587500e+02 3.175000e+00
    endloop
  endfacet
  facet normal 1.000000e+00 0.000000e+00 0.000000e+00
    outer loop
      vertex   -1.148080e+02 1.651000e+02 3.175000e+00
      vertex   -1.148080e+02 1.603375e+02 4.434840e+01
      vertex   -1.148080e+02 1.587500e+02 3.175000e+00
    endloop
  endfacet
  facet normal 1.000000e+00 0.000000e+00 0.000000e+00
    outer loop
      vertex   -1.148080e+02 1.651000e+02 3.175000e+00
      vertex   -1.148080e+02 1.635125e+02 4.434840e+01
      vertex   -1.148080e+02 1.603375e+02 4.434840e+01
    endloop
  endfacet
  facet normal 1.000000e+00 0.000000e+00 -0.000000e+00
    outer loop
      vertex   -1.148080e+02 1.651000e+02 3.175000e+00
      vertex   -1.148080e+02 1.651000e+02 5.069840e+01
      vertex   -1.148080e+02 1.635125e+02 4.434840e+01
    endloop
  endfacet
  facet normal 1.000000e+00 0.000000e+00 -0.000000e+00
    outer loop
      vertex   -1.148080e+02 1.635125e+02 4.434840e+01
      vertex   -1.148080e+02 1.651000e+02 5.069840e+01
      vertex   -1.148080e+02 1.635125e+02 5.069840e+01
    endloop
  endfacet
  facet normal 0.000000e+00 -0.000000e+00 1.000000e+00
    outer loop
      vertex   -1.148080e+02 1.587500e+02 5.069840e+01
      vertex   -1.148080e+02 1.603375e+02 5.069840e+01
      vertex   -1.206500e+02 1.587500e+02 5.069840e+01
    endloop
  endfacet
  facet normal 0.000000e+00 -0.000000e+00 1.000000e+00
    outer loop
      vertex   -1.206500e+02 1.587500e+02 5.069840e+01
      vertex   -1.148080e+02 1.603375e+02 5.069840e+01
      vertex   -1.206500e+02 1.651000e+02 5.069840e+01
    endloop
  endfacet
  facet normal -0.000000e+00 0.000000e+00 1.000000e+00
    outer loop
      vertex   -1.206500e+02 1.651000e+02 5.069840e+01
      vertex   -1.148080e+02 1.603375e+02 5.069840e+01
      vertex   -1.148080e+02 1.635125e+02 5.069840e+01
    endloop
  endfacet
  facet normal 0.000000e+00 0.000000e+00 1.000000e+00
    outer loop
      vertex   -1.148080e+02 1.651000e+02 5.069840e+01
      vertex   -1.206500e+02 1.651000e+02 5.069840e+01
      vertex   -1.148080e+02 1.635125e+02 5.069840e+01
    endloop
  endfacet
  facet normal 0.000000e+00 -0.000000e+00 1.000000e+00
    outer loop
      vertex   -1.148080e+02 1.603375e+02 5.069840e+01
      vertex   -1.084580e+02 1.603375e+02 5.069840e+01
      vertex   -1.148080e+02 1.635125e+02 5.069840e+01
    endloop
  endfacet
  facet normal -0.000000e+00 0.000000e+00 1.000000e+00
    outer loop
      vertex   -1.148080e+02 1.635125e+02 5.069840e+01
      vertex   -1.084580e+02 1.603375e+02 5.069840e+01
      vertex   -1.084580e+02 1.635125e+02 5.069840e+01
    endloop
  endfacet
  facet normal -1.000000e+00 4.475863e-15 0.000000e+00
    outer loop
      vertex   -3.759199e+01 1.635125e+02 5.069840e+01
      vertex   -3.759199e+01 1.651000e+02 5.069840e+01
      vertex   -3.759199e+01 1.635125e+02 4.434840e+01
    endloop
  endfacet
  facet normal -1.000000e+00 4.475863e-15 0.000000e+00
    outer loop
      vertex   -3.759199e+01 1.635125e+02 4.434840e+01
      vertex   -3.759199e+01 1.651000e+02 5.069840e+01
      vertex   -3.759199e+01 1.651000e+02 3.175000e+00
    endloop
  endfacet
  facet normal -1.000000e+00 -0.000000e+00 -1.725732e-16
    outer loop
      vertex   -3.759199e+01 1.603375e+02 4.434840e+01
      vertex   -3.759199e+01 1.651000e+02 3.175000e+00
      vertex   -3.759199e+01 1.587500e+02 3.175000e+00
    endloop
  endfacet
  facet normal -1.000000e+00 -4.475856e-15 0.000000e+00
    outer loop
      vertex   -3.759199e+01 1.587500e+02 5.069840e+01
      vertex   -3.759199e+01 1.603375e+02 4.434840e+01
      vertex   -3.759199e+01 1.587500e+02 3.175000e+00
    endloop
  endfacet
  facet normal -1.000000e+00 -4.475856e-15 -0.000000e+00
    outer loop
      vertex   -3.759199e+01 1.587500e+02 5.069840e+01
      vertex   -3.759199e+01 1.603375e+02 5.069840e+01
      vertex   -3.759199e+01 1.603375e+02 4.434840e+01
    endloop
  endfacet
  facet normal -1.000000e+00 0.000000e+00 -1.725732e-16
    outer loop
      vertex   -3.759199e+01 1.635125e+02 4.434840e+01
      vertex   -3.759199e+01 1.651000e+02 3.175000e+00
      vertex   -3.759199e+01 1.603375e+02 4.434840e+01
    endloop
  endfacet
  facet normal -0.000000e+00 0.000000e+00 1.000000e+00
    outer loop
      vertex   -3.759199e+01 1.651000e+02 5.069840e+01
      vertex   -3.759199e+01 1.635125e+02 5.069840e+01
      vertex   -3.174999e+01 1.651000e+02 5.069840e+01
    endloop
  endfacet
  facet normal 0.000000e+00 0.000000e+00 1.000000e+00
    outer loop
      vertex   -3.174999e+01 1.651000e+02 5.069840e+01
      vertex   -3.759199e+01 1.635125e+02 5.069840e+01
      vertex   -3.759199e+01 1.603375e+02 5.069840e+01
    endloop
  endfacet
  facet normal 0.000000e+00 0.000000e+00 1.000000e+00
    outer loop
      vertex   -3.174999e+01 1.587500e+02 5.069840e+01
      vertex   -3.759199e+01 1.603375e+02 5.069840e+01
      vertex   -3.759199e+01 1.587500e+02 5.069840e+01
    endloop
  endfacet
  facet normal 0.000000e+00 -0.000000e+00 1.000000e+00
    outer loop
      vertex   -3.174999e+01 1.587500e+02 5.069840e+01
      vertex   -3.174999e+01 1.651000e+02 5.069840e+01
      vertex   -3.759199e+01 1.603375e+02 5.069840e+01
    endloop
  endfacet
  facet normal 0.000000e+00 0.000000e+00 1.000000e+00
    outer loop
      vertex   -3.759199e+01 1.635125e+02 5.069840e+01
      vertex   -4.394200e+01 1.635125e+02 5.069840e+01
      vertex   -3.759199e+01 1.603375e+02 5.069840e+01
    endloop
  endfacet
  facet normal 0.000000e+00 0.000000e+00 1.000000e+00
    outer loop
      vertex   -3.759199e+01 1.603375e+02 5.069840e+01
      vertex   -4.394200e+01 1.635125e+02 5.069840e+01
      vertex   -4.394200e+01 1.603375e+02 5.069840e+01
    endloop
  endfacet
  facet normal 0.000000e+00 -1.000000e+00 0.000000e+00
    outer loop
      vertex   -1.206500e+02 1.587500e+02 5.069840e+01
      vertex   -1.206500e+02 1.587500e+02 -6.350000e-01
      vertex   -1.148080e+02 1.587500e+02 3.175000e+00
    endloop
  endfacet
  facet normal -0.000000e+00 -1.000000e+00 -0.000000e+00
    outer loop
      vertex   -1.148080e+02 1.587500e+02 5.069840e+01
      vertex   -1.206500e+02 1.587500e+02 5.069840e+01
      vertex   -1.148080e+02 1.587500e+02 3.175000e+00
    endloop
  endfacet
  facet normal -0.000000e+00 -1.000000e+00 0.000000e+00
    outer loop
      vertex   -3.174999e+01 1.587500e+02 -6.350000e-01
      vertex   -3.759199e+01 1.587500e+02 3.175000e+00
      vertex   -7.619999e+01 1.587500e+02 -6.350000e-01
    endloop
  endfacet
  facet normal -0.000000e+00 -1.000000e+00 0.000000e+00
    outer loop
      vertex   -3.174999e+01 1.587500e+02 -6.350000e-01
      vertex   -3.174999e+01 1.587500e+02 5.069840e+01
      vertex   -3.759199e+01 1.587500e+02 3.175000e+00
    endloop
  endfacet
  facet normal 0.000000e+00 -1.000000e+00 0.000000e+00
    outer loop
      vertex   -3.759199e+01 1.587500e+02 3.175000e+00
      vertex   -3.174999e+01 1.587500e+02 5.069840e+01
      vertex   -3.759199e+01 1.587500e+02 5.069840e+01
    endloop
  endfacet
  facet normal -0.000000e+00 -1.000000e+00 -0.000000e+00
    outer loop
      vertex   -3.759199e+01 1.587500e+02 3.175000e+00
      vertex   -7.619999e+01 1.587500e+02 3.175000e+00
      vertex   -7.619999e+01 1.587500e+02 -6.350000e-01
    endloop
  endfacet
  facet normal 0.000000e+00 -1.000000e+00 0.000000e+00
    outer loop
      vertex   -7.619999e+01 1.587500e+02 -6.350000e-01
      vertex   -7.619999e+01 1.587500e+02 3.175000e+00
      vertex   -1.148080e+02 1.587500e+02 3.175000e+00
    endloop
  endfacet
  facet normal 0.000000e+00 -1.000000e+00 0.000000e+00
    outer loop
      vertex   -1.206500e+02 1.587500e+02 -6.350000e-01
      vertex   -7.619999e+01 1.587500e+02 -6.350000e-01
      vertex   -1.148080e+02 1.587500e+02 3.175000e+00
    endloop
  endfacet
  facet normal 0.000000e+00 -0.000000e+00 -1.000000e+00
    outer loop
      vertex   -1.206500e+02 1.651000e+02 -6.350000e-01
      vertex   -7.619999e+01 1.651000e+02 -6.350000e-01
      vertex   -1.206500e+02 1.587500e+02 -6.350000e-01
    endloop
  endfacet
  facet normal 0.000000e+00 -0.000000e+00 -1.000000e+00
    outer loop
      vertex   -1.206500e+02 1.587500e+02 -6.350000e-01
      vertex   -7.619999e+01 1.651000e+02 -6.350000e-01
      vertex   -7.619999e+01 1.587500e+02 -6.350000e-01
    endloop
  endfacet
  facet normal 0.000000e+00 0.000000e+00 -1.000000e+00
    outer loop
      vertex   -7.619999e+01 1.587500e+02 -6.350000e-01
      vertex   -7.619999e+01 1.651000e+02 -6.350000e-01
      vertex   -3.174999e+01 1.651000e+02 -6.350000e-01
    endloop
  endfacet
  facet normal 0.000000e+00 0.000000e+00 -1.000000e+00
    outer loop
      vertex   -3.174999e+01 1.587500e+02 -6.350000e-01
      vertex   -7.619999e+01 1.587500e+02 -6.350000e-01
      vertex   -3.174999e+01 1.651000e+02 -6.350000e-01
    endloop
  endfacet
  facet normal 0.000000e+00 1.000000e+00 0.000000e+00
    outer loop
      vertex   -7.619999e+01 1.651000e+02 3.175000e+00
      vertex   -7.619999e+01 1.651000e+02 -6.350000e-01
      vertex   -1.148080e+02 1.651000e+02 3.175000e+00
    endloop
  endfacet
  facet normal -0.000000e+00 1.000000e+00 0.000000e+00
    outer loop
      vertex   -7.619999e+01 1.651000e+02 3.175000e+00
      vertex   -3.759199e+01 1.651000e+02 3.175000e+00
      vertex   -7.619999e+01 1.651000e+02 -6.350000e-01
    endloop
  endfacet
  facet normal -0.000000e+00 1.000000e+00 0.000000e+00
    outer loop
      vertex   -7.619999e+01 1.651000e+02 -6.350000e-01
      vertex   -3.759199e+01 1.651000e+02 3.175000e+00
      vertex   -3.174999e+01 1.651000e+02 -6.350000e-01
    endloop
  endfacet
  facet normal 0.000000e+00 1.000000e+00 -0.000000e+00
    outer loop
      vertex   -3.174999e+01 1.651000e+02 -6.350000e-01
      vertex   -3.759199e+01 1.651000e+02 3.175000e+00
      vertex   -3.174999e+01 1.651000e+02 5.069840e+01
    endloop
  endfacet
  facet normal 0.000000e+00 1.000000e+00 -0.000000e+00
    outer loop
      vertex   -3.174999e+01 1.651000e+02 5.069840e+01
      vertex   -3.759199e+01 1.651000e+02 3.175000e+00
      vertex   -3.759199e+01 1.651000e+02 5.069840e+01
    endloop
  endfacet
  facet normal 0.000000e+00 1.000000e+00 -0.000000e+00
    outer loop
      vertex   -7.619999e+01 1.651000e+02 -6.350000e-01
      vertex   -1.206500e+02 1.651000e+02 -6.350000e-01
      vertex   -1.148080e+02 1.651000e+02 3.175000e+00
    endloop
  endfacet
  facet normal 0.000000e+00 1.000000e+00 -0.000000e+00
    outer loop
      vertex   -1.148080e+02 1.651000e+02 3.175000e+00
      vertex   -1.206500e+02 1.651000e+02 -6.350000e-01
      vertex   -1.206500e+02 1.651000e+02 5.069840e+01
    endloop
  endfacet
  facet normal 0.000000e+00 1.000000e+00 0.000000e+00
    outer loop
      vertex   -1.148080e+02 1.651000e+02 5.069840e+01
      vertex   -1.148080e+02 1.651000e+02 3.175000e+00
      vertex   -1.206500e+02 1.651000e+02 5.069840e+01
    endloop
  endfacet
  facet normal 1.000000e+00 0.000000e+00 -0.000000e+00
    outer loop
      vertex   -3.174999e+01 1.587500e+02 -6.350000e-01
      vertex   -3.174999e+01 1.651000e+02 -6.350000e-01
      vertex   -3.174999e+01 1.587500e+02 5.069840e+01
    endloop
  endfacet
  facet normal 1.000000e+00 -0.000000e+00 0.000000e+00
    outer loop
      vertex   -3.174999e+01 1.587500e+02 5.069840e+01
      vertex   -3.174999e+01 1.651000e+02 -6.350000e-01
      vertex   -3.174999e+01 1.651000e+02 5.069840e+01
    endloop
  endfacet
  facet normal -1.000000e+00 0.000000e+00 0.000000e+00
    outer loop
      vertex   -1.206500e+02 1.651000e+02 -6.350000e-01
      vertex   -1.206500e+02 1.587500e+02 -6.350000e-01
      vertex   -1.206500e+02 1.651000e+02 5.069840e+01
    endloop
  endfacet
  facet normal -1.000000e+00 -0.000000e+00 0.000000e+00
    outer loop
      vertex   -1.206500e+02 1.651000e+02 5.069840e+01
      vertex   -1.206500e+02 1.587500e+02 -6.350000e-01
      vertex   -1.206500e+02 1.587500e+02 5.069840e+01
    endloop
  endfacet
  facet normal 0.000000e+00 -0.000000e+00 1.000000e+00
    outer loop
      vertex   -1.148080e+02 1.587500e+02 3.175000e+00
      vertex   -7.619999e+01 1.587500e+02 3.175000e+00
      vertex   -1.148080e+02 1.651000e+02 3.175000e+00
    endloop
  endfacet
  facet normal -0.000000e+00 0.000000e+00 1.000000e+00
    outer loop
      vertex   -1.148080e+02 1.651000e+02 3.175000e+00
      vertex   -7.619999e+01 1.587500e+02 3.175000e+00
      vertex   -7.619999e+01 1.651000e+02 3.175000e+00
    endloop
  endfacet
  facet normal -0.000000e+00 0.000000e+00 1.000000e+00
    outer loop
      vertex   -7.619999e+01 1.651000e+02 3.175000e+00
      vertex   -7.619999e+01 1.587500e+02 3.175000e+00
      vertex   -3.759199e+01 1.587500e+02 3.175000e+00
    endloop
  endfacet
  facet normal 0.000000e+00 0.000000e+00 1.000000e+00
    outer loop
      vertex   -3.759199e+01 1.651000e+02 3.175000e+00
      vertex   -7.619999e+01 1.651000e+02 3.175000e+00
      vertex   -3.759199e+01 1.587500e+02 3.175000e+00
    endloop
  endfacet
endsolid
