solid ascii
  facet normal -3.015542e-01 -9.534490e-01 0.000000e+00
    outer loop
      vertex   -2.225140e+02 3.936999e+01 -1.697000e+01
      vertex   -2.225140e+02 3.936999e+01 -5.450000e+00
      vertex   -2.233809e+02 3.964418e+01 -1.697000e+01
    endloop
  endfacet
  facet normal -3.015542e-01 -9.534490e-01 0.000000e+00
    outer loop
      vertex   -2.233809e+02 3.964418e+01 -1.697000e+01
      vertex   -2.225140e+02 3.936999e+01 -5.450000e+00
      vertex   -2.233809e+02 3.964418e+01 -5.450000e+00
    endloop
  endfacet
  facet normal 1.000000e+00 0.000000e+00 0.000000e+00
    outer loop
      vertex   -1.917700e+02 7.024567e+01 -5.450000e+00
      vertex   -1.917700e+02 3.936999e+01 -5.450000e+00
      vertex   -1.917700e+02 7.024567e+01 -1.697000e+01
    endloop
  endfacet
  facet normal 1.000000e+00 0.000000e+00 0.000000e+00
    outer loop
      vertex   -1.917700e+02 7.024567e+01 -1.697000e+01
      vertex   -1.917700e+02 3.936999e+01 -5.450000e+00
      vertex   -1.917700e+02 3.936999e+01 -1.697000e+01
    endloop
  endfacet
  facet normal 0.000000e+00 -1.000000e+00 -0.000000e+00
    outer loop
      vertex   -1.917700e+02 3.936999e+01 -5.450000e+00
      vertex   -2.225140e+02 3.936999e+01 -5.450000e+00
      vertex   -1.917700e+02 3.936999e+01 -1.697000e+01
    endloop
  endfacet
  facet normal -0.000000e+00 -1.000000e+00 -0.000000e+00
    outer loop
      vertex   -1.917700e+02 3.936999e+01 -1.697000e+01
      vertex   -2.225140e+02 3.936999e+01 -5.450000e+00
      vertex   -2.225140e+02 3.936999e+01 -1.697000e+01
    endloop
  endfacet
  facet normal -9.085766e-16 5.753256e-17 1.000000e+00
    outer loop
      vertex   -1.917700e+02 7.024567e+01 -5.450000e+00
      vertex   -1.933992e+02 4.451654e+01 -5.450000e+00
      vertex   -1.917700e+02 3.936999e+01 -5.450000e+00
    endloop
  endfacet
  facet normal -1.056433e-15 6.689504e-17 1.000000e+00
    outer loop
      vertex   -1.917700e+02 7.024567e+01 -5.450000e+00
      vertex   -1.953998e+02 6.603001e+01 -5.450000e+00
      vertex   -1.933992e+02 4.451654e+01 -5.450000e+00
    endloop
  endfacet
  facet normal -1.064014e-15 7.342255e-17 1.000000e+00
    outer loop
      vertex   -1.917700e+02 7.024567e+01 -5.450000e+00
      vertex   -1.952997e+02 6.748099e+01 -5.450000e+00
      vertex   -1.953998e+02 6.603001e+01 -5.450000e+00
    endloop
  endfacet
  facet normal -1.162904e-15 1.996791e-16 1.000000e+00
    outer loop
      vertex   -1.917700e+02 7.024567e+01 -5.450000e+00
      vertex   -1.952709e+02 6.764900e+01 -5.450000e+00
      vertex   -1.952997e+02 6.748099e+01 -5.450000e+00
    endloop
  endfacet
  facet normal -1.254646e-15 3.233687e-16 1.000000e+00
    outer loop
      vertex   -1.917700e+02 7.024567e+01 -5.450000e+00
      vertex   -1.951436e+02 6.814285e+01 -5.450000e+00
      vertex   -1.952709e+02 6.764900e+01 -5.450000e+00
    endloop
  endfacet
  facet normal -1.401856e-15 5.595417e-16 1.000000e+00
    outer loop
      vertex   -1.917700e+02 7.024567e+01 -5.450000e+00
      vertex   -1.948279e+02 6.893367e+01 -5.450000e+00
      vertex   -1.951436e+02 6.814285e+01 -5.450000e+00
    endloop
  endfacet
  facet normal -1.514615e-15 8.223571e-16 1.000000e+00
    outer loop
      vertex   -1.917700e+02 7.024567e+01 -5.450000e+00
      vertex   -1.942594e+02 6.998076e+01 -5.450000e+00
      vertex   -1.948279e+02 6.893367e+01 -5.450000e+00
    endloop
  endfacet
  facet normal -1.380637e-15 -4.366665e-16 1.000000e+00
    outer loop
      vertex   -1.917700e+02 7.024567e+01 -5.450000e+00
      vertex   -1.920125e+02 7.101257e+01 -5.450000e+00
      vertex   -1.942594e+02 6.998076e+01 -5.450000e+00
    endloop
  endfacet
  facet normal -2.352952e-15 1.680676e-15 1.000000e+00
    outer loop
      vertex   -1.942594e+02 6.998076e+01 -5.450000e+00
      vertex   -1.920125e+02 7.101257e+01 -5.450000e+00
      vertex   -1.933685e+02 7.122810e+01 -5.450000e+00
    endloop
  endfacet
  facet normal 1.820709e-16 1.820709e-16 1.000000e+00
    outer loop
      vertex   -1.933992e+02 4.451654e+01 -5.450000e+00
      vertex   -1.953998e+02 6.603001e+01 -5.450000e+00
      vertex   -1.968117e+02 4.792904e+01 -5.450000e+00
    endloop
  endfacet
  facet normal -1.332841e-18 1.963759e-16 1.000000e+00
    outer loop
      vertex   -1.968117e+02 4.792904e+01 -5.450000e+00
      vertex   -1.953998e+02 6.603001e+01 -5.450000e+00
      vertex   -1.984002e+02 6.600965e+01 -5.450000e+00
    endloop
  endfacet
  facet normal 0.000000e+00 -0.000000e+00 1.000000e+00
    outer loop
      vertex   -2.021168e+02 6.543944e+01 -5.450000e+00
      vertex   -1.984002e+02 6.600965e+01 -5.450000e+00
      vertex   -1.985038e+02 6.748100e+01 -5.450000e+00
    endloop
  endfacet
  facet normal -0.000000e+00 0.000000e+00 1.000000e+00
    outer loop
      vertex   -1.985326e+02 6.764900e+01 -5.450000e+00
      vertex   -2.021168e+02 6.543944e+01 -5.450000e+00
      vertex   -1.985038e+02 6.748100e+01 -5.450000e+00
    endloop
  endfacet
  facet normal 0.000000e+00 0.000000e+00 1.000000e+00
    outer loop
      vertex   -1.985326e+02 6.764900e+01 -5.450000e+00
      vertex   -1.986599e+02 6.814284e+01 -5.450000e+00
      vertex   -2.021168e+02 6.543944e+01 -5.450000e+00
    endloop
  endfacet
  facet normal 0.000000e+00 -0.000000e+00 1.000000e+00
    outer loop
      vertex   -2.021168e+02 6.543944e+01 -5.450000e+00
      vertex   -1.986599e+02 6.814284e+01 -5.450000e+00
      vertex   -2.024681e+02 6.685308e+01 -5.450000e+00
    endloop
  endfacet
  facet normal 0.000000e+00 -0.000000e+00 1.000000e+00
    outer loop
      vertex   -2.024681e+02 6.685308e+01 -5.450000e+00
      vertex   -1.986599e+02 6.814284e+01 -5.450000e+00
      vertex   -1.989755e+02 6.893368e+01 -5.450000e+00
    endloop
  endfacet
  facet normal 0.000000e+00 -0.000000e+00 1.000000e+00
    outer loop
      vertex   -2.024935e+02 6.702109e+01 -5.450000e+00
      vertex   -1.989755e+02 6.893368e+01 -5.450000e+00
      vertex   -2.025241e+02 6.753021e+01 -5.450000e+00
    endloop
  endfacet
  facet normal -0.000000e+00 0.000000e+00 1.000000e+00
    outer loop
      vertex   -2.024935e+02 6.702109e+01 -5.450000e+00
      vertex   -2.024681e+02 6.685308e+01 -5.450000e+00
      vertex   -1.989755e+02 6.893368e+01 -5.450000e+00
    endloop
  endfacet
  facet normal -2.974591e-17 1.938796e-16 1.000000e+00
    outer loop
      vertex   -1.968117e+02 4.792904e+01 -5.450000e+00
      vertex   -1.984002e+02 6.600965e+01 -5.450000e+00
      vertex   -2.021168e+02 6.543944e+01 -5.450000e+00
    endloop
  endfacet
  facet normal -9.114236e-16 -7.324200e-17 1.000000e+00
    outer loop
      vertex   -2.049644e+02 6.449587e+01 -5.450000e+00
      vertex   -1.968117e+02 4.792904e+01 -5.450000e+00
      vertex   -2.021168e+02 6.543944e+01 -5.450000e+00
    endloop
  endfacet
  facet normal 4.847000e-16 6.138107e-16 1.000000e+00
    outer loop
      vertex   -2.049644e+02 6.449587e+01 -5.450000e+00
      vertex   -2.083212e+02 6.280560e+01 -5.450000e+00
      vertex   -1.968117e+02 4.792904e+01 -5.450000e+00
    endloop
  endfacet
  facet normal 1.475863e-15 -1.354581e-15 1.000000e+00
    outer loop
      vertex   -2.049644e+02 6.449587e+01 -5.450000e+00
      vertex   -2.055160e+02 6.586200e+01 -5.450000e+00
      vertex   -2.083212e+02 6.280560e+01 -5.450000e+00
    endloop
  endfacet
  facet normal 0.000000e+00 -0.000000e+00 1.000000e+00
    outer loop
      vertex   -2.083212e+02 6.280560e+01 -5.450000e+00
      vertex   -2.055160e+02 6.586200e+01 -5.450000e+00
      vertex   -2.090934e+02 6.403936e+01 -5.450000e+00
    endloop
  endfacet
  facet normal 0.000000e+00 -0.000000e+00 1.000000e+00
    outer loop
      vertex   -2.090934e+02 6.403936e+01 -5.450000e+00
      vertex   -2.055160e+02 6.586200e+01 -5.450000e+00
      vertex   -2.055941e+02 6.601474e+01 -5.450000e+00
    endloop
  endfacet
  facet normal -0.000000e+00 0.000000e+00 1.000000e+00
    outer loop
      vertex   -2.058707e+02 6.644410e+01 -5.450000e+00
      vertex   -2.090934e+02 6.403936e+01 -5.450000e+00
      vertex   -2.055941e+02 6.601474e+01 -5.450000e+00
    endloop
  endfacet
  facet normal 0.000000e+00 0.000000e+00 1.000000e+00
    outer loop
      vertex   -2.058707e+02 6.644410e+01 -5.450000e+00
      vertex   -2.091715e+02 6.419210e+01 -5.450000e+00
      vertex   -2.090934e+02 6.403936e+01 -5.450000e+00
    endloop
  endfacet
  facet normal 0.000000e+00 0.000000e+00 1.000000e+00
    outer loop
      vertex   -2.058707e+02 6.644410e+01 -5.450000e+00
      vertex   -2.093564e+02 6.466897e+01 -5.450000e+00
      vertex   -2.091715e+02 6.419210e+01 -5.450000e+00
    endloop
  endfacet
  facet normal -1.456521e-15 2.860118e-15 1.000000e+00
    outer loop
      vertex   -2.058707e+02 6.644410e+01 -5.450000e+00
      vertex   -2.064137e+02 6.709916e+01 -5.450000e+00
      vertex   -2.093564e+02 6.466897e+01 -5.450000e+00
    endloop
  endfacet
  facet normal 7.478882e-16 1.908207e-16 1.000000e+00
    outer loop
      vertex   -2.093564e+02 6.466897e+01 -5.450000e+00
      vertex   -2.064137e+02 6.709916e+01 -5.450000e+00
      vertex   -2.095669e+02 6.549374e+01 -5.450000e+00
    endloop
  endfacet
  facet normal 5.499797e-16 5.795242e-16 1.000000e+00
    outer loop
      vertex   -2.095669e+02 6.549374e+01 -5.450000e+00
      vertex   -2.064137e+02 6.709916e+01 -5.450000e+00
      vertex   -2.072792e+02 6.792054e+01 -5.450000e+00
    endloop
  endfacet
  facet normal 1.529290e-15 -8.578945e-16 1.000000e+00
    outer loop
      vertex   -2.097213e+02 6.667320e+01 -5.450000e+00
      vertex   -2.072792e+02 6.792054e+01 -5.450000e+00
      vertex   -2.085113e+02 6.883015e+01 -5.450000e+00
    endloop
  endfacet
  facet normal 7.133609e-15 -4.001782e-15 1.000000e+00
    outer loop
      vertex   -2.097332e+02 6.820564e+01 -5.450000e+00
      vertex   -2.097213e+02 6.667320e+01 -5.450000e+00
      vertex   -2.085113e+02 6.883015e+01 -5.450000e+00
    endloop
  endfacet
  facet normal 0.000000e+00 -0.000000e+00 1.000000e+00
    outer loop
      vertex   -2.025241e+02 6.753021e+01 -5.450000e+00
      vertex   -1.989755e+02 6.893368e+01 -5.450000e+00
      vertex   -2.024698e+02 6.838213e+01 -5.450000e+00
    endloop
  endfacet
  facet normal 0.000000e+00 -0.000000e+00 1.000000e+00
    outer loop
      vertex   -2.024698e+02 6.838213e+01 -5.450000e+00
      vertex   -1.989755e+02 6.893368e+01 -5.450000e+00
      vertex   -1.995441e+02 6.998076e+01 -5.450000e+00
    endloop
  endfacet
  facet normal 0.000000e+00 -0.000000e+00 1.000000e+00
    outer loop
      vertex   -2.022526e+02 6.955310e+01 -5.450000e+00
      vertex   -1.995441e+02 6.998076e+01 -5.450000e+00
      vertex   -2.004350e+02 7.122810e+01 -5.450000e+00
    endloop
  endfacet
  facet normal -0.000000e+00 0.000000e+00 1.000000e+00
    outer loop
      vertex   -2.017910e+02 7.101257e+01 -5.450000e+00
      vertex   -2.022526e+02 6.955310e+01 -5.450000e+00
      vertex   -2.004350e+02 7.122810e+01 -5.450000e+00
    endloop
  endfacet
  facet normal 0.000000e+00 -0.000000e+00 1.000000e+00
    outer loop
      vertex   -2.024698e+02 6.838213e+01 -5.450000e+00
      vertex   -1.995441e+02 6.998076e+01 -5.450000e+00
      vertex   -2.022526e+02 6.955310e+01 -5.450000e+00
    endloop
  endfacet
  facet normal 1.022705e-15 1.339071e-16 1.000000e+00
    outer loop
      vertex   -2.095669e+02 6.549374e+01 -5.450000e+00
      vertex   -2.072792e+02 6.792054e+01 -5.450000e+00
      vertex   -2.097213e+02 6.667320e+01 -5.450000e+00
    endloop
  endfacet
  facet normal -1.120078e-16 1.521556e-16 1.000000e+00
    outer loop
      vertex   -2.083212e+02 6.280560e+01 -5.450000e+00
      vertex   -2.107395e+02 6.102539e+01 -5.450000e+00
      vertex   -1.968117e+02 4.792904e+01 -5.450000e+00
    endloop
  endfacet
  facet normal -1.314641e-16 1.314641e-16 1.000000e+00
    outer loop
      vertex   -1.968117e+02 4.792904e+01 -5.450000e+00
      vertex   -2.107395e+02 6.102539e+01 -5.450000e+00
      vertex   -2.002242e+02 4.451654e+01 -5.450000e+00
    endloop
  endfacet
  facet normal -1.307464e-16 1.319212e-16 1.000000e+00
    outer loop
      vertex   -2.002242e+02 4.451654e+01 -5.450000e+00
      vertex   -2.107395e+02 6.102539e+01 -5.450000e+00
      vertex   -2.134073e+02 5.838138e+01 -5.450000e+00
    endloop
  endfacet
  facet normal -1.535929e-16 1.101980e-16 1.000000e+00
    outer loop
      vertex   -2.151570e+02 5.594271e+01 -5.450000e+00
      vertex   -2.002242e+02 4.451654e+01 -5.450000e+00
      vertex   -2.134073e+02 5.838138e+01 -5.450000e+00
    endloop
  endfacet
  facet normal -1.705438e-16 8.804494e-17 1.000000e+00
    outer loop
      vertex   -2.151570e+02 5.594271e+01 -5.450000e+00
      vertex   -2.168812e+02 5.260290e+01 -5.450000e+00
      vertex   -2.002242e+02 4.451654e+01 -5.450000e+00
    endloop
  endfacet
  facet normal 0.000000e+00 0.000000e+00 1.000000e+00
    outer loop
      vertex   -2.151570e+02 5.594271e+01 -5.450000e+00
      vertex   -2.182303e+02 5.314766e+01 -5.450000e+00
      vertex   -2.168812e+02 5.260290e+01 -5.450000e+00
    endloop
  endfacet
  facet normal 0.000000e+00 0.000000e+00 1.000000e+00
    outer loop
      vertex   -2.151570e+02 5.594271e+01 -5.450000e+00
      vertex   -2.164077e+02 5.672505e+01 -5.450000e+00
      vertex   -2.182303e+02 5.314766e+01 -5.450000e+00
    endloop
  endfacet
  facet normal 0.000000e+00 -0.000000e+00 1.000000e+00
    outer loop
      vertex   -2.182303e+02 5.314766e+01 -5.450000e+00
      vertex   -2.164077e+02 5.672505e+01 -5.450000e+00
      vertex   -2.183831e+02 5.322572e+01 -5.450000e+00
    endloop
  endfacet
  facet normal 0.000000e+00 -0.000000e+00 1.000000e+00
    outer loop
      vertex   -2.183831e+02 5.322572e+01 -5.450000e+00
      vertex   -2.164077e+02 5.672505e+01 -5.450000e+00
      vertex   -2.188124e+02 5.350234e+01 -5.450000e+00
    endloop
  endfacet
  facet normal 0.000000e+00 -0.000000e+00 1.000000e+00
    outer loop
      vertex   -2.188124e+02 5.350234e+01 -5.450000e+00
      vertex   -2.164077e+02 5.672505e+01 -5.450000e+00
      vertex   -2.165604e+02 5.680312e+01 -5.450000e+00
    endloop
  endfacet
  facet normal 1.030931e-14 -7.033656e-15 1.000000e+00
    outer loop
      vertex   -2.170373e+02 5.698809e+01 -5.450000e+00
      vertex   -2.188124e+02 5.350234e+01 -5.450000e+00
      vertex   -2.165604e+02 5.680312e+01 -5.450000e+00
    endloop
  endfacet
  facet normal -1.039709e-15 -1.254145e-15 1.000000e+00
    outer loop
      vertex   -2.170373e+02 5.698809e+01 -5.450000e+00
      vertex   -2.194675e+02 5.404540e+01 -5.450000e+00
      vertex   -2.188124e+02 5.350234e+01 -5.450000e+00
    endloop
  endfacet
  facet normal -4.452508e-16 -1.745071e-15 1.000000e+00
    outer loop
      vertex   -2.170373e+02 5.698809e+01 -5.450000e+00
      vertex   -2.178621e+02 5.719853e+01 -5.450000e+00
      vertex   -2.194675e+02 5.404540e+01 -5.450000e+00
    endloop
  endfacet
  facet normal -1.352222e-15 -1.283287e-15 1.000000e+00
    outer loop
      vertex   -2.194675e+02 5.404540e+01 -5.450000e+00
      vertex   -2.178621e+02 5.719853e+01 -5.450000e+00
      vertex   -2.202889e+02 5.491090e+01 -5.450000e+00
    endloop
  endfacet
  facet normal -4.940862e-15 2.523657e-15 1.000000e+00
    outer loop
      vertex   -2.202889e+02 5.491090e+01 -5.450000e+00
      vertex   -2.178621e+02 5.719853e+01 -5.450000e+00
      vertex   -2.190415e+02 5.735296e+01 -5.450000e+00
    endloop
  endfacet
  facet normal 0.000000e+00 -0.000000e+00 1.000000e+00
    outer loop
      vertex   -2.211985e+02 5.614296e+01 -5.450000e+00
      vertex   -2.190415e+02 5.735296e+01 -5.450000e+00
      vertex   -2.205740e+02 5.736484e+01 -5.450000e+00
    endloop
  endfacet
  facet normal -0.000000e+00 0.000000e+00 1.000000e+00
    outer loop
      vertex   -2.211985e+02 5.614296e+01 -5.450000e+00
      vertex   -2.202889e+02 5.491090e+01 -5.450000e+00
      vertex   -2.190415e+02 5.735296e+01 -5.450000e+00
    endloop
  endfacet
  facet normal 0.000000e+00 0.000000e+00 1.000000e+00
    outer loop
      vertex   -2.107395e+02 6.102539e+01 -5.450000e+00
      vertex   -2.116865e+02 6.215564e+01 -5.450000e+00
      vertex   -2.134073e+02 5.838138e+01 -5.450000e+00
    endloop
  endfacet
  facet normal 0.000000e+00 -0.000000e+00 1.000000e+00
    outer loop
      vertex   -2.134073e+02 5.838138e+01 -5.450000e+00
      vertex   -2.116865e+02 6.215564e+01 -5.450000e+00
      vertex   -2.145240e+02 5.931816e+01 -5.450000e+00
    endloop
  endfacet
  facet normal 0.000000e+00 -0.000000e+00 1.000000e+00
    outer loop
      vertex   -2.145240e+02 5.931816e+01 -5.450000e+00
      vertex   -2.116865e+02 6.215564e+01 -5.450000e+00
      vertex   -2.146445e+02 5.943865e+01 -5.450000e+00
    endloop
  endfacet
  facet normal 0.000000e+00 -0.000000e+00 1.000000e+00
    outer loop
      vertex   -2.146445e+02 5.943865e+01 -5.450000e+00
      vertex   -2.116865e+02 6.215564e+01 -5.450000e+00
      vertex   -2.118070e+02 6.227612e+01 -5.450000e+00
    endloop
  endfacet
  facet normal 0.000000e+00 -0.000000e+00 1.000000e+00
    outer loop
      vertex   -2.149686e+02 5.983406e+01 -5.450000e+00
      vertex   -2.118070e+02 6.227612e+01 -5.450000e+00
      vertex   -2.122024e+02 6.260026e+01 -5.450000e+00
    endloop
  endfacet
  facet normal 0.000000e+00 -0.000000e+00 1.000000e+00
    outer loop
      vertex   -2.154234e+02 6.055361e+01 -5.450000e+00
      vertex   -2.122024e+02 6.260026e+01 -5.450000e+00
      vertex   -2.129219e+02 6.305507e+01 -5.450000e+00
    endloop
  endfacet
  facet normal 0.000000e+00 -0.000000e+00 1.000000e+00
    outer loop
      vertex   -2.159359e+02 6.162955e+01 -5.450000e+00
      vertex   -2.129219e+02 6.305507e+01 -5.450000e+00
      vertex   -2.139979e+02 6.356759e+01 -5.450000e+00
    endloop
  endfacet
  facet normal -0.000000e+00 0.000000e+00 1.000000e+00
    outer loop
      vertex   -2.154506e+02 6.405294e+01 -5.450000e+00
      vertex   -2.159359e+02 6.162955e+01 -5.450000e+00
      vertex   -2.139979e+02 6.356759e+01 -5.450000e+00
    endloop
  endfacet
  facet normal 0.000000e+00 0.000000e+00 1.000000e+00
    outer loop
      vertex   -2.154506e+02 6.405294e+01 -5.450000e+00
      vertex   -2.164213e+02 6.308222e+01 -5.450000e+00
      vertex   -2.159359e+02 6.162955e+01 -5.450000e+00
    endloop
  endfacet
  facet normal 0.000000e+00 -0.000000e+00 1.000000e+00
    outer loop
      vertex   -2.146445e+02 5.943865e+01 -5.450000e+00
      vertex   -2.118070e+02 6.227612e+01 -5.450000e+00
      vertex   -2.149686e+02 5.983406e+01 -5.450000e+00
    endloop
  endfacet
  facet normal 0.000000e+00 -0.000000e+00 1.000000e+00
    outer loop
      vertex   -2.149686e+02 5.983406e+01 -5.450000e+00
      vertex   -2.122024e+02 6.260026e+01 -5.450000e+00
      vertex   -2.154234e+02 6.055361e+01 -5.450000e+00
    endloop
  endfacet
  facet normal 0.000000e+00 -0.000000e+00 1.000000e+00
    outer loop
      vertex   -2.154234e+02 6.055361e+01 -5.450000e+00
      vertex   -2.129219e+02 6.305507e+01 -5.450000e+00
      vertex   -2.159359e+02 6.162955e+01 -5.450000e+00
    endloop
  endfacet
  facet normal -1.847092e-16 5.886585e-17 1.000000e+00
    outer loop
      vertex   -2.168812e+02 5.260290e+01 -5.450000e+00
      vertex   -2.177925e+02 4.974336e+01 -5.450000e+00
      vertex   -2.002242e+02 4.451654e+01 -5.450000e+00
    endloop
  endfacet
  facet normal -1.928483e-16 3.150870e-17 1.000000e+00
    outer loop
      vertex   -2.002242e+02 4.451654e+01 -5.450000e+00
      vertex   -2.177925e+02 4.974336e+01 -5.450000e+00
      vertex   -2.183983e+02 4.603529e+01 -5.450000e+00
    endloop
  endfacet
  facet normal -1.955923e-16 -1.327639e-18 1.000000e+00
    outer loop
      vertex   -2.183780e+02 4.303490e+01 -5.450000e+00
      vertex   -2.002242e+02 4.451654e+01 -5.450000e+00
      vertex   -2.183983e+02 4.603529e+01 -5.450000e+00
    endloop
  endfacet
  facet normal -1.809336e-16 -1.809336e-16 1.000000e+00
    outer loop
      vertex   -2.183780e+02 4.303490e+01 -5.450000e+00
      vertex   -1.968117e+02 4.110404e+01 -5.450000e+00
      vertex   -2.002242e+02 4.451654e+01 -5.450000e+00
    endloop
  endfacet
  facet normal -1.496172e-16 1.688490e-16 1.000000e+00
    outer loop
      vertex   -2.183780e+02 4.303490e+01 -5.450000e+00
      vertex   -2.225140e+02 3.936999e+01 -5.450000e+00
      vertex   -1.968117e+02 4.110404e+01 -5.450000e+00
    endloop
  endfacet
  facet normal 0.000000e+00 0.000000e+00 1.000000e+00
    outer loop
      vertex   -2.183780e+02 4.303490e+01 -5.450000e+00
      vertex   -2.198493e+02 4.293138e+01 -5.450000e+00
      vertex   -2.225140e+02 3.936999e+01 -5.450000e+00
    endloop
  endfacet
  facet normal 0.000000e+00 -0.000000e+00 1.000000e+00
    outer loop
      vertex   -2.225140e+02 3.936999e+01 -5.450000e+00
      vertex   -2.198493e+02 4.293138e+01 -5.450000e+00
      vertex   -2.200173e+02 4.290253e+01 -5.450000e+00
    endloop
  endfacet
  facet normal 8.796346e-15 -6.216858e-15 1.000000e+00
    outer loop
      vertex   -2.205112e+02 4.277525e+01 -5.450000e+00
      vertex   -2.225140e+02 3.936999e+01 -5.450000e+00
      vertex   -2.200173e+02 4.290253e+01 -5.450000e+00
    endloop
  endfacet
  facet normal -5.326376e-15 2.089396e-15 1.000000e+00
    outer loop
      vertex   -2.205112e+02 4.277525e+01 -5.450000e+00
      vertex   -2.213020e+02 4.245960e+01 -5.450000e+00
      vertex   -2.225140e+02 3.936999e+01 -5.450000e+00
    endloop
  endfacet
  facet normal 0.000000e+00 -0.000000e+00 1.000000e+00
    outer loop
      vertex   -2.225140e+02 3.936999e+01 -5.450000e+00
      vertex   -2.213020e+02 4.245960e+01 -5.450000e+00
      vertex   -2.223491e+02 4.189108e+01 -5.450000e+00
    endloop
  endfacet
  facet normal 0.000000e+00 -0.000000e+00 1.000000e+00
    outer loop
      vertex   -2.233809e+02 3.964418e+01 -5.450000e+00
      vertex   -2.223491e+02 4.189108e+01 -5.450000e+00
      vertex   -2.235964e+02 4.100013e+01 -5.450000e+00
    endloop
  endfacet
  facet normal -0.000000e+00 0.000000e+00 1.000000e+00
    outer loop
      vertex   -2.233809e+02 3.964418e+01 -5.450000e+00
      vertex   -2.225140e+02 3.936999e+01 -5.450000e+00
      vertex   -2.223491e+02 4.189108e+01 -5.450000e+00
    endloop
  endfacet
  facet normal -0.000000e+00 0.000000e+00 1.000000e+00
    outer loop
      vertex   -2.192214e+02 5.009974e+01 -5.450000e+00
      vertex   -2.205112e+02 4.629155e+01 -5.450000e+00
      vertex   -2.177925e+02 4.974336e+01 -5.450000e+00
    endloop
  endfacet
  facet normal 0.000000e+00 0.000000e+00 1.000000e+00
    outer loop
      vertex   -2.192214e+02 5.009974e+01 -5.450000e+00
      vertex   -2.213020e+02 4.660720e+01 -5.450000e+00
      vertex   -2.205112e+02 4.629155e+01 -5.450000e+00
    endloop
  endfacet
  facet normal 0.000000e+00 0.000000e+00 1.000000e+00
    outer loop
      vertex   -2.192214e+02 5.009974e+01 -5.450000e+00
      vertex   -2.193894e+02 5.012520e+01 -5.450000e+00
      vertex   -2.213020e+02 4.660720e+01 -5.450000e+00
    endloop
  endfacet
  facet normal 0.000000e+00 -0.000000e+00 1.000000e+00
    outer loop
      vertex   -2.213020e+02 4.660720e+01 -5.450000e+00
      vertex   -2.193894e+02 5.012520e+01 -5.450000e+00
      vertex   -2.198985e+02 5.015575e+01 -5.450000e+00
    endloop
  endfacet
  facet normal -0.000000e+00 0.000000e+00 1.000000e+00
    outer loop
      vertex   -2.207505e+02 5.010144e+01 -5.450000e+00
      vertex   -2.213020e+02 4.660720e+01 -5.450000e+00
      vertex   -2.198985e+02 5.015575e+01 -5.450000e+00
    endloop
  endfacet
  facet normal 0.000000e+00 0.000000e+00 1.000000e+00
    outer loop
      vertex   -2.207505e+02 5.010144e+01 -5.450000e+00
      vertex   -2.223491e+02 4.717572e+01 -5.450000e+00
      vertex   -2.213020e+02 4.660720e+01 -5.450000e+00
    endloop
  endfacet
  facet normal 0.000000e+00 0.000000e+00 1.000000e+00
    outer loop
      vertex   -2.207505e+02 5.010144e+01 -5.450000e+00
      vertex   -2.219214e+02 4.988422e+01 -5.450000e+00
      vertex   -2.223491e+02 4.717572e+01 -5.450000e+00
    endloop
  endfacet
  facet normal 0.000000e+00 -0.000000e+00 1.000000e+00
    outer loop
      vertex   -2.223491e+02 4.717572e+01 -5.450000e+00
      vertex   -2.219214e+02 4.988422e+01 -5.450000e+00
      vertex   -2.235964e+02 4.806667e+01 -5.450000e+00
    endloop
  endfacet
  facet normal 0.000000e+00 -0.000000e+00 1.000000e+00
    outer loop
      vertex   -2.235964e+02 4.806667e+01 -5.450000e+00
      vertex   -2.219214e+02 4.988422e+01 -5.450000e+00
      vertex   -2.233809e+02 4.942262e+01 -5.450000e+00
    endloop
  endfacet
  facet normal -0.000000e+00 0.000000e+00 1.000000e+00
    outer loop
      vertex   -2.205112e+02 4.629155e+01 -5.450000e+00
      vertex   -2.200173e+02 4.616427e+01 -5.450000e+00
      vertex   -2.177925e+02 4.974336e+01 -5.450000e+00
    endloop
  endfacet
  facet normal 0.000000e+00 0.000000e+00 1.000000e+00
    outer loop
      vertex   -2.177925e+02 4.974336e+01 -5.450000e+00
      vertex   -2.200173e+02 4.616427e+01 -5.450000e+00
      vertex   -2.198493e+02 4.613542e+01 -5.450000e+00
    endloop
  endfacet
  facet normal 0.000000e+00 -0.000000e+00 1.000000e+00
    outer loop
      vertex   -2.183983e+02 4.603529e+01 -5.450000e+00
      vertex   -2.177925e+02 4.974336e+01 -5.450000e+00
      vertex   -2.198493e+02 4.613542e+01 -5.450000e+00
    endloop
  endfacet
  facet normal -1.733368e-16 5.204243e-16 1.000000e+00
    outer loop
      vertex   -2.225140e+02 3.936999e+01 -5.450000e+00
      vertex   -1.917700e+02 3.936999e+01 -5.450000e+00
      vertex   -1.968117e+02 4.110404e+01 -5.450000e+00
    endloop
  endfacet
  facet normal -2.621635e-16 2.621635e-16 1.000000e+00
    outer loop
      vertex   -1.968117e+02 4.110404e+01 -5.450000e+00
      vertex   -1.917700e+02 3.936999e+01 -5.450000e+00
      vertex   -1.933992e+02 4.451654e+01 -5.450000e+00
    endloop
  endfacet
  facet normal -1.823938e-01 9.832256e-01 0.000000e+00
    outer loop
      vertex   -2.219214e+02 4.988422e+01 -1.697000e+01
      vertex   -2.219214e+02 4.988422e+01 -5.450000e+00
      vertex   -2.207505e+02 5.010144e+01 -1.697000e+01
    endloop
  endfacet
  facet normal -1.823938e-01 9.832256e-01 0.000000e+00
    outer loop
      vertex   -2.207505e+02 5.010144e+01 -1.697000e+01
      vertex   -2.219214e+02 4.988422e+01 -5.450000e+00
      vertex   -2.207505e+02 5.010144e+01 -5.450000e+00
    endloop
  endfacet
  facet normal -6.361699e-02 9.979744e-01 0.000000e+00
    outer loop
      vertex   -2.198985e+02 5.015575e+01 -5.450000e+00
      vertex   -2.198985e+02 5.015575e+01 -1.697000e+01
      vertex   -2.207505e+02 5.010144e+01 -5.450000e+00
    endloop
  endfacet
  facet normal -6.361699e-02 9.979744e-01 0.000000e+00
    outer loop
      vertex   -2.207505e+02 5.010144e+01 -5.450000e+00
      vertex   -2.198985e+02 5.015575e+01 -1.697000e+01
      vertex   -2.207505e+02 5.010144e+01 -1.697000e+01
    endloop
  endfacet
  facet normal -3.015550e-01 9.534488e-01 0.000000e+00
    outer loop
      vertex   -2.219214e+02 4.988422e+01 -5.450000e+00
      vertex   -2.219214e+02 4.988422e+01 -1.697000e+01
      vertex   -2.233809e+02 4.942262e+01 -5.450000e+00
    endloop
  endfacet
  facet normal -3.015550e-01 9.534488e-01 0.000000e+00
    outer loop
      vertex   -2.233809e+02 4.942262e+01 -5.450000e+00
      vertex   -2.219214e+02 4.988422e+01 -1.697000e+01
      vertex   -2.233809e+02 4.942262e+01 -1.697000e+01
    endloop
  endfacet
  facet normal 2.419926e-01 9.702781e-01 -0.000000e+00
    outer loop
      vertex   -2.192214e+02 5.009974e+01 -1.697000e+01
      vertex   -2.192214e+02 5.009974e+01 -5.450000e+00
      vertex   -2.177925e+02 4.974336e+01 -1.697000e+01
    endloop
  endfacet
  facet normal 2.419926e-01 9.702781e-01 0.000000e+00
    outer loop
      vertex   -2.177925e+02 4.974336e+01 -1.697000e+01
      vertex   -2.192214e+02 5.009974e+01 -5.450000e+00
      vertex   -2.177925e+02 4.974336e+01 -5.450000e+00
    endloop
  endfacet
  facet normal 5.989806e-02 9.982045e-01 -0.000000e+00
    outer loop
      vertex   -2.198985e+02 5.015575e+01 -1.697000e+01
      vertex   -2.198985e+02 5.015575e+01 -5.450000e+00
      vertex   -2.193894e+02 5.012520e+01 -1.697000e+01
    endloop
  endfacet
  facet normal 5.989806e-02 9.982045e-01 0.000000e+00
    outer loop
      vertex   -2.193894e+02 5.012520e+01 -1.697000e+01
      vertex   -2.198985e+02 5.015575e+01 -5.450000e+00
      vertex   -2.193894e+02 5.012520e+01 -5.450000e+00
    endloop
  endfacet
  facet normal 1.497969e-01 9.887168e-01 -0.000000e+00
    outer loop
      vertex   -2.193894e+02 5.012520e+01 -1.697000e+01
      vertex   -2.193894e+02 5.012520e+01 -5.450000e+00
      vertex   -2.192214e+02 5.009974e+01 -1.697000e+01
    endloop
  endfacet
  facet normal 1.497969e-01 9.887168e-01 0.000000e+00
    outer loop
      vertex   -2.192214e+02 5.009974e+01 -1.697000e+01
      vertex   -2.193894e+02 5.012520e+01 -5.450000e+00
      vertex   -2.192214e+02 5.009974e+01 -5.450000e+00
    endloop
  endfacet
  facet normal -8.904352e-01 4.551100e-01 0.000000e+00
    outer loop
      vertex   -2.205740e+02 5.736484e+01 -5.450000e+00
      vertex   -2.205740e+02 5.736484e+01 -1.697000e+01
      vertex   -2.211985e+02 5.614296e+01 -5.450000e+00
    endloop
  endfacet
  facet normal -8.904352e-01 4.551100e-01 0.000000e+00
    outer loop
      vertex   -2.211985e+02 5.614296e+01 -5.450000e+00
      vertex   -2.205740e+02 5.736484e+01 -1.697000e+01
      vertex   -2.211985e+02 5.614296e+01 -1.697000e+01
    endloop
  endfacet
  facet normal -5.928325e-01 8.053258e-01 0.000000e+00
    outer loop
      vertex   -2.107395e+02 6.102539e+01 -1.697000e+01
      vertex   -2.107395e+02 6.102539e+01 -5.450000e+00
      vertex   -2.083212e+02 6.280560e+01 -1.697000e+01
    endloop
  endfacet
  facet normal -5.928325e-01 8.053258e-01 0.000000e+00
    outer loop
      vertex   -2.083212e+02 6.280560e+01 -1.697000e+01
      vertex   -2.107395e+02 6.102539e+01 -5.450000e+00
      vertex   -2.083212e+02 6.280560e+01 -5.450000e+00
    endloop
  endfacet
  facet normal -3.707065e-01 -9.287501e-01 0.000000e+00
    outer loop
      vertex   -2.205112e+02 4.629155e+01 -1.697000e+01
      vertex   -2.205112e+02 4.629155e+01 -5.450000e+00
      vertex   -2.213020e+02 4.660720e+01 -1.697000e+01
    endloop
  endfacet
  facet normal -3.707065e-01 -9.287501e-01 0.000000e+00
    outer loop
      vertex   -2.213020e+02 4.660720e+01 -1.697000e+01
      vertex   -2.205112e+02 4.629155e+01 -5.450000e+00
      vertex   -2.213020e+02 4.660720e+01 -5.450000e+00
    endloop
  endfacet
  facet normal -6.884381e-02 -9.976275e-01 0.000000e+00
    outer loop
      vertex   -2.183983e+02 4.603529e+01 -1.697000e+01
      vertex   -2.183983e+02 4.603529e+01 -5.450000e+00
      vertex   -2.198493e+02 4.613542e+01 -1.697000e+01
    endloop
  endfacet
  facet normal -6.884381e-02 -9.976275e-01 0.000000e+00
    outer loop
      vertex   -2.198493e+02 4.613542e+01 -1.697000e+01
      vertex   -2.183983e+02 4.603529e+01 -5.450000e+00
      vertex   -2.198493e+02 4.613542e+01 -5.450000e+00
    endloop
  endfacet
  facet normal -5.812387e-01 -8.137331e-01 0.000000e+00
    outer loop
      vertex   -2.223491e+02 4.717572e+01 -1.697000e+01
      vertex   -2.223491e+02 4.717572e+01 -5.450000e+00
      vertex   -2.235964e+02 4.806667e+01 -1.697000e+01
    endloop
  endfacet
  facet normal -5.812387e-01 -8.137331e-01 0.000000e+00
    outer loop
      vertex   -2.235964e+02 4.806667e+01 -1.697000e+01
      vertex   -2.223491e+02 4.717572e+01 -5.450000e+00
      vertex   -2.235964e+02 4.806667e+01 -5.450000e+00
    endloop
  endfacet
  facet normal -4.771536e-01 -8.788199e-01 0.000000e+00
    outer loop
      vertex   -2.213020e+02 4.660720e+01 -1.697000e+01
      vertex   -2.213020e+02 4.660720e+01 -5.450000e+00
      vertex   -2.223491e+02 4.717572e+01 -1.697000e+01
    endloop
  endfacet
  facet normal -4.771536e-01 -8.788199e-01 0.000000e+00
    outer loop
      vertex   -2.223491e+02 4.717572e+01 -1.697000e+01
      vertex   -2.213020e+02 4.660720e+01 -5.450000e+00
      vertex   -2.223491e+02 4.717572e+01 -5.450000e+00
    endloop
  endfacet
  facet normal 3.616394e-01 9.323180e-01 0.000000e+00
    outer loop
      vertex   -2.165604e+02 5.680312e+01 -5.450000e+00
      vertex   -2.165604e+02 5.680312e+01 -1.697000e+01
      vertex   -2.170373e+02 5.698809e+01 -5.450000e+00
    endloop
  endfacet
  facet normal 3.616394e-01 9.323180e-01 0.000000e+00
    outer loop
      vertex   -2.170373e+02 5.698809e+01 -5.450000e+00
      vertex   -2.165604e+02 5.680312e+01 -1.697000e+01
      vertex   -2.170373e+02 5.698809e+01 -1.697000e+01
    endloop
  endfacet
  facet normal 1.298266e-01 9.915367e-01 0.000000e+00
    outer loop
      vertex   -2.178621e+02 5.719853e+01 -5.450000e+00
      vertex   -2.178621e+02 5.719853e+01 -1.697000e+01
      vertex   -2.190415e+02 5.735296e+01 -5.450000e+00
    endloop
  endfacet
  facet normal 1.298266e-01 9.915367e-01 0.000000e+00
    outer loop
      vertex   -2.190415e+02 5.735296e+01 -5.450000e+00
      vertex   -2.178621e+02 5.719853e+01 -1.697000e+01
      vertex   -2.190415e+02 5.735296e+01 -1.697000e+01
    endloop
  endfacet
  facet normal 2.472272e-01 9.689575e-01 0.000000e+00
    outer loop
      vertex   -2.170373e+02 5.698809e+01 -5.450000e+00
      vertex   -2.170373e+02 5.698809e+01 -1.697000e+01
      vertex   -2.178621e+02 5.719853e+01 -5.450000e+00
    endloop
  endfacet
  facet normal 2.472272e-01 9.689575e-01 0.000000e+00
    outer loop
      vertex   -2.178621e+02 5.719853e+01 -5.450000e+00
      vertex   -2.170373e+02 5.698809e+01 -1.697000e+01
      vertex   -2.178621e+02 5.719853e+01 -1.697000e+01
    endloop
  endfacet
  facet normal 7.751664e-03 9.999700e-01 0.000000e+00
    outer loop
      vertex   -2.190415e+02 5.735296e+01 -5.450000e+00
      vertex   -2.190415e+02 5.735296e+01 -1.697000e+01
      vertex   -2.205740e+02 5.736484e+01 -5.450000e+00
    endloop
  endfacet
  facet normal 7.751664e-03 9.999700e-01 0.000000e+00
    outer loop
      vertex   -2.205740e+02 5.736484e+01 -5.450000e+00
      vertex   -2.190415e+02 5.735296e+01 -1.697000e+01
      vertex   -2.205740e+02 5.736484e+01 -1.697000e+01
    endloop
  endfacet
  facet normal 9.855743e-01 1.692431e-01 -0.000000e+00
    outer loop
      vertex   -1.985326e+02 6.764900e+01 -1.697000e+01
      vertex   -1.985326e+02 6.764900e+01 -5.450000e+00
      vertex   -1.985038e+02 6.748100e+01 -1.697000e+01
    endloop
  endfacet
  facet normal 9.855743e-01 1.692431e-01 0.000000e+00
    outer loop
      vertex   -1.985038e+02 6.748100e+01 -1.697000e+01
      vertex   -1.985326e+02 6.764900e+01 -5.450000e+00
      vertex   -1.985038e+02 6.748100e+01 -5.450000e+00
    endloop
  endfacet
  facet normal 9.683564e-01 2.495714e-01 0.000000e+00
    outer loop
      vertex   -1.985326e+02 6.764900e+01 -5.450000e+00
      vertex   -1.985326e+02 6.764900e+01 -1.697000e+01
      vertex   -1.986599e+02 6.814284e+01 -5.450000e+00
    endloop
  endfacet
  facet normal 9.683564e-01 2.495714e-01 0.000000e+00
    outer loop
      vertex   -1.986599e+02 6.814284e+01 -5.450000e+00
      vertex   -1.985326e+02 6.764900e+01 -1.697000e+01
      vertex   -1.986599e+02 6.814284e+01 -1.697000e+01
    endloop
  endfacet
  facet normal 9.287506e-01 3.707051e-01 0.000000e+00
    outer loop
      vertex   -1.986599e+02 6.814284e+01 -5.450000e+00
      vertex   -1.986599e+02 6.814284e+01 -1.697000e+01
      vertex   -1.989755e+02 6.893368e+01 -5.450000e+00
    endloop
  endfacet
  facet normal 9.287506e-01 3.707051e-01 0.000000e+00
    outer loop
      vertex   -1.989755e+02 6.893368e+01 -5.450000e+00
      vertex   -1.986599e+02 6.814284e+01 -1.697000e+01
      vertex   -1.989755e+02 6.893368e+01 -1.697000e+01
    endloop
  endfacet
  facet normal 9.975340e-01 7.018466e-02 0.000000e+00
    outer loop
      vertex   -1.984002e+02 6.600965e+01 -5.450000e+00
      vertex   -1.984002e+02 6.600965e+01 -1.697000e+01
      vertex   -1.985038e+02 6.748100e+01 -5.450000e+00
    endloop
  endfacet
  facet normal 9.975340e-01 7.018466e-02 0.000000e+00
    outer loop
      vertex   -1.985038e+02 6.748100e+01 -5.450000e+00
      vertex   -1.984002e+02 6.600965e+01 -1.697000e+01
      vertex   -1.985038e+02 6.748100e+01 -1.697000e+01
    endloop
  endfacet
  facet normal 8.788192e-01 4.771549e-01 0.000000e+00
    outer loop
      vertex   -1.989755e+02 6.893368e+01 -5.450000e+00
      vertex   -1.989755e+02 6.893368e+01 -1.697000e+01
      vertex   -1.995441e+02 6.998076e+01 -5.450000e+00
    endloop
  endfacet
  facet normal 8.788192e-01 4.771549e-01 0.000000e+00
    outer loop
      vertex   -1.995441e+02 6.998076e+01 -5.450000e+00
      vertex   -1.989755e+02 6.893368e+01 -1.697000e+01
      vertex   -1.995441e+02 6.998076e+01 -1.697000e+01
    endloop
  endfacet
  facet normal 8.137336e-01 5.812380e-01 0.000000e+00
    outer loop
      vertex   -1.995441e+02 6.998076e+01 -5.450000e+00
      vertex   -1.995441e+02 6.998076e+01 -1.697000e+01
      vertex   -2.004350e+02 7.122810e+01 -5.450000e+00
    endloop
  endfacet
  facet normal 8.137336e-01 5.812380e-01 0.000000e+00
    outer loop
      vertex   -2.004350e+02 7.122810e+01 -5.450000e+00
      vertex   -1.995441e+02 6.998076e+01 -1.697000e+01
      vertex   -2.004350e+02 7.122810e+01 -1.697000e+01
    endloop
  endfacet
  facet normal -8.904281e-01 -4.551239e-01 -0.000000e+00
    outer loop
      vertex   -2.091715e+02 6.419210e+01 -5.450000e+00
      vertex   -2.091715e+02 6.419210e+01 -1.697000e+01
      vertex   -2.090934e+02 6.403936e+01 -5.450000e+00
    endloop
  endfacet
  facet normal -8.904281e-01 -4.551239e-01 0.000000e+00
    outer loop
      vertex   -2.090934e+02 6.403936e+01 -5.450000e+00
      vertex   -2.091715e+02 6.419210e+01 -1.697000e+01
      vertex   -2.090934e+02 6.403936e+01 -1.697000e+01
    endloop
  endfacet
  facet normal -8.476712e-01 -5.305219e-01 -0.000000e+00
    outer loop
      vertex   -2.090934e+02 6.403936e+01 -5.450000e+00
      vertex   -2.090934e+02 6.403936e+01 -1.697000e+01
      vertex   -2.083212e+02 6.280560e+01 -5.450000e+00
    endloop
  endfacet
  facet normal -8.476712e-01 -5.305219e-01 0.000000e+00
    outer loop
      vertex   -2.083212e+02 6.280560e+01 -5.450000e+00
      vertex   -2.090934e+02 6.403936e+01 -1.697000e+01
      vertex   -2.083212e+02 6.280560e+01 -1.697000e+01
    endloop
  endfacet
  facet normal -9.689579e-01 -2.472258e-01 -0.000000e+00
    outer loop
      vertex   -2.095669e+02 6.549374e+01 -5.450000e+00
      vertex   -2.095669e+02 6.549374e+01 -1.697000e+01
      vertex   -2.093564e+02 6.466897e+01 -5.450000e+00
    endloop
  endfacet
  facet normal -9.689579e-01 -2.472258e-01 0.000000e+00
    outer loop
      vertex   -2.093564e+02 6.466897e+01 -5.450000e+00
      vertex   -2.095669e+02 6.549374e+01 -1.697000e+01
      vertex   -2.093564e+02 6.466897e+01 -1.697000e+01
    endloop
  endfacet
  facet normal -9.323171e-01 -3.616418e-01 -0.000000e+00
    outer loop
      vertex   -2.093564e+02 6.466897e+01 -5.450000e+00
      vertex   -2.093564e+02 6.466897e+01 -1.697000e+01
      vertex   -2.091715e+02 6.419210e+01 -5.450000e+00
    endloop
  endfacet
  facet normal -9.323171e-01 -3.616418e-01 0.000000e+00
    outer loop
      vertex   -2.091715e+02 6.419210e+01 -5.450000e+00
      vertex   -2.093564e+02 6.466897e+01 -1.697000e+01
      vertex   -2.091715e+02 6.419210e+01 -1.697000e+01
    endloop
  endfacet
  facet normal -9.999700e-01 -7.752329e-03 -0.000000e+00
    outer loop
      vertex   -2.097332e+02 6.820564e+01 -5.450000e+00
      vertex   -2.097332e+02 6.820564e+01 -1.697000e+01
      vertex   -2.097213e+02 6.667320e+01 -5.450000e+00
    endloop
  endfacet
  facet normal -9.999700e-01 -7.752329e-03 0.000000e+00
    outer loop
      vertex   -2.097213e+02 6.667320e+01 -5.450000e+00
      vertex   -2.097332e+02 6.820564e+01 -1.697000e+01
      vertex   -2.097213e+02 6.667320e+01 -1.697000e+01
    endloop
  endfacet
  facet normal -9.915368e-01 -1.298261e-01 -0.000000e+00
    outer loop
      vertex   -2.097213e+02 6.667320e+01 -5.450000e+00
      vertex   -2.097213e+02 6.667320e+01 -1.697000e+01
      vertex   -2.095669e+02 6.549374e+01 -5.450000e+00
    endloop
  endfacet
  facet normal -9.915368e-01 -1.298261e-01 0.000000e+00
    outer loop
      vertex   -2.095669e+02 6.549374e+01 -5.450000e+00
      vertex   -2.097213e+02 6.667320e+01 -1.697000e+01
      vertex   -2.095669e+02 6.549374e+01 -1.697000e+01
    endloop
  endfacet
  facet normal -1.692217e-01 9.855780e-01 0.000000e+00
    outer loop
      vertex   -2.200173e+02 4.290253e+01 -1.697000e+01
      vertex   -2.200173e+02 4.290253e+01 -5.450000e+00
      vertex   -2.198493e+02 4.293138e+01 -1.697000e+01
    endloop
  endfacet
  facet normal -1.692217e-01 9.855780e-01 0.000000e+00
    outer loop
      vertex   -2.198493e+02 4.293138e+01 -1.697000e+01
      vertex   -2.200173e+02 4.290253e+01 -5.450000e+00
      vertex   -2.198493e+02 4.293138e+01 -5.450000e+00
    endloop
  endfacet
  facet normal -2.495819e-01 9.683537e-01 0.000000e+00
    outer loop
      vertex   -2.205112e+02 4.277525e+01 -1.697000e+01
      vertex   -2.205112e+02 4.277525e+01 -5.450000e+00
      vertex   -2.200173e+02 4.290253e+01 -1.697000e+01
    endloop
  endfacet
  facet normal -2.495819e-01 9.683537e-01 0.000000e+00
    outer loop
      vertex   -2.200173e+02 4.290253e+01 -1.697000e+01
      vertex   -2.205112e+02 4.277525e+01 -5.450000e+00
      vertex   -2.200173e+02 4.290253e+01 -5.450000e+00
    endloop
  endfacet
  facet normal -4.771536e-01 8.788199e-01 0.000000e+00
    outer loop
      vertex   -2.213020e+02 4.245960e+01 -5.450000e+00
      vertex   -2.213020e+02 4.245960e+01 -1.697000e+01
      vertex   -2.223491e+02 4.189108e+01 -5.450000e+00
    endloop
  endfacet
  facet normal -4.771536e-01 8.788199e-01 0.000000e+00
    outer loop
      vertex   -2.223491e+02 4.189108e+01 -5.450000e+00
      vertex   -2.213020e+02 4.245960e+01 -1.697000e+01
      vertex   -2.223491e+02 4.189108e+01 -1.697000e+01
    endloop
  endfacet
  facet normal -7.018466e-02 9.975340e-01 0.000000e+00
    outer loop
      vertex   -2.183780e+02 4.303490e+01 -5.450000e+00
      vertex   -2.183780e+02 4.303490e+01 -1.697000e+01
      vertex   -2.198493e+02 4.293138e+01 -5.450000e+00
    endloop
  endfacet
  facet normal -7.018466e-02 9.975340e-01 0.000000e+00
    outer loop
      vertex   -2.198493e+02 4.293138e+01 -5.450000e+00
      vertex   -2.183780e+02 4.303490e+01 -1.697000e+01
      vertex   -2.198493e+02 4.293138e+01 -1.697000e+01
    endloop
  endfacet
  facet normal -5.812372e-01 8.137342e-01 0.000000e+00
    outer loop
      vertex   -2.223491e+02 4.189108e+01 -5.450000e+00
      vertex   -2.223491e+02 4.189108e+01 -1.697000e+01
      vertex   -2.235964e+02 4.100013e+01 -5.450000e+00
    endloop
  endfacet
  facet normal -5.812372e-01 8.137342e-01 0.000000e+00
    outer loop
      vertex   -2.235964e+02 4.100013e+01 -5.450000e+00
      vertex   -2.223491e+02 4.189108e+01 -1.697000e+01
      vertex   -2.235964e+02 4.100013e+01 -1.697000e+01
    endloop
  endfacet
  facet normal -3.707040e-01 9.287511e-01 0.000000e+00
    outer loop
      vertex   -2.213020e+02 4.245960e+01 -1.697000e+01
      vertex   -2.213020e+02 4.245960e+01 -5.450000e+00
      vertex   -2.205112e+02 4.277525e+01 -1.697000e+01
    endloop
  endfacet
  facet normal -3.707040e-01 9.287511e-01 0.000000e+00
    outer loop
      vertex   -2.205112e+02 4.277525e+01 -1.697000e+01
      vertex   -2.213020e+02 4.245960e+01 -5.450000e+00
      vertex   -2.205112e+02 4.277525e+01 -5.450000e+00
    endloop
  endfacet
  facet normal -9.876024e-01 1.569761e-01 0.000000e+00
    outer loop
      vertex   -2.235964e+02 4.806667e+01 -1.697000e+01
      vertex   -2.235964e+02 4.806667e+01 -5.450000e+00
      vertex   -2.233809e+02 4.942262e+01 -1.697000e+01
    endloop
  endfacet
  facet normal -9.876024e-01 1.569761e-01 0.000000e+00
    outer loop
      vertex   -2.233809e+02 4.942262e+01 -1.697000e+01
      vertex   -2.235964e+02 4.806667e+01 -5.450000e+00
      vertex   -2.233809e+02 4.942262e+01 -5.450000e+00
    endloop
  endfacet
  facet normal -8.125087e-01 5.829491e-01 0.000000e+00
    outer loop
      vertex   -2.134073e+02 5.838138e+01 -5.450000e+00
      vertex   -2.134073e+02 5.838138e+01 -1.697000e+01
      vertex   -2.151570e+02 5.594271e+01 -5.450000e+00
    endloop
  endfacet
  facet normal -8.125087e-01 5.829491e-01 0.000000e+00
    outer loop
      vertex   -2.151570e+02 5.594271e+01 -5.450000e+00
      vertex   -2.134073e+02 5.838138e+01 -1.697000e+01
      vertex   -2.151570e+02 5.594271e+01 -1.697000e+01
    endloop
  endfacet
  facet normal -6.787035e-03 9.999770e-01 0.000000e+00
    outer loop
      vertex   -1.984002e+02 6.600965e+01 -1.697000e+01
      vertex   -1.984002e+02 6.600965e+01 -5.450000e+00
      vertex   -1.953998e+02 6.603001e+01 -1.697000e+01
    endloop
  endfacet
  facet normal -6.787035e-03 9.999770e-01 0.000000e+00
    outer loop
      vertex   -1.953998e+02 6.603001e+01 -1.697000e+01
      vertex   -1.984002e+02 6.600965e+01 -5.450000e+00
      vertex   -1.953998e+02 6.603001e+01 -5.450000e+00
    endloop
  endfacet
  facet normal -4.551102e-01 8.904351e-01 0.000000e+00
    outer loop
      vertex   -2.085113e+02 6.883015e+01 -5.450000e+00
      vertex   -2.085113e+02 6.883015e+01 -1.697000e+01
      vertex   -2.097332e+02 6.820564e+01 -5.450000e+00
    endloop
  endfacet
  facet normal -4.551102e-01 8.904351e-01 0.000000e+00
    outer loop
      vertex   -2.097332e+02 6.820564e+01 -5.450000e+00
      vertex   -2.085113e+02 6.883015e+01 -1.697000e+01
      vertex   -2.097332e+02 6.820564e+01 -1.697000e+01
    endloop
  endfacet
  facet normal -9.287507e-01 3.707048e-01 0.000000e+00
    outer loop
      vertex   -1.948279e+02 6.893367e+01 -5.450000e+00
      vertex   -1.948279e+02 6.893367e+01 -1.697000e+01
      vertex   -1.951436e+02 6.814285e+01 -5.450000e+00
    endloop
  endfacet
  facet normal -9.287507e-01 3.707048e-01 0.000000e+00
    outer loop
      vertex   -1.951436e+02 6.814285e+01 -5.450000e+00
      vertex   -1.948279e+02 6.893367e+01 -1.697000e+01
      vertex   -1.951436e+02 6.814285e+01 -1.697000e+01
    endloop
  endfacet
  facet normal -9.976276e-01 6.884157e-02 0.000000e+00
    outer loop
      vertex   -1.952997e+02 6.748099e+01 -5.450000e+00
      vertex   -1.952997e+02 6.748099e+01 -1.697000e+01
      vertex   -1.953998e+02 6.603001e+01 -5.450000e+00
    endloop
  endfacet
  facet normal -9.976276e-01 6.884157e-02 0.000000e+00
    outer loop
      vertex   -1.953998e+02 6.603001e+01 -5.450000e+00
      vertex   -1.952997e+02 6.748099e+01 -1.697000e+01
      vertex   -1.953998e+02 6.603001e+01 -1.697000e+01
    endloop
  endfacet
  facet normal -8.788200e-01 4.771535e-01 0.000000e+00
    outer loop
      vertex   -1.948279e+02 6.893367e+01 -1.697000e+01
      vertex   -1.948279e+02 6.893367e+01 -5.450000e+00
      vertex   -1.942594e+02 6.998076e+01 -1.697000e+01
    endloop
  endfacet
  facet normal -8.788200e-01 4.771535e-01 0.000000e+00
    outer loop
      vertex   -1.942594e+02 6.998076e+01 -1.697000e+01
      vertex   -1.948279e+02 6.893367e+01 -5.450000e+00
      vertex   -1.942594e+02 6.998076e+01 -5.450000e+00
    endloop
  endfacet
  facet normal -8.137341e-01 5.812373e-01 0.000000e+00
    outer loop
      vertex   -1.942594e+02 6.998076e+01 -1.697000e+01
      vertex   -1.942594e+02 6.998076e+01 -5.450000e+00
      vertex   -1.933685e+02 7.122810e+01 -1.697000e+01
    endloop
  endfacet
  facet normal -8.137341e-01 5.812373e-01 0.000000e+00
    outer loop
      vertex   -1.933685e+02 7.122810e+01 -1.697000e+01
      vertex   -1.942594e+02 6.998076e+01 -5.450000e+00
      vertex   -1.933685e+02 7.122810e+01 -5.450000e+00
    endloop
  endfacet
  facet normal -9.028076e-01 -4.300447e-01 -0.000000e+00
    outer loop
      vertex   -2.159359e+02 6.162955e+01 -5.450000e+00
      vertex   -2.159359e+02 6.162955e+01 -1.697000e+01
      vertex   -2.154234e+02 6.055361e+01 -5.450000e+00
    endloop
  endfacet
  facet normal -9.028076e-01 -4.300447e-01 0.000000e+00
    outer loop
      vertex   -2.154234e+02 6.055361e+01 -5.450000e+00
      vertex   -2.159359e+02 6.162955e+01 -1.697000e+01
      vertex   -2.154234e+02 6.055361e+01 -1.697000e+01
    endloop
  endfacet
  facet normal -7.733653e-01 -6.339606e-01 -0.000000e+00
    outer loop
      vertex   -2.149686e+02 5.983406e+01 -5.450000e+00
      vertex   -2.149686e+02 5.983406e+01 -1.697000e+01
      vertex   -2.146445e+02 5.943865e+01 -5.450000e+00
    endloop
  endfacet
  facet normal -7.733653e-01 -6.339606e-01 0.000000e+00
    outer loop
      vertex   -2.146445e+02 5.943865e+01 -5.450000e+00
      vertex   -2.149686e+02 5.983406e+01 -1.697000e+01
      vertex   -2.146445e+02 5.943865e+01 -1.697000e+01
    endloop
  endfacet
  facet normal -9.484617e-01 -3.168918e-01 -0.000000e+00
    outer loop
      vertex   -2.164213e+02 6.308222e+01 -5.450000e+00
      vertex   -2.164213e+02 6.308222e+01 -1.697000e+01
      vertex   -2.159359e+02 6.162955e+01 -5.450000e+00
    endloop
  endfacet
  facet normal -9.484617e-01 -3.168918e-01 0.000000e+00
    outer loop
      vertex   -2.159359e+02 6.162955e+01 -5.450000e+00
      vertex   -2.164213e+02 6.308222e+01 -1.697000e+01
      vertex   -2.159359e+02 6.162955e+01 -1.697000e+01
    endloop
  endfacet
  facet normal -8.452999e-01 -5.342921e-01 -0.000000e+00
    outer loop
      vertex   -2.154234e+02 6.055361e+01 -5.450000e+00
      vertex   -2.154234e+02 6.055361e+01 -1.697000e+01
      vertex   -2.149686e+02 5.983406e+01 -5.450000e+00
    endloop
  endfacet
  facet normal -8.452999e-01 -5.342921e-01 0.000000e+00
    outer loop
      vertex   -2.149686e+02 5.983406e+01 -5.450000e+00
      vertex   -2.154234e+02 6.055361e+01 -1.697000e+01
      vertex   -2.149686e+02 5.983406e+01 -1.697000e+01
    endloop
  endfacet
  facet normal -7.071068e-01 -7.071068e-01 0.000000e+00
    outer loop
      vertex   -2.145240e+02 5.931816e+01 -1.697000e+01
      vertex   -2.145240e+02 5.931816e+01 -5.450000e+00
      vertex   -2.146445e+02 5.943865e+01 -1.697000e+01
    endloop
  endfacet
  facet normal -7.071068e-01 -7.071068e-01 0.000000e+00
    outer loop
      vertex   -2.146445e+02 5.943865e+01 -1.697000e+01
      vertex   -2.145240e+02 5.931816e+01 -5.450000e+00
      vertex   -2.146445e+02 5.943865e+01 -5.450000e+00
    endloop
  endfacet
  facet normal -6.427000e-01 -7.661179e-01 0.000000e+00
    outer loop
      vertex   -2.134073e+02 5.838138e+01 -1.697000e+01
      vertex   -2.134073e+02 5.838138e+01 -5.450000e+00
      vertex   -2.145240e+02 5.931816e+01 -1.697000e+01
    endloop
  endfacet
  facet normal -6.427000e-01 -7.661179e-01 0.000000e+00
    outer loop
      vertex   -2.145240e+02 5.931816e+01 -1.697000e+01
      vertex   -2.134073e+02 5.838138e+01 -5.450000e+00
      vertex   -2.145240e+02 5.931816e+01 -5.450000e+00
    endloop
  endfacet
  facet normal 7.665204e-01 6.422200e-01 0.000000e+00
    outer loop
      vertex   -2.107395e+02 6.102539e+01 -5.450000e+00
      vertex   -2.107395e+02 6.102539e+01 -1.697000e+01
      vertex   -2.116865e+02 6.215564e+01 -5.450000e+00
    endloop
  endfacet
  facet normal 7.665204e-01 6.422200e-01 0.000000e+00
    outer loop
      vertex   -2.116865e+02 6.215564e+01 -5.450000e+00
      vertex   -2.107395e+02 6.102539e+01 -1.697000e+01
      vertex   -2.116865e+02 6.215564e+01 -1.697000e+01
    endloop
  endfacet
  facet normal 3.168910e-01 9.484620e-01 0.000000e+00
    outer loop
      vertex   -2.139979e+02 6.356759e+01 -5.450000e+00
      vertex   -2.139979e+02 6.356759e+01 -1.697000e+01
      vertex   -2.154506e+02 6.405294e+01 -5.450000e+00
    endloop
  endfacet
  facet normal 3.168910e-01 9.484620e-01 0.000000e+00
    outer loop
      vertex   -2.154506e+02 6.405294e+01 -5.450000e+00
      vertex   -2.139979e+02 6.356759e+01 -1.697000e+01
      vertex   -2.154506e+02 6.405294e+01 -1.697000e+01
    endloop
  endfacet
  facet normal 7.071068e-01 7.071068e-01 -0.000000e+00
    outer loop
      vertex   -2.118070e+02 6.227612e+01 -1.697000e+01
      vertex   -2.118070e+02 6.227612e+01 -5.450000e+00
      vertex   -2.116865e+02 6.215564e+01 -1.697000e+01
    endloop
  endfacet
  facet normal 7.071068e-01 7.071068e-01 0.000000e+00
    outer loop
      vertex   -2.116865e+02 6.215564e+01 -1.697000e+01
      vertex   -2.118070e+02 6.227612e+01 -5.450000e+00
      vertex   -2.116865e+02 6.215564e+01 -5.450000e+00
    endloop
  endfacet
  facet normal 6.339606e-01 7.733653e-01 0.000000e+00
    outer loop
      vertex   -2.118070e+02 6.227612e+01 -5.450000e+00
      vertex   -2.118070e+02 6.227612e+01 -1.697000e+01
      vertex   -2.122024e+02 6.260026e+01 -5.450000e+00
    endloop
  endfacet
  facet normal 6.339606e-01 7.733653e-01 0.000000e+00
    outer loop
      vertex   -2.122024e+02 6.260026e+01 -5.450000e+00
      vertex   -2.118070e+02 6.227612e+01 -1.697000e+01
      vertex   -2.122024e+02 6.260026e+01 -1.697000e+01
    endloop
  endfacet
  facet normal 5.342921e-01 8.452999e-01 -0.000000e+00
    outer loop
      vertex   -2.129219e+02 6.305507e+01 -1.697000e+01
      vertex   -2.129219e+02 6.305507e+01 -5.450000e+00
      vertex   -2.122024e+02 6.260026e+01 -1.697000e+01
    endloop
  endfacet
  facet normal 5.342921e-01 8.452999e-01 0.000000e+00
    outer loop
      vertex   -2.122024e+02 6.260026e+01 -1.697000e+01
      vertex   -2.129219e+02 6.305507e+01 -5.450000e+00
      vertex   -2.122024e+02 6.260026e+01 -5.450000e+00
    endloop
  endfacet
  facet normal 4.300458e-01 9.028071e-01 -0.000000e+00
    outer loop
      vertex   -2.139979e+02 6.356759e+01 -1.697000e+01
      vertex   -2.139979e+02 6.356759e+01 -5.450000e+00
      vertex   -2.129219e+02 6.305507e+01 -1.697000e+01
    endloop
  endfacet
  facet normal 4.300458e-01 9.028071e-01 0.000000e+00
    outer loop
      vertex   -2.129219e+02 6.305507e+01 -1.697000e+01
      vertex   -2.139979e+02 6.356759e+01 -5.450000e+00
      vertex   -2.129219e+02 6.305507e+01 -5.450000e+00
    endloop
  endfacet
  facet normal -9.876022e-01 -1.569773e-01 -0.000000e+00
    outer loop
      vertex   -2.235964e+02 4.100013e+01 -5.450000e+00
      vertex   -2.235964e+02 4.100013e+01 -1.697000e+01
      vertex   -2.233809e+02 3.964418e+01 -5.450000e+00
    endloop
  endfacet
  facet normal -9.876022e-01 -1.569773e-01 0.000000e+00
    outer loop
      vertex   -2.233809e+02 3.964418e+01 -5.450000e+00
      vertex   -2.235964e+02 4.100013e+01 -1.697000e+01
      vertex   -2.233809e+02 3.964418e+01 -1.697000e+01
    endloop
  endfacet
  facet normal 5.939545e-01 8.044986e-01 -0.000000e+00
    outer loop
      vertex   -2.085113e+02 6.883015e+01 -1.697000e+01
      vertex   -2.085113e+02 6.883015e+01 -5.450000e+00
      vertex   -2.072792e+02 6.792054e+01 -1.697000e+01
    endloop
  endfacet
  facet normal 5.939545e-01 8.044986e-01 0.000000e+00
    outer loop
      vertex   -2.072792e+02 6.792054e+01 -1.697000e+01
      vertex   -2.085113e+02 6.883015e+01 -5.450000e+00
      vertex   -2.072792e+02 6.792054e+01 -5.450000e+00
    endloop
  endfacet
  facet normal 7.698532e-01 6.382210e-01 0.000000e+00
    outer loop
      vertex   -2.058707e+02 6.644410e+01 -5.450000e+00
      vertex   -2.058707e+02 6.644410e+01 -1.697000e+01
      vertex   -2.064137e+02 6.709916e+01 -5.450000e+00
    endloop
  endfacet
  facet normal 7.698532e-01 6.382210e-01 0.000000e+00
    outer loop
      vertex   -2.064137e+02 6.709916e+01 -5.450000e+00
      vertex   -2.058707e+02 6.644410e+01 -1.697000e+01
      vertex   -2.064137e+02 6.709916e+01 -1.697000e+01
    endloop
  endfacet
  facet normal 6.883755e-01 7.253545e-01 -0.000000e+00
    outer loop
      vertex   -2.072792e+02 6.792054e+01 -1.697000e+01
      vertex   -2.072792e+02 6.792054e+01 -5.450000e+00
      vertex   -2.064137e+02 6.709916e+01 -1.697000e+01
    endloop
  endfacet
  facet normal 6.883755e-01 7.253545e-01 0.000000e+00
    outer loop
      vertex   -2.064137e+02 6.709916e+01 -1.697000e+01
      vertex   -2.072792e+02 6.792054e+01 -5.450000e+00
      vertex   -2.064137e+02 6.709916e+01 -5.450000e+00
    endloop
  endfacet
  facet normal 9.272803e-01 3.743677e-01 0.000000e+00
    outer loop
      vertex   -2.049644e+02 6.449587e+01 -5.450000e+00
      vertex   -2.049644e+02 6.449587e+01 -1.697000e+01
      vertex   -2.055160e+02 6.586200e+01 -5.450000e+00
    endloop
  endfacet
  facet normal 9.272803e-01 3.743677e-01 0.000000e+00
    outer loop
      vertex   -2.055160e+02 6.586200e+01 -5.450000e+00
      vertex   -2.049644e+02 6.449587e+01 -1.697000e+01
      vertex   -2.055160e+02 6.586200e+01 -1.697000e+01
    endloop
  endfacet
  facet normal 8.904364e-01 4.551077e-01 0.000000e+00
    outer loop
      vertex   -2.055160e+02 6.586200e+01 -5.450000e+00
      vertex   -2.055160e+02 6.586200e+01 -1.697000e+01
      vertex   -2.055941e+02 6.601474e+01 -5.450000e+00
    endloop
  endfacet
  facet normal 8.904364e-01 4.551077e-01 0.000000e+00
    outer loop
      vertex   -2.055941e+02 6.601474e+01 -5.450000e+00
      vertex   -2.055160e+02 6.586200e+01 -1.697000e+01
      vertex   -2.055941e+02 6.601474e+01 -1.697000e+01
    endloop
  endfacet
  facet normal 8.406384e-01 5.415967e-01 0.000000e+00
    outer loop
      vertex   -2.055941e+02 6.601474e+01 -5.450000e+00
      vertex   -2.055941e+02 6.601474e+01 -1.697000e+01
      vertex   -2.058707e+02 6.644410e+01 -5.450000e+00
    endloop
  endfacet
  facet normal 8.406384e-01 5.415967e-01 0.000000e+00
    outer loop
      vertex   -2.058707e+02 6.644410e+01 -5.450000e+00
      vertex   -2.055941e+02 6.601474e+01 -1.697000e+01
      vertex   -2.058707e+02 6.644410e+01 -1.697000e+01
    endloop
  endfacet
  facet normal -9.527845e-01 3.036474e-01 0.000000e+00
    outer loop
      vertex   -2.168812e+02 5.260290e+01 -5.450000e+00
      vertex   -2.168812e+02 5.260290e+01 -1.697000e+01
      vertex   -2.177925e+02 4.974336e+01 -5.450000e+00
    endloop
  endfacet
  facet normal -9.527845e-01 3.036474e-01 0.000000e+00
    outer loop
      vertex   -2.177925e+02 4.974336e+01 -5.450000e+00
      vertex   -2.168812e+02 5.260290e+01 -1.697000e+01
      vertex   -2.177925e+02 4.974336e+01 -1.697000e+01
    endloop
  endfacet
  facet normal 1.569788e-01 9.876020e-01 0.000000e+00
    outer loop
      vertex   -1.920125e+02 7.101257e+01 -5.450000e+00
      vertex   -1.920125e+02 7.101257e+01 -1.697000e+01
      vertex   -1.933685e+02 7.122810e+01 -5.450000e+00
    endloop
  endfacet
  facet normal 1.569788e-01 9.876020e-01 0.000000e+00
    outer loop
      vertex   -1.933685e+02 7.122810e+01 -5.450000e+00
      vertex   -1.920125e+02 7.101257e+01 -1.697000e+01
      vertex   -1.933685e+02 7.122810e+01 -1.697000e+01
    endloop
  endfacet
  facet normal -7.071068e-01 7.071068e-01 0.000000e+00
    outer loop
      vertex   -2.154506e+02 6.405294e+01 -5.450000e+00
      vertex   -2.154506e+02 6.405294e+01 -1.697000e+01
      vertex   -2.164213e+02 6.308222e+01 -5.450000e+00
    endloop
  endfacet
  facet normal -7.071068e-01 7.071068e-01 0.000000e+00
    outer loop
      vertex   -2.164213e+02 6.308222e+01 -5.450000e+00
      vertex   -2.154506e+02 6.405294e+01 -1.697000e+01
      vertex   -2.164213e+02 6.308222e+01 -1.697000e+01
    endloop
  endfacet
  facet normal -3.744050e-01 -9.272653e-01 0.000000e+00
    outer loop
      vertex   -2.168812e+02 5.260290e+01 -1.697000e+01
      vertex   -2.168812e+02 5.260290e+01 -5.450000e+00
      vertex   -2.182303e+02 5.314766e+01 -1.697000e+01
    endloop
  endfacet
  facet normal -3.744050e-01 -9.272653e-01 0.000000e+00
    outer loop
      vertex   -2.182303e+02 5.314766e+01 -1.697000e+01
      vertex   -2.168812e+02 5.260290e+01 -5.450000e+00
      vertex   -2.182303e+02 5.314766e+01 -5.450000e+00
    endloop
  endfacet
  facet normal -7.253541e-01 -6.883759e-01 -0.000000e+00
    outer loop
      vertex   -2.202889e+02 5.491090e+01 -5.450000e+00
      vertex   -2.202889e+02 5.491090e+01 -1.697000e+01
      vertex   -2.194675e+02 5.404540e+01 -5.450000e+00
    endloop
  endfacet
  facet normal -7.253541e-01 -6.883759e-01 0.000000e+00
    outer loop
      vertex   -2.194675e+02 5.404540e+01 -5.450000e+00
      vertex   -2.202889e+02 5.491090e+01 -1.697000e+01
      vertex   -2.194675e+02 5.404540e+01 -1.697000e+01
    endloop
  endfacet
  facet normal -6.382216e-01 -7.698527e-01 0.000000e+00
    outer loop
      vertex   -2.188124e+02 5.350234e+01 -1.697000e+01
      vertex   -2.188124e+02 5.350234e+01 -5.450000e+00
      vertex   -2.194675e+02 5.404540e+01 -1.697000e+01
    endloop
  endfacet
  facet normal -6.382216e-01 -7.698527e-01 0.000000e+00
    outer loop
      vertex   -2.194675e+02 5.404540e+01 -1.697000e+01
      vertex   -2.188124e+02 5.350234e+01 -5.450000e+00
      vertex   -2.194675e+02 5.404540e+01 -5.450000e+00
    endloop
  endfacet
  facet normal -5.415967e-01 -8.406384e-01 0.000000e+00
    outer loop
      vertex   -2.183831e+02 5.322572e+01 -1.697000e+01
      vertex   -2.183831e+02 5.322572e+01 -5.450000e+00
      vertex   -2.188124e+02 5.350234e+01 -1.697000e+01
    endloop
  endfacet
  facet normal -5.415967e-01 -8.406384e-01 0.000000e+00
    outer loop
      vertex   -2.188124e+02 5.350234e+01 -1.697000e+01
      vertex   -2.183831e+02 5.322572e+01 -5.450000e+00
      vertex   -2.188124e+02 5.350234e+01 -5.450000e+00
    endloop
  endfacet
  facet normal -8.044989e-01 -5.939542e-01 -0.000000e+00
    outer loop
      vertex   -2.211985e+02 5.614296e+01 -5.450000e+00
      vertex   -2.211985e+02 5.614296e+01 -1.697000e+01
      vertex   -2.202889e+02 5.491090e+01 -5.450000e+00
    endloop
  endfacet
  facet normal -8.044989e-01 -5.939542e-01 0.000000e+00
    outer loop
      vertex   -2.202889e+02 5.491090e+01 -5.450000e+00
      vertex   -2.211985e+02 5.614296e+01 -1.697000e+01
      vertex   -2.202889e+02 5.491090e+01 -1.697000e+01
    endloop
  endfacet
  facet normal -4.551077e-01 -8.904364e-01 0.000000e+00
    outer loop
      vertex   -2.182303e+02 5.314766e+01 -1.697000e+01
      vertex   -2.182303e+02 5.314766e+01 -5.450000e+00
      vertex   -2.183831e+02 5.322572e+01 -1.697000e+01
    endloop
  endfacet
  facet normal -4.551077e-01 -8.904364e-01 0.000000e+00
    outer loop
      vertex   -2.183831e+02 5.322572e+01 -1.697000e+01
      vertex   -2.182303e+02 5.314766e+01 -5.450000e+00
      vertex   -2.183831e+02 5.322572e+01 -5.450000e+00
    endloop
  endfacet
  facet normal -9.999770e-01 -6.787630e-03 -0.000000e+00
    outer loop
      vertex   -2.183983e+02 4.603529e+01 -5.450000e+00
      vertex   -2.183983e+02 4.603529e+01 -1.697000e+01
      vertex   -2.183780e+02 4.303490e+01 -5.450000e+00
    endloop
  endfacet
  facet normal -9.999770e-01 -6.787630e-03 0.000000e+00
    outer loop
      vertex   -2.183780e+02 4.303490e+01 -5.450000e+00
      vertex   -2.183983e+02 4.603529e+01 -1.697000e+01
      vertex   -2.183780e+02 4.303490e+01 -1.697000e+01
    endloop
  endfacet
  facet normal -3.145293e-01 9.492478e-01 0.000000e+00
    outer loop
      vertex   -2.021168e+02 6.543944e+01 -5.450000e+00
      vertex   -2.021168e+02 6.543944e+01 -1.697000e+01
      vertex   -2.049644e+02 6.449587e+01 -5.450000e+00
    endloop
  endfacet
  facet normal -3.145293e-01 9.492478e-01 0.000000e+00
    outer loop
      vertex   -2.049644e+02 6.449587e+01 -5.450000e+00
      vertex   -2.021168e+02 6.543944e+01 -1.697000e+01
      vertex   -2.049644e+02 6.449587e+01 -1.697000e+01
    endloop
  endfacet
  facet normal 9.534485e-01 3.015558e-01 -3.347941e-15
    outer loop
      vertex   -1.917700e+02 7.024567e+01 -5.450000e+00
      vertex   -1.917700e+02 7.024567e+01 -1.697000e+01
      vertex   -1.920125e+02 7.101257e+01 -5.450000e+00
    endloop
  endfacet
  facet normal 9.534485e-01 3.015558e-01 0.000000e+00
    outer loop
      vertex   -1.920125e+02 7.101257e+01 -5.450000e+00
      vertex   -1.917700e+02 7.024567e+01 -1.697000e+01
      vertex   -1.920125e+02 7.101257e+01 -1.697000e+01
    endloop
  endfacet
  facet normal -9.534490e-01 3.015544e-01 0.000000e+00
    outer loop
      vertex   -2.022526e+02 6.955310e+01 -1.697000e+01
      vertex   -2.022526e+02 6.955310e+01 -5.450000e+00
      vertex   -2.017910e+02 7.101257e+01 -1.697000e+01
    endloop
  endfacet
  facet normal -9.534490e-01 3.015544e-01 0.000000e+00
    outer loop
      vertex   -2.017910e+02 7.101257e+01 -1.697000e+01
      vertex   -2.022526e+02 6.955310e+01 -5.450000e+00
      vertex   -2.017910e+02 7.101257e+01 -5.450000e+00
    endloop
  endfacet
  facet normal -9.832253e-01 1.823951e-01 0.000000e+00
    outer loop
      vertex   -2.022526e+02 6.955310e+01 -5.450000e+00
      vertex   -2.022526e+02 6.955310e+01 -1.697000e+01
      vertex   -2.024698e+02 6.838213e+01 -5.450000e+00
    endloop
  endfacet
  facet normal -9.832253e-01 1.823951e-01 0.000000e+00
    outer loop
      vertex   -2.024698e+02 6.838213e+01 -5.450000e+00
      vertex   -2.022526e+02 6.955310e+01 -1.697000e+01
      vertex   -2.024698e+02 6.838213e+01 -1.697000e+01
    endloop
  endfacet
  facet normal -9.979744e-01 6.361672e-02 0.000000e+00
    outer loop
      vertex   -2.024698e+02 6.838213e+01 -5.450000e+00
      vertex   -2.024698e+02 6.838213e+01 -1.697000e+01
      vertex   -2.025241e+02 6.753021e+01 -5.450000e+00
    endloop
  endfacet
  facet normal -9.979744e-01 6.361672e-02 0.000000e+00
    outer loop
      vertex   -2.025241e+02 6.753021e+01 -5.450000e+00
      vertex   -2.024698e+02 6.838213e+01 -1.697000e+01
      vertex   -2.025241e+02 6.753021e+01 -1.697000e+01
    endloop
  endfacet
  facet normal -9.982046e-01 -5.989701e-02 -0.000000e+00
    outer loop
      vertex   -2.025241e+02 6.753021e+01 -5.450000e+00
      vertex   -2.025241e+02 6.753021e+01 -1.697000e+01
      vertex   -2.024935e+02 6.702109e+01 -5.450000e+00
    endloop
  endfacet
  facet normal -9.982046e-01 -5.989701e-02 0.000000e+00
    outer loop
      vertex   -2.024935e+02 6.702109e+01 -5.450000e+00
      vertex   -2.025241e+02 6.753021e+01 -1.697000e+01
      vertex   -2.024935e+02 6.702109e+01 -1.697000e+01
    endloop
  endfacet
  facet normal -9.704841e-01 -2.411650e-01 -0.000000e+00
    outer loop
      vertex   -2.024681e+02 6.685308e+01 -5.450000e+00
      vertex   -2.024681e+02 6.685308e+01 -1.697000e+01
      vertex   -2.021168e+02 6.543944e+01 -5.450000e+00
    endloop
  endfacet
  facet normal -9.704841e-01 -2.411650e-01 0.000000e+00
    outer loop
      vertex   -2.021168e+02 6.543944e+01 -5.450000e+00
      vertex   -2.024681e+02 6.685308e+01 -1.697000e+01
      vertex   -2.021168e+02 6.543944e+01 -1.697000e+01
    endloop
  endfacet
  facet normal -1.569769e-01 9.876023e-01 0.000000e+00
    outer loop
      vertex   -2.004350e+02 7.122810e+01 -5.450000e+00
      vertex   -2.004350e+02 7.122810e+01 -1.697000e+01
      vertex   -2.017910e+02 7.101257e+01 -5.450000e+00
    endloop
  endfacet
  facet normal -1.569769e-01 9.876023e-01 0.000000e+00
    outer loop
      vertex   -2.017910e+02 7.101257e+01 -5.450000e+00
      vertex   -2.004350e+02 7.122810e+01 -1.697000e+01
      vertex   -2.017910e+02 7.101257e+01 -1.697000e+01
    endloop
  endfacet
  facet normal -2.495717e-01 -9.683563e-01 0.000000e+00
    outer loop
      vertex   -2.200173e+02 4.616427e+01 -1.697000e+01
      vertex   -2.200173e+02 4.616427e+01 -5.450000e+00
      vertex   -2.205112e+02 4.629155e+01 -1.697000e+01
    endloop
  endfacet
  facet normal -2.495717e-01 -9.683563e-01 0.000000e+00
    outer loop
      vertex   -2.205112e+02 4.629155e+01 -1.697000e+01
      vertex   -2.200173e+02 4.616427e+01 -5.450000e+00
      vertex   -2.205112e+02 4.629155e+01 -5.450000e+00
    endloop
  endfacet
  facet normal -1.692448e-01 -9.855740e-01 0.000000e+00
    outer loop
      vertex   -2.198493e+02 4.613542e+01 -1.697000e+01
      vertex   -2.198493e+02 4.613542e+01 -5.450000e+00
      vertex   -2.200173e+02 4.616427e+01 -1.697000e+01
    endloop
  endfacet
  facet normal -1.692448e-01 -9.855740e-01 0.000000e+00
    outer loop
      vertex   -2.200173e+02 4.616427e+01 -1.697000e+01
      vertex   -2.198493e+02 4.613542e+01 -5.450000e+00
      vertex   -2.200173e+02 4.616427e+01 -5.450000e+00
    endloop
  endfacet
  facet normal 4.551239e-01 8.904281e-01 -0.000000e+00
    outer loop
      vertex   -2.165604e+02 5.680312e+01 -1.697000e+01
      vertex   -2.165604e+02 5.680312e+01 -5.450000e+00
      vertex   -2.164077e+02 5.672505e+01 -1.697000e+01
    endloop
  endfacet
  facet normal 4.551239e-01 8.904281e-01 0.000000e+00
    outer loop
      vertex   -2.164077e+02 5.672505e+01 -1.697000e+01
      vertex   -2.165604e+02 5.680312e+01 -5.450000e+00
      vertex   -2.164077e+02 5.672505e+01 -5.450000e+00
    endloop
  endfacet
  facet normal 5.303082e-01 8.478050e-01 -0.000000e+00
    outer loop
      vertex   -2.164077e+02 5.672505e+01 -1.697000e+01
      vertex   -2.164077e+02 5.672505e+01 -5.450000e+00
      vertex   -2.151570e+02 5.594271e+01 -1.697000e+01
    endloop
  endfacet
  facet normal 5.303082e-01 8.478050e-01 0.000000e+00
    outer loop
      vertex   -2.151570e+02 5.594271e+01 -1.697000e+01
      vertex   -2.164077e+02 5.672505e+01 -5.450000e+00
      vertex   -2.151570e+02 5.594271e+01 -5.450000e+00
    endloop
  endfacet
  facet normal -9.855765e-01 1.692307e-01 0.000000e+00
    outer loop
      vertex   -1.952997e+02 6.748099e+01 -1.697000e+01
      vertex   -1.952997e+02 6.748099e+01 -5.450000e+00
      vertex   -1.952709e+02 6.764900e+01 -1.697000e+01
    endloop
  endfacet
  facet normal -9.855765e-01 1.692307e-01 0.000000e+00
    outer loop
      vertex   -1.952709e+02 6.764900e+01 -1.697000e+01
      vertex   -1.952997e+02 6.748099e+01 -5.450000e+00
      vertex   -1.952709e+02 6.764900e+01 -5.450000e+00
    endloop
  endfacet
  facet normal -9.683540e-01 2.495806e-01 0.000000e+00
    outer loop
      vertex   -1.952709e+02 6.764900e+01 -1.697000e+01
      vertex   -1.952709e+02 6.764900e+01 -5.450000e+00
      vertex   -1.951436e+02 6.814285e+01 -1.697000e+01
    endloop
  endfacet
  facet normal -9.683540e-01 2.495806e-01 0.000000e+00
    outer loop
      vertex   -1.951436e+02 6.814285e+01 -1.697000e+01
      vertex   -1.952709e+02 6.764900e+01 -5.450000e+00
      vertex   -1.951436e+02 6.814285e+01 -5.450000e+00
    endloop
  endfacet
  facet normal -9.887173e-01 -1.497936e-01 -0.000000e+00
    outer loop
      vertex   -2.024935e+02 6.702109e+01 -5.450000e+00
      vertex   -2.024935e+02 6.702109e+01 -1.697000e+01
      vertex   -2.024681e+02 6.685308e+01 -5.450000e+00
    endloop
  endfacet
  facet normal -9.887173e-01 -1.497936e-01 0.000000e+00
    outer loop
      vertex   -2.024681e+02 6.685308e+01 -5.450000e+00
      vertex   -2.024935e+02 6.702109e+01 -1.697000e+01
      vertex   -2.024681e+02 6.685308e+01 -1.697000e+01
    endloop
  endfacet
  facet normal 0.000000e+00 0.000000e+00 -1.000000e+00
    outer loop
      vertex   -2.225140e+02 3.936999e+01 -1.697000e+01
      vertex   -1.968117e+02 4.110404e+01 -1.697000e+01
      vertex   -1.917700e+02 3.936999e+01 -1.697000e+01
    endloop
  endfacet
  facet normal 0.000000e+00 0.000000e+00 -1.000000e+00
    outer loop
      vertex   -2.225140e+02 3.936999e+01 -1.697000e+01
      vertex   -2.183780e+02 4.303490e+01 -1.697000e+01
      vertex   -1.968117e+02 4.110404e+01 -1.697000e+01
    endloop
  endfacet
  facet normal 0.000000e+00 0.000000e+00 -1.000000e+00
    outer loop
      vertex   -2.225140e+02 3.936999e+01 -1.697000e+01
      vertex   -2.198493e+02 4.293138e+01 -1.697000e+01
      vertex   -2.183780e+02 4.303490e+01 -1.697000e+01
    endloop
  endfacet
  facet normal 0.000000e+00 0.000000e+00 -1.000000e+00
    outer loop
      vertex   -2.225140e+02 3.936999e+01 -1.697000e+01
      vertex   -2.200173e+02 4.290253e+01 -1.697000e+01
      vertex   -2.198493e+02 4.293138e+01 -1.697000e+01
    endloop
  endfacet
  facet normal 0.000000e+00 0.000000e+00 -1.000000e+00
    outer loop
      vertex   -2.225140e+02 3.936999e+01 -1.697000e+01
      vertex   -2.205112e+02 4.277525e+01 -1.697000e+01
      vertex   -2.200173e+02 4.290253e+01 -1.697000e+01
    endloop
  endfacet
  facet normal 0.000000e+00 0.000000e+00 -1.000000e+00
    outer loop
      vertex   -2.225140e+02 3.936999e+01 -1.697000e+01
      vertex   -2.213020e+02 4.245960e+01 -1.697000e+01
      vertex   -2.205112e+02 4.277525e+01 -1.697000e+01
    endloop
  endfacet
  facet normal 0.000000e+00 0.000000e+00 -1.000000e+00
    outer loop
      vertex   -2.225140e+02 3.936999e+01 -1.697000e+01
      vertex   -2.223491e+02 4.189108e+01 -1.697000e+01
      vertex   -2.213020e+02 4.245960e+01 -1.697000e+01
    endloop
  endfacet
  facet normal 0.000000e+00 0.000000e+00 -1.000000e+00
    outer loop
      vertex   -2.225140e+02 3.936999e+01 -1.697000e+01
      vertex   -2.233809e+02 3.964418e+01 -1.697000e+01
      vertex   -2.223491e+02 4.189108e+01 -1.697000e+01
    endloop
  endfacet
  facet normal -0.000000e+00 0.000000e+00 -1.000000e+00
    outer loop
      vertex   -2.223491e+02 4.189108e+01 -1.697000e+01
      vertex   -2.233809e+02 3.964418e+01 -1.697000e+01
      vertex   -2.235964e+02 4.100013e+01 -1.697000e+01
    endloop
  endfacet
  facet normal 0.000000e+00 0.000000e+00 -1.000000e+00
    outer loop
      vertex   -1.968117e+02 4.110404e+01 -1.697000e+01
      vertex   -2.183780e+02 4.303490e+01 -1.697000e+01
      vertex   -2.002242e+02 4.451654e+01 -1.697000e+01
    endloop
  endfacet
  facet normal -0.000000e+00 0.000000e+00 -1.000000e+00
    outer loop
      vertex   -2.002242e+02 4.451654e+01 -1.697000e+01
      vertex   -2.183780e+02 4.303490e+01 -1.697000e+01
      vertex   -2.183983e+02 4.603529e+01 -1.697000e+01
    endloop
  endfacet
  facet normal -0.000000e+00 0.000000e+00 -1.000000e+00
    outer loop
      vertex   -2.177925e+02 4.974336e+01 -1.697000e+01
      vertex   -2.183983e+02 4.603529e+01 -1.697000e+01
      vertex   -2.198493e+02 4.613542e+01 -1.697000e+01
    endloop
  endfacet
  facet normal 0.000000e+00 -0.000000e+00 -1.000000e+00
    outer loop
      vertex   -2.200173e+02 4.616427e+01 -1.697000e+01
      vertex   -2.177925e+02 4.974336e+01 -1.697000e+01
      vertex   -2.198493e+02 4.613542e+01 -1.697000e+01
    endloop
  endfacet
  facet normal 0.000000e+00 0.000000e+00 -1.000000e+00
    outer loop
      vertex   -2.200173e+02 4.616427e+01 -1.697000e+01
      vertex   -2.205112e+02 4.629155e+01 -1.697000e+01
      vertex   -2.177925e+02 4.974336e+01 -1.697000e+01
    endloop
  endfacet
  facet normal -0.000000e+00 0.000000e+00 -1.000000e+00
    outer loop
      vertex   -2.177925e+02 4.974336e+01 -1.697000e+01
      vertex   -2.205112e+02 4.629155e+01 -1.697000e+01
      vertex   -2.192214e+02 5.009974e+01 -1.697000e+01
    endloop
  endfacet
  facet normal -0.000000e+00 0.000000e+00 -1.000000e+00
    outer loop
      vertex   -2.192214e+02 5.009974e+01 -1.697000e+01
      vertex   -2.205112e+02 4.629155e+01 -1.697000e+01
      vertex   -2.213020e+02 4.660720e+01 -1.697000e+01
    endloop
  endfacet
  facet normal -0.000000e+00 0.000000e+00 -1.000000e+00
    outer loop
      vertex   -2.193894e+02 5.012520e+01 -1.697000e+01
      vertex   -2.213020e+02 4.660720e+01 -1.697000e+01
      vertex   -2.198985e+02 5.015575e+01 -1.697000e+01
    endloop
  endfacet
  facet normal 0.000000e+00 -0.000000e+00 -1.000000e+00
    outer loop
      vertex   -2.193894e+02 5.012520e+01 -1.697000e+01
      vertex   -2.192214e+02 5.009974e+01 -1.697000e+01
      vertex   -2.213020e+02 4.660720e+01 -1.697000e+01
    endloop
  endfacet
  facet normal 0.000000e+00 0.000000e+00 -1.000000e+00
    outer loop
      vertex   -2.002242e+02 4.451654e+01 -1.697000e+01
      vertex   -2.183983e+02 4.603529e+01 -1.697000e+01
      vertex   -2.177925e+02 4.974336e+01 -1.697000e+01
    endloop
  endfacet
  facet normal -0.000000e+00 -0.000000e+00 -1.000000e+00
    outer loop
      vertex   -2.168812e+02 5.260290e+01 -1.697000e+01
      vertex   -2.002242e+02 4.451654e+01 -1.697000e+01
      vertex   -2.177925e+02 4.974336e+01 -1.697000e+01
    endloop
  endfacet
  facet normal 0.000000e+00 0.000000e+00 -1.000000e+00
    outer loop
      vertex   -2.168812e+02 5.260290e+01 -1.697000e+01
      vertex   -2.151570e+02 5.594271e+01 -1.697000e+01
      vertex   -2.002242e+02 4.451654e+01 -1.697000e+01
    endloop
  endfacet
  facet normal -2.179052e-15 1.124957e-15 -1.000000e+00
    outer loop
      vertex   -2.168812e+02 5.260290e+01 -1.697000e+01
      vertex   -2.182303e+02 5.314766e+01 -1.697000e+01
      vertex   -2.151570e+02 5.594271e+01 -1.697000e+01
    endloop
  endfacet
  facet normal -4.710681e-16 -7.530977e-16 -1.000000e+00
    outer loop
      vertex   -2.151570e+02 5.594271e+01 -1.697000e+01
      vertex   -2.182303e+02 5.314766e+01 -1.697000e+01
      vertex   -2.164077e+02 5.672505e+01 -1.697000e+01
    endloop
  endfacet
  facet normal -4.027129e-16 -7.879238e-16 -1.000000e+00
    outer loop
      vertex   -2.164077e+02 5.672505e+01 -1.697000e+01
      vertex   -2.182303e+02 5.314766e+01 -1.697000e+01
      vertex   -2.183831e+02 5.322572e+01 -1.697000e+01
    endloop
  endfacet
  facet normal 5.588064e-15 -4.169723e-15 -1.000000e+00
    outer loop
      vertex   -2.188124e+02 5.350234e+01 -1.697000e+01
      vertex   -2.164077e+02 5.672505e+01 -1.697000e+01
      vertex   -2.183831e+02 5.322572e+01 -1.697000e+01
    endloop
  endfacet
  facet normal 0.000000e+00 0.000000e+00 -1.000000e+00
    outer loop
      vertex   -2.188124e+02 5.350234e+01 -1.697000e+01
      vertex   -2.165604e+02 5.680312e+01 -1.697000e+01
      vertex   -2.164077e+02 5.672505e+01 -1.697000e+01
    endloop
  endfacet
  facet normal 0.000000e+00 0.000000e+00 -1.000000e+00
    outer loop
      vertex   -2.188124e+02 5.350234e+01 -1.697000e+01
      vertex   -2.170373e+02 5.698809e+01 -1.697000e+01
      vertex   -2.165604e+02 5.680312e+01 -1.697000e+01
    endloop
  endfacet
  facet normal -3.813491e-15 1.942028e-15 -1.000000e+00
    outer loop
      vertex   -2.188124e+02 5.350234e+01 -1.697000e+01
      vertex   -2.194675e+02 5.404540e+01 -1.697000e+01
      vertex   -2.170373e+02 5.698809e+01 -1.697000e+01
    endloop
  endfacet
  facet normal -2.544290e-16 -9.971835e-16 -1.000000e+00
    outer loop
      vertex   -2.170373e+02 5.698809e+01 -1.697000e+01
      vertex   -2.194675e+02 5.404540e+01 -1.697000e+01
      vertex   -2.178621e+02 5.719853e+01 -1.697000e+01
    endloop
  endfacet
  facet normal 2.042347e-15 -2.166588e-15 -1.000000e+00
    outer loop
      vertex   -2.178621e+02 5.719853e+01 -1.697000e+01
      vertex   -2.194675e+02 5.404540e+01 -1.697000e+01
      vertex   -2.202889e+02 5.491090e+01 -1.697000e+01
    endloop
  endfacet
  facet normal -0.000000e+00 0.000000e+00 -1.000000e+00
    outer loop
      vertex   -2.190415e+02 5.735296e+01 -1.697000e+01
      vertex   -2.202889e+02 5.491090e+01 -1.697000e+01
      vertex   -2.211985e+02 5.614296e+01 -1.697000e+01
    endloop
  endfacet
  facet normal 0.000000e+00 -0.000000e+00 -1.000000e+00
    outer loop
      vertex   -2.205740e+02 5.736484e+01 -1.697000e+01
      vertex   -2.190415e+02 5.735296e+01 -1.697000e+01
      vertex   -2.211985e+02 5.614296e+01 -1.697000e+01
    endloop
  endfacet
  facet normal -0.000000e+00 0.000000e+00 -1.000000e+00
    outer loop
      vertex   -2.198985e+02 5.015575e+01 -1.697000e+01
      vertex   -2.213020e+02 4.660720e+01 -1.697000e+01
      vertex   -2.207505e+02 5.010144e+01 -1.697000e+01
    endloop
  endfacet
  facet normal -0.000000e+00 0.000000e+00 -1.000000e+00
    outer loop
      vertex   -2.207505e+02 5.010144e+01 -1.697000e+01
      vertex   -2.213020e+02 4.660720e+01 -1.697000e+01
      vertex   -2.223491e+02 4.717572e+01 -1.697000e+01
    endloop
  endfacet
  facet normal -0.000000e+00 0.000000e+00 -1.000000e+00
    outer loop
      vertex   -2.219214e+02 4.988422e+01 -1.697000e+01
      vertex   -2.223491e+02 4.717572e+01 -1.697000e+01
      vertex   -2.235964e+02 4.806667e+01 -1.697000e+01
    endloop
  endfacet
  facet normal 0.000000e+00 -0.000000e+00 -1.000000e+00
    outer loop
      vertex   -2.233809e+02 4.942262e+01 -1.697000e+01
      vertex   -2.219214e+02 4.988422e+01 -1.697000e+01
      vertex   -2.235964e+02 4.806667e+01 -1.697000e+01
    endloop
  endfacet
  facet normal -0.000000e+00 0.000000e+00 -1.000000e+00
    outer loop
      vertex   -2.207505e+02 5.010144e+01 -1.697000e+01
      vertex   -2.223491e+02 4.717572e+01 -1.697000e+01
      vertex   -2.219214e+02 4.988422e+01 -1.697000e+01
    endloop
  endfacet
  facet normal -0.000000e+00 0.000000e+00 -1.000000e+00
    outer loop
      vertex   -2.178621e+02 5.719853e+01 -1.697000e+01
      vertex   -2.202889e+02 5.491090e+01 -1.697000e+01
      vertex   -2.190415e+02 5.735296e+01 -1.697000e+01
    endloop
  endfacet
  facet normal 0.000000e+00 0.000000e+00 -1.000000e+00
    outer loop
      vertex   -2.151570e+02 5.594271e+01 -1.697000e+01
      vertex   -2.134073e+02 5.838138e+01 -1.697000e+01
      vertex   -2.002242e+02 4.451654e+01 -1.697000e+01
    endloop
  endfacet
  facet normal 0.000000e+00 0.000000e+00 -1.000000e+00
    outer loop
      vertex   -2.002242e+02 4.451654e+01 -1.697000e+01
      vertex   -2.134073e+02 5.838138e+01 -1.697000e+01
      vertex   -2.107395e+02 6.102539e+01 -1.697000e+01
    endloop
  endfacet
  facet normal 0.000000e+00 0.000000e+00 -1.000000e+00
    outer loop
      vertex   -1.968117e+02 4.792904e+01 -1.697000e+01
      vertex   -2.107395e+02 6.102539e+01 -1.697000e+01
      vertex   -2.083212e+02 6.280560e+01 -1.697000e+01
    endloop
  endfacet
  facet normal -0.000000e+00 0.000000e+00 -1.000000e+00
    outer loop
      vertex   -2.049644e+02 6.449587e+01 -1.697000e+01
      vertex   -2.083212e+02 6.280560e+01 -1.697000e+01
      vertex   -2.055160e+02 6.586200e+01 -1.697000e+01
    endloop
  endfacet
  facet normal -0.000000e+00 -0.000000e+00 -1.000000e+00
    outer loop
      vertex   -2.049644e+02 6.449587e+01 -1.697000e+01
      vertex   -1.968117e+02 4.792904e+01 -1.697000e+01
      vertex   -2.083212e+02 6.280560e+01 -1.697000e+01
    endloop
  endfacet
  facet normal 0.000000e+00 0.000000e+00 -1.000000e+00
    outer loop
      vertex   -2.049644e+02 6.449587e+01 -1.697000e+01
      vertex   -2.021168e+02 6.543944e+01 -1.697000e+01
      vertex   -1.968117e+02 4.792904e+01 -1.697000e+01
    endloop
  endfacet
  facet normal 0.000000e+00 0.000000e+00 -1.000000e+00
    outer loop
      vertex   -1.968117e+02 4.792904e+01 -1.697000e+01
      vertex   -2.021168e+02 6.543944e+01 -1.697000e+01
      vertex   -1.984002e+02 6.600965e+01 -1.697000e+01
    endloop
  endfacet
  facet normal -0.000000e+00 0.000000e+00 -1.000000e+00
    outer loop
      vertex   -1.953998e+02 6.603001e+01 -1.697000e+01
      vertex   -1.968117e+02 4.792904e+01 -1.697000e+01
      vertex   -1.984002e+02 6.600965e+01 -1.697000e+01
    endloop
  endfacet
  facet normal -0.000000e+00 -0.000000e+00 -1.000000e+00
    outer loop
      vertex   -1.953998e+02 6.603001e+01 -1.697000e+01
      vertex   -1.933992e+02 4.451654e+01 -1.697000e+01
      vertex   -1.968117e+02 4.792904e+01 -1.697000e+01
    endloop
  endfacet
  facet normal 0.000000e+00 -0.000000e+00 -1.000000e+00
    outer loop
      vertex   -1.953998e+02 6.603001e+01 -1.697000e+01
      vertex   -1.917700e+02 7.024567e+01 -1.697000e+01
      vertex   -1.933992e+02 4.451654e+01 -1.697000e+01
    endloop
  endfacet
  facet normal 0.000000e+00 0.000000e+00 -1.000000e+00
    outer loop
      vertex   -1.953998e+02 6.603001e+01 -1.697000e+01
      vertex   -1.952997e+02 6.748099e+01 -1.697000e+01
      vertex   -1.917700e+02 7.024567e+01 -1.697000e+01
    endloop
  endfacet
  facet normal -0.000000e+00 0.000000e+00 -1.000000e+00
    outer loop
      vertex   -1.917700e+02 7.024567e+01 -1.697000e+01
      vertex   -1.952997e+02 6.748099e+01 -1.697000e+01
      vertex   -1.952709e+02 6.764900e+01 -1.697000e+01
    endloop
  endfacet
  facet normal 0.000000e+00 -0.000000e+00 -1.000000e+00
    outer loop
      vertex   -1.951436e+02 6.814285e+01 -1.697000e+01
      vertex   -1.917700e+02 7.024567e+01 -1.697000e+01
      vertex   -1.952709e+02 6.764900e+01 -1.697000e+01
    endloop
  endfacet
  facet normal 0.000000e+00 0.000000e+00 -1.000000e+00
    outer loop
      vertex   -1.951436e+02 6.814285e+01 -1.697000e+01
      vertex   -1.948279e+02 6.893367e+01 -1.697000e+01
      vertex   -1.917700e+02 7.024567e+01 -1.697000e+01
    endloop
  endfacet
  facet normal -0.000000e+00 0.000000e+00 -1.000000e+00
    outer loop
      vertex   -1.917700e+02 7.024567e+01 -1.697000e+01
      vertex   -1.948279e+02 6.893367e+01 -1.697000e+01
      vertex   -1.942594e+02 6.998076e+01 -1.697000e+01
    endloop
  endfacet
  facet normal -0.000000e+00 0.000000e+00 -1.000000e+00
    outer loop
      vertex   -1.920125e+02 7.101257e+01 -1.697000e+01
      vertex   -1.942594e+02 6.998076e+01 -1.697000e+01
      vertex   -1.933685e+02 7.122810e+01 -1.697000e+01
    endloop
  endfacet
  facet normal 0.000000e+00 -0.000000e+00 -1.000000e+00
    outer loop
      vertex   -1.920125e+02 7.101257e+01 -1.697000e+01
      vertex   -1.917700e+02 7.024567e+01 -1.697000e+01
      vertex   -1.942594e+02 6.998076e+01 -1.697000e+01
    endloop
  endfacet
  facet normal -0.000000e+00 0.000000e+00 -1.000000e+00
    outer loop
      vertex   -2.107395e+02 6.102539e+01 -1.697000e+01
      vertex   -2.134073e+02 5.838138e+01 -1.697000e+01
      vertex   -2.116865e+02 6.215564e+01 -1.697000e+01
    endloop
  endfacet
  facet normal -0.000000e+00 0.000000e+00 -1.000000e+00
    outer loop
      vertex   -2.116865e+02 6.215564e+01 -1.697000e+01
      vertex   -2.134073e+02 5.838138e+01 -1.697000e+01
      vertex   -2.145240e+02 5.931816e+01 -1.697000e+01
    endloop
  endfacet
  facet normal -0.000000e+00 0.000000e+00 -1.000000e+00
    outer loop
      vertex   -2.118070e+02 6.227612e+01 -1.697000e+01
      vertex   -2.145240e+02 5.931816e+01 -1.697000e+01
      vertex   -2.146445e+02 5.943865e+01 -1.697000e+01
    endloop
  endfacet
  facet normal -0.000000e+00 0.000000e+00 -1.000000e+00
    outer loop
      vertex   -2.122024e+02 6.260026e+01 -1.697000e+01
      vertex   -2.146445e+02 5.943865e+01 -1.697000e+01
      vertex   -2.149686e+02 5.983406e+01 -1.697000e+01
    endloop
  endfacet
  facet normal -0.000000e+00 0.000000e+00 -1.000000e+00
    outer loop
      vertex   -2.129219e+02 6.305507e+01 -1.697000e+01
      vertex   -2.149686e+02 5.983406e+01 -1.697000e+01
      vertex   -2.154234e+02 6.055361e+01 -1.697000e+01
    endloop
  endfacet
  facet normal 0.000000e+00 -0.000000e+00 -1.000000e+00
    outer loop
      vertex   -2.159359e+02 6.162955e+01 -1.697000e+01
      vertex   -2.129219e+02 6.305507e+01 -1.697000e+01
      vertex   -2.154234e+02 6.055361e+01 -1.697000e+01
    endloop
  endfacet
  facet normal 0.000000e+00 0.000000e+00 -1.000000e+00
    outer loop
      vertex   -2.159359e+02 6.162955e+01 -1.697000e+01
      vertex   -2.139979e+02 6.356759e+01 -1.697000e+01
      vertex   -2.129219e+02 6.305507e+01 -1.697000e+01
    endloop
  endfacet
  facet normal 0.000000e+00 0.000000e+00 -1.000000e+00
    outer loop
      vertex   -2.159359e+02 6.162955e+01 -1.697000e+01
      vertex   -2.154506e+02 6.405294e+01 -1.697000e+01
      vertex   -2.139979e+02 6.356759e+01 -1.697000e+01
    endloop
  endfacet
  facet normal 0.000000e+00 0.000000e+00 -1.000000e+00
    outer loop
      vertex   -2.159359e+02 6.162955e+01 -1.697000e+01
      vertex   -2.164213e+02 6.308222e+01 -1.697000e+01
      vertex   -2.154506e+02 6.405294e+01 -1.697000e+01
    endloop
  endfacet
  facet normal -0.000000e+00 0.000000e+00 -1.000000e+00
    outer loop
      vertex   -2.116865e+02 6.215564e+01 -1.697000e+01
      vertex   -2.145240e+02 5.931816e+01 -1.697000e+01
      vertex   -2.118070e+02 6.227612e+01 -1.697000e+01
    endloop
  endfacet
  facet normal -0.000000e+00 0.000000e+00 -1.000000e+00
    outer loop
      vertex   -2.118070e+02 6.227612e+01 -1.697000e+01
      vertex   -2.146445e+02 5.943865e+01 -1.697000e+01
      vertex   -2.122024e+02 6.260026e+01 -1.697000e+01
    endloop
  endfacet
  facet normal -0.000000e+00 0.000000e+00 -1.000000e+00
    outer loop
      vertex   -2.122024e+02 6.260026e+01 -1.697000e+01
      vertex   -2.149686e+02 5.983406e+01 -1.697000e+01
      vertex   -2.129219e+02 6.305507e+01 -1.697000e+01
    endloop
  endfacet
  facet normal 0.000000e+00 0.000000e+00 -1.000000e+00
    outer loop
      vertex   -2.002242e+02 4.451654e+01 -1.697000e+01
      vertex   -2.107395e+02 6.102539e+01 -1.697000e+01
      vertex   -1.968117e+02 4.792904e+01 -1.697000e+01
    endloop
  endfacet
  facet normal 0.000000e+00 0.000000e+00 -1.000000e+00
    outer loop
      vertex   -2.083212e+02 6.280560e+01 -1.697000e+01
      vertex   -2.090934e+02 6.403936e+01 -1.697000e+01
      vertex   -2.055160e+02 6.586200e+01 -1.697000e+01
    endloop
  endfacet
  facet normal -0.000000e+00 0.000000e+00 -1.000000e+00
    outer loop
      vertex   -2.055160e+02 6.586200e+01 -1.697000e+01
      vertex   -2.090934e+02 6.403936e+01 -1.697000e+01
      vertex   -2.055941e+02 6.601474e+01 -1.697000e+01
    endloop
  endfacet
  facet normal -0.000000e+00 0.000000e+00 -1.000000e+00
    outer loop
      vertex   -2.055941e+02 6.601474e+01 -1.697000e+01
      vertex   -2.090934e+02 6.403936e+01 -1.697000e+01
      vertex   -2.058707e+02 6.644410e+01 -1.697000e+01
    endloop
  endfacet
  facet normal -0.000000e+00 0.000000e+00 -1.000000e+00
    outer loop
      vertex   -2.058707e+02 6.644410e+01 -1.697000e+01
      vertex   -2.090934e+02 6.403936e+01 -1.697000e+01
      vertex   -2.091715e+02 6.419210e+01 -1.697000e+01
    endloop
  endfacet
  facet normal 0.000000e+00 -0.000000e+00 -1.000000e+00
    outer loop
      vertex   -2.093564e+02 6.466897e+01 -1.697000e+01
      vertex   -2.058707e+02 6.644410e+01 -1.697000e+01
      vertex   -2.091715e+02 6.419210e+01 -1.697000e+01
    endloop
  endfacet
  facet normal 0.000000e+00 0.000000e+00 -1.000000e+00
    outer loop
      vertex   -2.093564e+02 6.466897e+01 -1.697000e+01
      vertex   -2.064137e+02 6.709916e+01 -1.697000e+01
      vertex   -2.058707e+02 6.644410e+01 -1.697000e+01
    endloop
  endfacet
  facet normal 0.000000e+00 0.000000e+00 -1.000000e+00
    outer loop
      vertex   -2.093564e+02 6.466897e+01 -1.697000e+01
      vertex   -2.095669e+02 6.549374e+01 -1.697000e+01
      vertex   -2.064137e+02 6.709916e+01 -1.697000e+01
    endloop
  endfacet
  facet normal -0.000000e+00 0.000000e+00 -1.000000e+00
    outer loop
      vertex   -2.064137e+02 6.709916e+01 -1.697000e+01
      vertex   -2.095669e+02 6.549374e+01 -1.697000e+01
      vertex   -2.072792e+02 6.792054e+01 -1.697000e+01
    endloop
  endfacet
  facet normal -0.000000e+00 0.000000e+00 -1.000000e+00
    outer loop
      vertex   -2.072792e+02 6.792054e+01 -1.697000e+01
      vertex   -2.095669e+02 6.549374e+01 -1.697000e+01
      vertex   -2.097213e+02 6.667320e+01 -1.697000e+01
    endloop
  endfacet
  facet normal -0.000000e+00 0.000000e+00 -1.000000e+00
    outer loop
      vertex   -2.085113e+02 6.883015e+01 -1.697000e+01
      vertex   -2.097213e+02 6.667320e+01 -1.697000e+01
      vertex   -2.097332e+02 6.820564e+01 -1.697000e+01
    endloop
  endfacet
  facet normal 0.000000e+00 -0.000000e+00 -1.000000e+00
    outer loop
      vertex   -2.085113e+02 6.883015e+01 -1.697000e+01
      vertex   -2.072792e+02 6.792054e+01 -1.697000e+01
      vertex   -2.097213e+02 6.667320e+01 -1.697000e+01
    endloop
  endfacet
  facet normal 0.000000e+00 -0.000000e+00 -1.000000e+00
    outer loop
      vertex   -2.024681e+02 6.685308e+01 -1.697000e+01
      vertex   -1.986599e+02 6.814284e+01 -1.697000e+01
      vertex   -2.021168e+02 6.543944e+01 -1.697000e+01
    endloop
  endfacet
  facet normal 0.000000e+00 0.000000e+00 -1.000000e+00
    outer loop
      vertex   -2.024681e+02 6.685308e+01 -1.697000e+01
      vertex   -1.989755e+02 6.893368e+01 -1.697000e+01
      vertex   -1.986599e+02 6.814284e+01 -1.697000e+01
    endloop
  endfacet
  facet normal 0.000000e+00 0.000000e+00 -1.000000e+00
    outer loop
      vertex   -2.024681e+02 6.685308e+01 -1.697000e+01
      vertex   -2.024935e+02 6.702109e+01 -1.697000e+01
      vertex   -1.989755e+02 6.893368e+01 -1.697000e+01
    endloop
  endfacet
  facet normal -0.000000e+00 0.000000e+00 -1.000000e+00
    outer loop
      vertex   -1.989755e+02 6.893368e+01 -1.697000e+01
      vertex   -2.024935e+02 6.702109e+01 -1.697000e+01
      vertex   -2.025241e+02 6.753021e+01 -1.697000e+01
    endloop
  endfacet
  facet normal 0.000000e+00 -0.000000e+00 -1.000000e+00
    outer loop
      vertex   -2.024698e+02 6.838213e+01 -1.697000e+01
      vertex   -1.989755e+02 6.893368e+01 -1.697000e+01
      vertex   -2.025241e+02 6.753021e+01 -1.697000e+01
    endloop
  endfacet
  facet normal 0.000000e+00 0.000000e+00 -1.000000e+00
    outer loop
      vertex   -2.024698e+02 6.838213e+01 -1.697000e+01
      vertex   -1.995441e+02 6.998076e+01 -1.697000e+01
      vertex   -1.989755e+02 6.893368e+01 -1.697000e+01
    endloop
  endfacet
  facet normal 0.000000e+00 0.000000e+00 -1.000000e+00
    outer loop
      vertex   -2.024698e+02 6.838213e+01 -1.697000e+01
      vertex   -2.022526e+02 6.955310e+01 -1.697000e+01
      vertex   -1.995441e+02 6.998076e+01 -1.697000e+01
    endloop
  endfacet
  facet normal -0.000000e+00 0.000000e+00 -1.000000e+00
    outer loop
      vertex   -1.995441e+02 6.998076e+01 -1.697000e+01
      vertex   -2.022526e+02 6.955310e+01 -1.697000e+01
      vertex   -2.004350e+02 7.122810e+01 -1.697000e+01
    endloop
  endfacet
  facet normal -0.000000e+00 0.000000e+00 -1.000000e+00
    outer loop
      vertex   -2.004350e+02 7.122810e+01 -1.697000e+01
      vertex   -2.022526e+02 6.955310e+01 -1.697000e+01
      vertex   -2.017910e+02 7.101257e+01 -1.697000e+01
    endloop
  endfacet
  facet normal 0.000000e+00 -0.000000e+00 -1.000000e+00
    outer loop
      vertex   -1.986599e+02 6.814284e+01 -1.697000e+01
      vertex   -1.985326e+02 6.764900e+01 -1.697000e+01
      vertex   -2.021168e+02 6.543944e+01 -1.697000e+01
    endloop
  endfacet
  facet normal 0.000000e+00 0.000000e+00 -1.000000e+00
    outer loop
      vertex   -2.021168e+02 6.543944e+01 -1.697000e+01
      vertex   -1.985326e+02 6.764900e+01 -1.697000e+01
      vertex   -1.985038e+02 6.748100e+01 -1.697000e+01
    endloop
  endfacet
  facet normal -0.000000e+00 0.000000e+00 -1.000000e+00
    outer loop
      vertex   -1.984002e+02 6.600965e+01 -1.697000e+01
      vertex   -2.021168e+02 6.543944e+01 -1.697000e+01
      vertex   -1.985038e+02 6.748100e+01 -1.697000e+01
    endloop
  endfacet
  facet normal -0.000000e+00 -0.000000e+00 -1.000000e+00
    outer loop
      vertex   -1.917700e+02 7.024567e+01 -1.697000e+01
      vertex   -1.917700e+02 3.936999e+01 -1.697000e+01
      vertex   -1.933992e+02 4.451654e+01 -1.697000e+01
    endloop
  endfacet
  facet normal -0.000000e+00 -0.000000e+00 -1.000000e+00
    outer loop
      vertex   -1.933992e+02 4.451654e+01 -1.697000e+01
      vertex   -1.917700e+02 3.936999e+01 -1.697000e+01
      vertex   -1.968117e+02 4.110404e+01 -1.697000e+01
    endloop
  endfacet
  facet normal 7.071068e-01 -7.071068e-01 0.000000e+00
    outer loop
      vertex   -2.002242e+02 4.451654e+01 -1.697000e+01
      vertex   -1.968117e+02 4.792904e+01 -1.697000e+01
      vertex   -2.002242e+02 4.451654e+01 -5.450000e+00
    endloop
  endfacet
  facet normal 7.071068e-01 -7.071068e-01 0.000000e+00
    outer loop
      vertex   -2.002242e+02 4.451654e+01 -5.450000e+00
      vertex   -1.968117e+02 4.792904e+01 -1.697000e+01
      vertex   -1.968117e+02 4.792904e+01 -5.450000e+00
    endloop
  endfacet
  facet normal -7.071068e-01 -7.071068e-01 0.000000e+00
    outer loop
      vertex   -1.968117e+02 4.792904e+01 -1.697000e+01
      vertex   -1.933992e+02 4.451654e+01 -1.697000e+01
      vertex   -1.968117e+02 4.792904e+01 -5.450000e+00
    endloop
  endfacet
  facet normal -7.071068e-01 -7.071068e-01 0.000000e+00
    outer loop
      vertex   -1.968117e+02 4.792904e+01 -5.450000e+00
      vertex   -1.933992e+02 4.451654e+01 -1.697000e+01
      vertex   -1.933992e+02 4.451654e+01 -5.450000e+00
    endloop
  endfacet
  facet normal -7.071068e-01 7.071068e-01 0.000000e+00
    outer loop
      vertex   -1.933992e+02 4.451654e+01 -1.697000e+01
      vertex   -1.968117e+02 4.110404e+01 -1.697000e+01
      vertex   -1.933992e+02 4.451654e+01 -5.450000e+00
    endloop
  endfacet
  facet normal -7.071068e-01 7.071068e-01 0.000000e+00
    outer loop
      vertex   -1.933992e+02 4.451654e+01 -5.450000e+00
      vertex   -1.968117e+02 4.110404e+01 -1.697000e+01
      vertex   -1.968117e+02 4.110404e+01 -5.450000e+00
    endloop
  endfacet
  facet normal 7.071068e-01 7.071068e-01 0.000000e+00
    outer loop
      vertex   -1.968117e+02 4.110404e+01 -1.697000e+01
      vertex   -2.002242e+02 4.451654e+01 -1.697000e+01
      vertex   -1.968117e+02 4.110404e+01 -5.450000e+00
    endloop
  endfacet
  facet normal 7.071068e-01 7.071068e-01 -0.000000e+00
    outer loop
      vertex   -1.968117e+02 4.110404e+01 -5.450000e+00
      vertex   -2.002242e+02 4.451654e+01 -1.697000e+01
      vertex   -2.002242e+02 4.451654e+01 -5.450000e+00
    endloop
  endfacet
endsolid
