solid ascii
  facet normal -6.537532e-002 7.192956e-004 9.974480e-001
    outer loop
      vertex   8.592951e+001 4.599661e+002 -8.152094e-001
      vertex   8.603164e+001 4.563942e+002 -8.059399e-001
      vertex   8.609528e+001 4.599661e+002 -8.043443e-001
    endloop
  endfacet
  facet normal -2.233144e-004 0.000000e+000 8.907351e-003
    outer loop
      vertex   8.609528e+001 4.599661e+002 -8.043443e-001
      vertex   8.603164e+001 4.563942e+002 -8.059399e-001
      vertex   8.603164e+001 4.528223e+002 -8.059399e-001
    endloop
  endfacet
  facet normal -7.444865e-005 2.117582e-022 2.969536e-003
    outer loop
      vertex   8.609528e+001 4.599661e+002 -8.043443e-001
      vertex   8.603164e+001 4.528223e+002 -8.059399e-001
      vertex   8.603164e+001 4.492505e+002 -8.059399e-001
    endloop
  endfacet
  facet normal -1.167068e-001 0.000000e+000 9.931664e-001
    outer loop
      vertex   8.603164e+001 4.492505e+002 -8.059399e-001
      vertex   8.603164e+001 4.528223e+002 -8.059399e-001
      vertex   8.586314e+001 4.492505e+002 -8.257397e-001
    endloop
  endfacet
  facet normal -1.165753e-001 8.673617e-019 9.920480e-001
    outer loop
      vertex   8.603164e+001 4.492505e+002 -8.059399e-001
      vertex   8.586314e+001 4.492505e+002 -8.257397e-001
      vertex   8.586314e+001 4.456786e+002 -8.257397e-001
    endloop
  endfacet
  facet normal -2.477616e-001 0.000000e+000 9.676587e-001
    outer loop
      vertex   8.586314e+001 4.492505e+002 -8.257397e-001
      vertex   8.569879e+001 4.492505e+002 -8.678209e-001
      vertex   8.569879e+001 4.456786e+002 -8.678209e-001
    endloop
  endfacet
  facet normal -2.477616e-001 0.000000e+000 9.676587e-001
    outer loop
      vertex   8.569879e+001 4.456786e+002 -8.678209e-001
      vertex   8.586314e+001 4.456786e+002 -8.257397e-001
      vertex   8.586314e+001 4.492505e+002 -8.257397e-001
    endloop
  endfacet
  facet normal -3.745367e-001 0.000000e+000 9.259976e-001
    outer loop
      vertex   8.569879e+001 4.492505e+002 -8.678209e-001
      vertex   8.554152e+001 4.492505e+002 -9.314326e-001
      vertex   8.554152e+001 4.456786e+002 -9.314326e-001
    endloop
  endfacet
  facet normal -3.745367e-001 0.000000e+000 9.259976e-001
    outer loop
      vertex   8.554152e+001 4.456786e+002 -9.314326e-001
      vertex   8.569879e+001 4.456786e+002 -8.678209e-001
      vertex   8.569879e+001 4.492505e+002 -8.678209e-001
    endloop
  endfacet
  facet normal -4.946157e-001 -3.469447e-018 8.678159e-001
    outer loop
      vertex   8.554152e+001 4.492505e+002 -9.314326e-001
      vertex   8.539413e+001 4.492505e+002 -1.015440e+000
      vertex   8.539413e+001 4.456786e+002 -1.015440e+000
    endloop
  endfacet
  facet normal -4.946157e-001 -3.469447e-018 8.678159e-001
    outer loop
      vertex   8.539413e+001 4.456786e+002 -1.015440e+000
      vertex   8.554152e+001 4.456786e+002 -9.314326e-001
      vertex   8.554152e+001 4.492505e+002 -9.314326e-001
    endloop
  endfacet
  facet normal -6.058506e-001 -3.469447e-018 7.941625e-001
    outer loop
      vertex   8.539413e+001 4.492505e+002 -1.015440e+000
      vertex   8.525924e+001 4.492505e+002 -1.118343e+000
      vertex   8.525924e+001 4.456786e+002 -1.118343e+000
    endloop
  endfacet
  facet normal -6.058506e-001 -3.469447e-018 7.941625e-001
    outer loop
      vertex   8.525924e+001 4.456786e+002 -1.118343e+000
      vertex   8.539413e+001 4.456786e+002 -1.015440e+000
      vertex   8.539413e+001 4.492505e+002 -1.015440e+000
    endloop
  endfacet
  facet normal -7.063281e-001 0.000000e+000 7.062930e-001
    outer loop
      vertex   8.525924e+001 4.492505e+002 -1.118343e+000
      vertex   8.513928e+001 4.492505e+002 -1.238306e+000
      vertex   8.513928e+001 4.456786e+002 -1.238306e+000
    endloop
  endfacet
  facet normal -7.063281e-001 0.000000e+000 7.062930e-001
    outer loop
      vertex   8.513928e+001 4.456786e+002 -1.238306e+000
      vertex   8.525924e+001 4.456786e+002 -1.118343e+000
      vertex   8.525924e+001 4.492505e+002 -1.118343e+000
    endloop
  endfacet
  facet normal -7.941445e-001 0.000000e+000 6.058742e-001
    outer loop
      vertex   8.513928e+001 4.492505e+002 -1.238306e+000
      vertex   8.503638e+001 4.492505e+002 -1.373188e+000
      vertex   8.503638e+001 4.456786e+002 -1.373188e+000
    endloop
  endfacet
  facet normal -7.941445e-001 0.000000e+000 6.058742e-001
    outer loop
      vertex   8.503638e+001 4.456786e+002 -1.373188e+000
      vertex   8.513928e+001 4.456786e+002 -1.238306e+000
      vertex   8.513928e+001 4.492505e+002 -1.238306e+000
    endloop
  endfacet
  facet normal -8.678179e-001 0.000000e+000 4.946121e-001
    outer loop
      vertex   8.503638e+001 4.492505e+002 -1.373188e+000
      vertex   8.495237e+001 4.492505e+002 -1.520582e+000
      vertex   8.495237e+001 4.456786e+002 -1.520582e+000
    endloop
  endfacet
  facet normal -8.678179e-001 0.000000e+000 4.946121e-001
    outer loop
      vertex   8.495237e+001 4.456786e+002 -1.520582e+000
      vertex   8.503638e+001 4.456786e+002 -1.373188e+000
      vertex   8.503638e+001 4.492505e+002 -1.373188e+000
    endloop
  endfacet
  facet normal -9.259961e-001 0.000000e+000 3.745401e-001
    outer loop
      vertex   8.495237e+001 4.492505e+002 -1.520582e+000
      vertex   8.488876e+001 4.492505e+002 -1.677858e+000
      vertex   8.488876e+001 4.456786e+002 -1.677858e+000
    endloop
  endfacet
  facet normal -9.259961e-001 0.000000e+000 3.745401e-001
    outer loop
      vertex   8.488876e+001 4.456786e+002 -1.677858e+000
      vertex   8.495237e+001 4.456786e+002 -1.520582e+000
      vertex   8.495237e+001 4.492505e+002 -1.520582e+000
    endloop
  endfacet
  facet normal -9.676656e-001 1.734723e-018 2.477349e-001
    outer loop
      vertex   8.488876e+001 4.492505e+002 -1.677858e+000
      vertex   8.484668e+001 4.492505e+002 -1.842210e+000
      vertex   8.484668e+001 4.456786e+002 -1.842210e+000
    endloop
  endfacet
  facet normal -9.676656e-001 1.734723e-018 2.477349e-001
    outer loop
      vertex   8.484668e+001 4.456786e+002 -1.842210e+000
      vertex   8.488876e+001 4.456786e+002 -1.677858e+000
      vertex   8.488876e+001 4.492505e+002 -1.677858e+000
    endloop
  endfacet
  facet normal -9.931622e-001 0.000000e+000 1.167430e-001
    outer loop
      vertex   8.484668e+001 4.456786e+002 -1.842210e+000
      vertex   8.484668e+001 4.492505e+002 -1.842210e+000
      vertex   8.482687e+001 4.456786e+002 -2.010704e+000
    endloop
  endfacet
  facet normal -4.711894e-002 0.000000e+000 5.538679e-003
    outer loop
      vertex   8.482687e+001 4.456786e+002 -2.010704e+000
      vertex   8.484668e+001 4.492505e+002 -1.842210e+000
      vertex   8.482687e+001 4.492505e+002 -2.010704e+000
    endloop
  endfacet
  facet normal -4.454256e-003 0.000000e+000 1.116029e-004
    outer loop
      vertex   8.482687e+001 4.456786e+002 -2.010704e+000
      vertex   8.482687e+001 4.492505e+002 -2.010704e+000
      vertex   8.482528e+001 4.599661e+002 -2.074344e+000
    endloop
  endfacet
  facet normal -2.969369e-003 0.000000e+000 7.439859e-005
    outer loop
      vertex   8.482528e+001 4.599661e+002 -2.074344e+000
      vertex   8.482687e+001 4.492505e+002 -2.010704e+000
      vertex   8.482687e+001 4.528223e+002 -2.010704e+000
    endloop
  endfacet
  facet normal -8.906850e-003 0.000000e+000 2.231643e-004
    outer loop
      vertex   8.482528e+001 4.599661e+002 -2.074344e+000
      vertex   8.482687e+001 4.528223e+002 -2.010704e+000
      vertex   8.482687e+001 4.563942e+002 -2.010704e+000
    endloop
  endfacet
  facet normal -9.931622e-001 0.000000e+000 1.167430e-001
    outer loop
      vertex   8.482687e+001 4.563942e+002 -2.010704e+000
      vertex   8.482687e+001 4.528223e+002 -2.010704e+000
      vertex   8.484668e+001 4.563942e+002 -1.842210e+000
    endloop
  endfacet
  facet normal -9.927531e-001 -7.601662e-004 1.166949e-001
    outer loop
      vertex   8.482687e+001 4.563942e+002 -2.010704e+000
      vertex   8.484668e+001 4.563942e+002 -1.842210e+000
      vertex   8.483614e+001 4.599661e+002 -1.908576e+000
    endloop
  endfacet
  facet normal -9.806112e-001 7.316726e-004 1.950587e-001
    outer loop
      vertex   8.483614e+001 4.599661e+002 -1.908576e+000
      vertex   8.484668e+001 4.563942e+002 -1.842210e+000
      vertex   8.486855e+001 4.599661e+002 -1.745644e+000
    endloop
  endfacet
  facet normal -4.598605e-002 -3.667362e-005 1.177303e-002
    outer loop
      vertex   8.486855e+001 4.599661e+002 -1.745644e+000
      vertex   8.484668e+001 4.563942e+002 -1.842210e+000
      vertex   8.488876e+001 4.563942e+002 -1.677858e+000
    endloop
  endfacet
  facet normal -9.467458e-001 7.440932e-004 3.213727e-001
    outer loop
      vertex   8.486855e+001 4.599661e+002 -1.745644e+000
      vertex   8.488876e+001 4.563942e+002 -1.677858e+000
      vertex   8.492195e+001 4.599661e+002 -1.588336e+000
    endloop
  endfacet
  facet normal -4.400666e-002 -3.712924e-005 1.779949e-002
    outer loop
      vertex   8.492195e+001 4.599661e+002 -1.588336e+000
      vertex   8.488876e+001 4.563942e+002 -1.677858e+000
      vertex   8.495237e+001 4.563942e+002 -1.520582e+000
    endloop
  endfacet
  facet normal -8.966695e-001 7.521319e-004 4.422122e-001
    outer loop
      vertex   8.492195e+001 4.599661e+002 -1.588336e+000
      vertex   8.495237e+001 4.563942e+002 -1.520582e+000
      vertex   8.499543e+001 4.599661e+002 -1.439344e+000
    endloop
  endfacet
  facet normal -4.124187e-002 -3.742285e-005 2.350577e-002
    outer loop
      vertex   8.499543e+001 4.599661e+002 -1.439344e+000
      vertex   8.495237e+001 4.563942e+002 -1.520582e+000
      vertex   8.503638e+001 4.563942e+002 -1.373188e+000
    endloop
  endfacet
  facet normal -8.312744e-001 7.580110e-004 5.554355e-001
    outer loop
      vertex   8.499543e+001 4.599661e+002 -1.439344e+000
      vertex   8.503638e+001 4.563942e+002 -1.373188e+000
      vertex   8.508772e+001 4.599661e+002 -1.301217e+000
    endloop
  endfacet
  facet normal -3.774102e-002 -3.764076e-005 2.879364e-002
    outer loop
      vertex   8.508772e+001 4.599661e+002 -1.301217e+000
      vertex   8.503638e+001 4.563942e+002 -1.373188e+000
      vertex   8.513928e+001 4.563942e+002 -1.238306e+000
    endloop
  endfacet
  facet normal -7.516386e-001 7.604508e-004 6.591821e-001
    outer loop
      vertex   8.508772e+001 4.599661e+002 -1.301217e+000
      vertex   8.513928e+001 4.563942e+002 -1.238306e+000
      vertex   8.519726e+001 4.599661e+002 -1.176319e+000
    endloop
  endfacet
  facet normal -3.356653e-002 -3.766463e-005 3.356486e-002
    outer loop
      vertex   8.519726e+001 4.599661e+002 -1.176319e+000
      vertex   8.513928e+001 4.563942e+002 -1.238306e+000
      vertex   8.525924e+001 4.563942e+002 -1.118343e+000
    endloop
  endfacet
  facet normal -6.591761e-001 7.612549e-004 7.516133e-001
    outer loop
      vertex   8.519726e+001 4.599661e+002 -1.176319e+000
      vertex   8.525924e+001 4.563942e+002 -1.118343e+000
      vertex   8.532215e+001 4.599661e+002 -1.066786e+000
    endloop
  endfacet
  facet normal -2.879304e-002 -3.764636e-005 3.774255e-002
    outer loop
      vertex   8.532215e+001 4.599661e+002 -1.066786e+000
      vertex   8.525924e+001 4.563942e+002 -1.118343e+000
      vertex   8.539413e+001 4.563942e+002 -1.015440e+000
    endloop
  endfacet
  facet normal -5.553912e-001 7.573763e-004 8.312210e-001
    outer loop
      vertex   8.532215e+001 4.599661e+002 -1.066786e+000
      vertex   8.539413e+001 4.563942e+002 -1.015440e+000
      vertex   8.546028e+001 4.599661e+002 -9.744921e-001
    endloop
  endfacet
  facet normal -2.350567e-002 -3.743705e-005 4.124130e-002
    outer loop
      vertex   8.546028e+001 4.599661e+002 -9.744921e-001
      vertex   8.539413e+001 4.563942e+002 -1.015440e+000
      vertex   8.554152e+001 4.563942e+002 -9.314326e-001
    endloop
  endfacet
  facet normal -4.421366e-001 7.525455e-004 8.965786e-001
    outer loop
      vertex   8.546028e+001 4.599661e+002 -9.744921e-001
      vertex   8.554152e+001 4.563942e+002 -9.314326e-001
      vertex   8.560928e+001 4.599661e+002 -9.010173e-001
    endloop
  endfacet
  facet normal -1.779887e-002 -3.708179e-005 4.400560e-002
    outer loop
      vertex   8.560928e+001 4.599661e+002 -9.010173e-001
      vertex   8.554152e+001 4.563942e+002 -9.314326e-001
      vertex   8.569879e+001 4.563942e+002 -8.678209e-001
    endloop
  endfacet
  facet normal -3.213337e-001 7.444094e-004 9.465890e-001
    outer loop
      vertex   8.560928e+001 4.599661e+002 -9.010173e-001
      vertex   8.569879e+001 4.563942e+002 -8.678209e-001
      vertex   8.576658e+001 4.599661e+002 -8.476185e-001
    endloop
  endfacet
  facet normal -1.177444e-002 -3.664122e-005 4.598632e-002
    outer loop
      vertex   8.576658e+001 4.599661e+002 -8.476185e-001
      vertex   8.569879e+001 4.563942e+002 -8.678209e-001
      vertex   8.586314e+001 4.563942e+002 -8.257397e-001
    endloop
  endfacet
  facet normal -1.950135e-001 7.331244e-004 9.804090e-001
    outer loop
      vertex   8.576658e+001 4.599661e+002 -8.476185e-001
      vertex   8.586314e+001 4.563942e+002 -8.257397e-001
      vertex   8.592951e+001 4.599661e+002 -8.152094e-001
    endloop
  endfacet
  facet normal -5.540005e-003 -3.605241e-005 4.714506e-002
    outer loop
      vertex   8.592951e+001 4.599661e+002 -8.152094e-001
      vertex   8.586314e+001 4.563942e+002 -8.257397e-001
      vertex   8.603164e+001 4.563942e+002 -8.059399e-001
    endloop
  endfacet
  facet normal -9.974483e-001 7.194630e-004 6.537159e-002
    outer loop
      vertex   8.483614e+001 4.599661e+002 -1.908576e+000
      vertex   8.482528e+001 4.599661e+002 -2.074344e+000
      vertex   8.482687e+001 4.563942e+002 -2.010704e+000
    endloop
  endfacet
  facet normal -4.454256e-003 0.000000e+000 1.116029e-004
    outer loop
      vertex   8.482528e+001 4.599661e+002 -2.074344e+000
      vertex   8.482528e+001 4.313911e+002 -2.074344e+000
      vertex   8.482687e+001 4.456786e+002 -2.010704e+000
    endloop
  endfacet
  facet normal -4.454265e-003 0.000000e+000 1.116032e-004
    outer loop
      vertex   8.482687e+001 4.456786e+002 -2.010704e+000
      vertex   8.482528e+001 4.313911e+002 -2.074344e+000
      vertex   8.482687e+001 4.421067e+002 -2.010704e+000
    endloop
  endfacet
  facet normal -9.931622e-001 0.000000e+000 1.167430e-001
    outer loop
      vertex   8.482687e+001 4.456786e+002 -2.010704e+000
      vertex   8.482687e+001 4.421067e+002 -2.010704e+000
      vertex   8.484668e+001 4.456786e+002 -1.842210e+000
    endloop
  endfacet
  facet normal -4.711935e-002 0.000000e+000 5.538727e-003
    outer loop
      vertex   8.484668e+001 4.456786e+002 -1.842210e+000
      vertex   8.482687e+001 4.421067e+002 -2.010704e+000
      vertex   8.484668e+001 4.421067e+002 -1.842210e+000
    endloop
  endfacet
  facet normal -9.676655e-001 0.000000e+000 2.477349e-001
    outer loop
      vertex   8.484668e+001 4.421067e+002 -1.842210e+000
      vertex   8.488876e+001 4.421067e+002 -1.677858e+000
      vertex   8.488876e+001 4.456786e+002 -1.677858e+000
    endloop
  endfacet
  facet normal -9.676655e-001 0.000000e+000 2.477349e-001
    outer loop
      vertex   8.488876e+001 4.456786e+002 -1.677858e+000
      vertex   8.484668e+001 4.456786e+002 -1.842210e+000
      vertex   8.484668e+001 4.421067e+002 -1.842210e+000
    endloop
  endfacet
  facet normal -9.259961e-001 0.000000e+000 3.745400e-001
    outer loop
      vertex   8.488876e+001 4.421067e+002 -1.677858e+000
      vertex   8.495237e+001 4.421067e+002 -1.520582e+000
      vertex   8.495237e+001 4.456786e+002 -1.520582e+000
    endloop
  endfacet
  facet normal -9.259961e-001 0.000000e+000 3.745400e-001
    outer loop
      vertex   8.495237e+001 4.456786e+002 -1.520582e+000
      vertex   8.488876e+001 4.456786e+002 -1.677858e+000
      vertex   8.488876e+001 4.421067e+002 -1.677858e+000
    endloop
  endfacet
  facet normal -8.678179e-001 0.000000e+000 4.946121e-001
    outer loop
      vertex   8.495237e+001 4.421067e+002 -1.520582e+000
      vertex   8.503638e+001 4.421067e+002 -1.373188e+000
      vertex   8.503638e+001 4.456786e+002 -1.373188e+000
    endloop
  endfacet
  facet normal -8.678179e-001 0.000000e+000 4.946121e-001
    outer loop
      vertex   8.503638e+001 4.456786e+002 -1.373188e+000
      vertex   8.495237e+001 4.456786e+002 -1.520582e+000
      vertex   8.495237e+001 4.421067e+002 -1.520582e+000
    endloop
  endfacet
  facet normal -7.941445e-001 3.469447e-018 6.058742e-001
    outer loop
      vertex   8.503638e+001 4.421067e+002 -1.373188e+000
      vertex   8.513928e+001 4.421067e+002 -1.238306e+000
      vertex   8.513928e+001 4.456786e+002 -1.238306e+000
    endloop
  endfacet
  facet normal -7.941445e-001 3.469447e-018 6.058742e-001
    outer loop
      vertex   8.513928e+001 4.456786e+002 -1.238306e+000
      vertex   8.503638e+001 4.456786e+002 -1.373188e+000
      vertex   8.503638e+001 4.421067e+002 -1.373188e+000
    endloop
  endfacet
  facet normal -7.063281e-001 0.000000e+000 7.062930e-001
    outer loop
      vertex   8.513928e+001 4.421067e+002 -1.238306e+000
      vertex   8.525924e+001 4.421067e+002 -1.118343e+000
      vertex   8.525924e+001 4.456786e+002 -1.118343e+000
    endloop
  endfacet
  facet normal -7.063281e-001 0.000000e+000 7.062930e-001
    outer loop
      vertex   8.525924e+001 4.456786e+002 -1.118343e+000
      vertex   8.513928e+001 4.456786e+002 -1.238306e+000
      vertex   8.513928e+001 4.421067e+002 -1.238306e+000
    endloop
  endfacet
  facet normal -6.058506e-001 0.000000e+000 7.941625e-001
    outer loop
      vertex   8.525924e+001 4.421067e+002 -1.118343e+000
      vertex   8.539413e+001 4.421067e+002 -1.015440e+000
      vertex   8.539413e+001 4.456786e+002 -1.015440e+000
    endloop
  endfacet
  facet normal -6.058506e-001 0.000000e+000 7.941625e-001
    outer loop
      vertex   8.539413e+001 4.456786e+002 -1.015440e+000
      vertex   8.525924e+001 4.456786e+002 -1.118343e+000
      vertex   8.525924e+001 4.421067e+002 -1.118343e+000
    endloop
  endfacet
  facet normal -4.946157e-001 0.000000e+000 8.678159e-001
    outer loop
      vertex   8.539413e+001 4.421067e+002 -1.015440e+000
      vertex   8.554152e+001 4.421067e+002 -9.314326e-001
      vertex   8.554152e+001 4.456786e+002 -9.314326e-001
    endloop
  endfacet
  facet normal -4.946157e-001 0.000000e+000 8.678159e-001
    outer loop
      vertex   8.554152e+001 4.456786e+002 -9.314326e-001
      vertex   8.539413e+001 4.456786e+002 -1.015440e+000
      vertex   8.539413e+001 4.421067e+002 -1.015440e+000
    endloop
  endfacet
  facet normal -3.745367e-001 3.469447e-018 9.259976e-001
    outer loop
      vertex   8.554152e+001 4.421067e+002 -9.314326e-001
      vertex   8.569879e+001 4.421067e+002 -8.678209e-001
      vertex   8.569879e+001 4.456786e+002 -8.678209e-001
    endloop
  endfacet
  facet normal -3.745367e-001 3.469447e-018 9.259976e-001
    outer loop
      vertex   8.569879e+001 4.456786e+002 -8.678209e-001
      vertex   8.554152e+001 4.456786e+002 -9.314326e-001
      vertex   8.554152e+001 4.421067e+002 -9.314326e-001
    endloop
  endfacet
  facet normal -2.477616e-001 0.000000e+000 9.676586e-001
    outer loop
      vertex   8.569879e+001 4.421067e+002 -8.678209e-001
      vertex   8.586314e+001 4.421067e+002 -8.257397e-001
      vertex   8.586314e+001 4.456786e+002 -8.257397e-001
    endloop
  endfacet
  facet normal -2.477616e-001 0.000000e+000 9.676586e-001
    outer loop
      vertex   8.586314e+001 4.456786e+002 -8.257397e-001
      vertex   8.569879e+001 4.456786e+002 -8.678209e-001
      vertex   8.569879e+001 4.421067e+002 -8.678209e-001
    endloop
  endfacet
  facet normal -1.167068e-001 0.000000e+000 9.931664e-001
    outer loop
      vertex   8.586314e+001 4.456786e+002 -8.257397e-001
      vertex   8.586314e+001 4.421067e+002 -8.257397e-001
      vertex   8.603164e+001 4.456786e+002 -8.059399e-001
    endloop
  endfacet
  facet normal -5.537026e-003 0.000000e+000 4.711971e-002
    outer loop
      vertex   8.603164e+001 4.456786e+002 -8.059399e-001
      vertex   8.586314e+001 4.421067e+002 -8.257397e-001
      vertex   8.603164e+001 4.421067e+002 -8.059399e-001
    endloop
  endfacet
  facet normal -1.116741e-004 0.000000e+000 4.454515e-003
    outer loop
      vertex   8.603164e+001 4.456786e+002 -8.059399e-001
      vertex   8.603164e+001 4.421067e+002 -8.059399e-001
      vertex   8.609528e+001 4.313911e+002 -8.043444e-001
    endloop
  endfacet
  facet normal -7.444587e-005 0.000000e+000 2.969536e-003
    outer loop
      vertex   8.609528e+001 4.313911e+002 -8.043444e-001
      vertex   8.603164e+001 4.421067e+002 -8.059399e-001
      vertex   8.603164e+001 4.385348e+002 -8.059399e-001
    endloop
  endfacet
  facet normal -2.233061e-004 -8.470329e-022 8.907351e-003
    outer loop
      vertex   8.609528e+001 4.313911e+002 -8.043444e-001
      vertex   8.603164e+001 4.385348e+002 -8.059399e-001
      vertex   8.603164e+001 4.349630e+002 -8.059399e-001
    endloop
  endfacet
  facet normal -1.167068e-001 0.000000e+000 9.931664e-001
    outer loop
      vertex   8.603164e+001 4.349630e+002 -8.059399e-001
      vertex   8.603164e+001 4.385348e+002 -8.059399e-001
      vertex   8.586314e+001 4.349630e+002 -8.257397e-001
    endloop
  endfacet
  facet normal -1.166587e-001 7.591739e-004 9.927574e-001
    outer loop
      vertex   8.603164e+001 4.349630e+002 -8.059399e-001
      vertex   8.586314e+001 4.349630e+002 -8.257397e-001
      vertex   8.592951e+001 4.313911e+002 -8.152094e-001
    endloop
  endfacet
  facet normal -1.950539e-001 -7.332763e-004 9.806122e-001
    outer loop
      vertex   8.592951e+001 4.313911e+002 -8.152094e-001
      vertex   8.586314e+001 4.349630e+002 -8.257397e-001
      vertex   8.576658e+001 4.313911e+002 -8.476185e-001
    endloop
  endfacet
  facet normal -1.177444e-002 3.664122e-005 4.598632e-002
    outer loop
      vertex   8.576658e+001 4.313911e+002 -8.476185e-001
      vertex   8.586314e+001 4.349630e+002 -8.257397e-001
      vertex   8.569879e+001 4.349630e+002 -8.678209e-001
    endloop
  endfacet
  facet normal -3.213854e-001 -7.445293e-004 9.467415e-001
    outer loop
      vertex   8.576658e+001 4.313911e+002 -8.476185e-001
      vertex   8.569879e+001 4.349630e+002 -8.678209e-001
      vertex   8.560928e+001 4.313911e+002 -9.010173e-001
    endloop
  endfacet
  facet normal -1.779887e-002 3.708179e-005 4.400560e-002
    outer loop
      vertex   8.560928e+001 4.313911e+002 -9.010173e-001
      vertex   8.569879e+001 4.349630e+002 -8.678209e-001
      vertex   8.554152e+001 4.349630e+002 -9.314326e-001
    endloop
  endfacet
  facet normal -4.421875e-001 -7.526320e-004 8.966817e-001
    outer loop
      vertex   8.560928e+001 4.313911e+002 -9.010173e-001
      vertex   8.554152e+001 4.349630e+002 -9.314326e-001
      vertex   8.546028e+001 4.313911e+002 -9.744921e-001
    endloop
  endfacet
  facet normal -2.350567e-002 3.743705e-005 4.124130e-002
    outer loop
      vertex   8.546028e+001 4.313911e+002 -9.744921e-001
      vertex   8.554152e+001 4.349630e+002 -9.314326e-001
      vertex   8.539413e+001 4.349630e+002 -1.015440e+000
    endloop
  endfacet
  facet normal -5.554296e-001 -7.574286e-004 8.312784e-001
    outer loop
      vertex   8.546028e+001 4.313911e+002 -9.744921e-001
      vertex   8.539413e+001 4.349630e+002 -1.015440e+000
      vertex   8.532215e+001 4.313911e+002 -1.066786e+000
    endloop
  endfacet
  facet normal -2.879304e-002 3.764636e-005 3.774255e-002
    outer loop
      vertex   8.532215e+001 4.313911e+002 -1.066786e+000
      vertex   8.539413e+001 4.349630e+002 -1.015440e+000
      vertex   8.525924e+001 4.349630e+002 -1.118343e+000
    endloop
  endfacet
  facet normal -6.591913e-001 -7.612723e-004 7.516306e-001
    outer loop
      vertex   8.532215e+001 4.313911e+002 -1.066786e+000
      vertex   8.525924e+001 4.349630e+002 -1.118343e+000
      vertex   8.519726e+001 4.313911e+002 -1.176319e+000
    endloop
  endfacet
  facet normal -3.356653e-002 3.766463e-005 3.356486e-002
    outer loop
      vertex   8.519726e+001 4.313911e+002 -1.176319e+000
      vertex   8.525924e+001 4.349630e+002 -1.118343e+000
      vertex   8.513928e+001 4.349630e+002 -1.238306e+000
    endloop
  endfacet
  facet normal -7.516213e-001 -7.604334e-004 6.591670e-001
    outer loop
      vertex   8.519726e+001 4.313911e+002 -1.176319e+000
      vertex   8.513928e+001 4.349630e+002 -1.238306e+000
      vertex   8.508772e+001 4.313911e+002 -1.301217e+000
    endloop
  endfacet
  facet normal -3.774102e-002 3.764076e-005 2.879364e-002
    outer loop
      vertex   8.508772e+001 4.313911e+002 -1.301217e+000
      vertex   8.513928e+001 4.349630e+002 -1.238306e+000
      vertex   8.503638e+001 4.349630e+002 -1.373188e+000
    endloop
  endfacet
  facet normal -8.312170e-001 -7.579587e-004 5.553972e-001
    outer loop
      vertex   8.508772e+001 4.313911e+002 -1.301217e+000
      vertex   8.503638e+001 4.349630e+002 -1.373188e+000
      vertex   8.499543e+001 4.313911e+002 -1.439344e+000
    endloop
  endfacet
  facet normal -4.124187e-002 3.742285e-005 2.350577e-002
    outer loop
      vertex   8.499543e+001 4.313911e+002 -1.439344e+000
      vertex   8.503638e+001 4.349630e+002 -1.373188e+000
      vertex   8.495237e+001 4.349630e+002 -1.520582e+000
    endloop
  endfacet
  facet normal -8.965663e-001 -7.520454e-004 4.421613e-001
    outer loop
      vertex   8.499543e+001 4.313911e+002 -1.439344e+000
      vertex   8.495237e+001 4.349630e+002 -1.520582e+000
      vertex   8.492195e+001 4.313911e+002 -1.588336e+000
    endloop
  endfacet
  facet normal -4.400666e-002 3.712924e-005 1.779949e-002
    outer loop
      vertex   8.492195e+001 4.313911e+002 -1.588336e+000
      vertex   8.495237e+001 4.349630e+002 -1.520582e+000
      vertex   8.488876e+001 4.349630e+002 -1.677858e+000
    endloop
  endfacet
  facet normal -9.465933e-001 -7.439734e-004 3.213210e-001
    outer loop
      vertex   8.492195e+001 4.313911e+002 -1.588336e+000
      vertex   8.488876e+001 4.349630e+002 -1.677858e+000
      vertex   8.486855e+001 4.313911e+002 -1.745644e+000
    endloop
  endfacet
  facet normal -4.598605e-002 3.667362e-005 1.177303e-002
    outer loop
      vertex   8.486855e+001 4.313911e+002 -1.745644e+000
      vertex   8.488876e+001 4.349630e+002 -1.677858e+000
      vertex   8.484668e+001 4.349630e+002 -1.842210e+000
    endloop
  endfacet
  facet normal -9.804081e-001 -7.315211e-004 1.950183e-001
    outer loop
      vertex   8.486855e+001 4.313911e+002 -1.745644e+000
      vertex   8.484668e+001 4.349630e+002 -1.842210e+000
      vertex   8.483614e+001 4.313911e+002 -1.908576e+000
    endloop
  endfacet
  facet normal -4.714470e-002 3.609941e-005 5.541706e-003
    outer loop
      vertex   8.483614e+001 4.313911e+002 -1.908576e+000
      vertex   8.484668e+001 4.349630e+002 -1.842210e+000
      vertex   8.482687e+001 4.349630e+002 -2.010704e+000
    endloop
  endfacet
  facet normal -9.974483e-001 -7.194630e-004 6.537159e-002
    outer loop
      vertex   8.483614e+001 4.313911e+002 -1.908576e+000
      vertex   8.482687e+001 4.349630e+002 -2.010704e+000
      vertex   8.482528e+001 4.313911e+002 -2.074344e+000
    endloop
  endfacet
  facet normal -8.906850e-003 0.000000e+000 2.231643e-004
    outer loop
      vertex   8.482528e+001 4.313911e+002 -2.074344e+000
      vertex   8.482687e+001 4.349630e+002 -2.010704e+000
      vertex   8.482687e+001 4.385348e+002 -2.010704e+000
    endloop
  endfacet
  facet normal -2.969369e-003 0.000000e+000 7.439859e-005
    outer loop
      vertex   8.482528e+001 4.313911e+002 -2.074344e+000
      vertex   8.482687e+001 4.385348e+002 -2.010704e+000
      vertex   8.482687e+001 4.421067e+002 -2.010704e+000
    endloop
  endfacet
  facet normal -9.931622e-001 0.000000e+000 1.167430e-001
    outer loop
      vertex   8.482687e+001 4.421067e+002 -2.010704e+000
      vertex   8.482687e+001 4.385348e+002 -2.010704e+000
      vertex   8.484668e+001 4.421067e+002 -1.842210e+000
    endloop
  endfacet
  facet normal -6.537497e-002 -7.193059e-004 9.974480e-001
    outer loop
      vertex   8.592951e+001 4.313911e+002 -8.152094e-001
      vertex   8.609528e+001 4.313911e+002 -8.043444e-001
      vertex   8.603164e+001 4.349630e+002 -8.059399e-001
    endloop
  endfacet
  facet normal -1.116762e-004 -9.291687e-012 4.454515e-003
    outer loop
      vertex   8.609528e+001 4.313911e+002 -8.043444e-001
      vertex   8.609528e+001 4.599661e+002 -8.043443e-001
      vertex   8.603164e+001 4.456786e+002 -8.059399e-001
    endloop
  endfacet
  facet normal -1.116780e-004 0.000000e+000 4.454506e-003
    outer loop
      vertex   8.603164e+001 4.456786e+002 -8.059399e-001
      vertex   8.609528e+001 4.599661e+002 -8.043443e-001
      vertex   8.603164e+001 4.492505e+002 -8.059399e-001
    endloop
  endfacet
  facet normal -1.167068e-001 0.000000e+000 9.931664e-001
    outer loop
      vertex   8.603164e+001 4.456786e+002 -8.059399e-001
      vertex   8.603164e+001 4.492505e+002 -8.059399e-001
      vertex   8.586314e+001 4.456786e+002 -8.257397e-001
    endloop
  endfacet
  facet normal -1.167068e-001 0.000000e+000 9.931664e-001
    outer loop
      vertex   8.603164e+001 4.528223e+002 -8.059399e-001
      vertex   8.603164e+001 4.563942e+002 -8.059399e-001
      vertex   8.586314e+001 4.528223e+002 -8.257397e-001
    endloop
  endfacet
  facet normal -5.537026e-003 0.000000e+000 4.711971e-002
    outer loop
      vertex   8.586314e+001 4.528223e+002 -8.257397e-001
      vertex   8.603164e+001 4.563942e+002 -8.059399e-001
      vertex   8.586314e+001 4.563942e+002 -8.257397e-001
    endloop
  endfacet
  facet normal -2.480409e-001 0.000000e+000 9.687496e-001
    outer loop
      vertex   8.586314e+001 4.528223e+002 -8.257397e-001
      vertex   8.586314e+001 4.563942e+002 -8.257397e-001
      vertex   8.569879e+001 4.528223e+002 -8.678209e-001
    endloop
  endfacet
  facet normal -1.176801e-002 0.000000e+000 4.596119e-002
    outer loop
      vertex   8.569879e+001 4.528223e+002 -8.678209e-001
      vertex   8.586314e+001 4.563942e+002 -8.257397e-001
      vertex   8.569879e+001 4.563942e+002 -8.678209e-001
    endloop
  endfacet
  facet normal -3.749589e-001 0.000000e+000 9.270414e-001
    outer loop
      vertex   8.569879e+001 4.528223e+002 -8.678209e-001
      vertex   8.569879e+001 4.563942e+002 -8.678209e-001
      vertex   8.554152e+001 4.528223e+002 -9.314326e-001
    endloop
  endfacet
  facet normal -1.778902e-002 0.000000e+000 4.398125e-002
    outer loop
      vertex   8.554152e+001 4.528223e+002 -9.314326e-001
      vertex   8.569879e+001 4.563942e+002 -8.678209e-001
      vertex   8.554152e+001 4.563942e+002 -9.314326e-001
    endloop
  endfacet
  facet normal -4.951733e-001 0.000000e+000 8.687943e-001
    outer loop
      vertex   8.554152e+001 4.528223e+002 -9.314326e-001
      vertex   8.554152e+001 4.563942e+002 -9.314326e-001
      vertex   8.539413e+001 4.528223e+002 -1.015440e+000
    endloop
  endfacet
  facet normal -2.349255e-002 0.000000e+000 4.121828e-002
    outer loop
      vertex   8.539413e+001 4.528223e+002 -1.015440e+000
      vertex   8.554152e+001 4.563942e+002 -9.314326e-001
      vertex   8.539413e+001 4.563942e+002 -1.015440e+000
    endloop
  endfacet
  facet normal -6.065337e-001 0.000000e+000 7.950578e-001
    outer loop
      vertex   8.539413e+001 4.528223e+002 -1.015440e+000
      vertex   8.539413e+001 4.563942e+002 -1.015440e+000
      vertex   8.525924e+001 4.528223e+002 -1.118343e+000
    endloop
  endfacet
  facet normal -2.877688e-002 0.000000e+000 3.772137e-002
    outer loop
      vertex   8.525924e+001 4.528223e+002 -1.118343e+000
      vertex   8.539413e+001 4.563942e+002 -1.015440e+000
      vertex   8.525924e+001 4.563942e+002 -1.118343e+000
    endloop
  endfacet
  facet normal -7.071244e-001 0.000000e+000 7.070892e-001
    outer loop
      vertex   8.525924e+001 4.528223e+002 -1.118343e+000
      vertex   8.525924e+001 4.563942e+002 -1.118343e+000
      vertex   8.513928e+001 4.528223e+002 -1.238306e+000
    endloop
  endfacet
  facet normal -3.354766e-002 0.000000e+000 3.354599e-002
    outer loop
      vertex   8.513928e+001 4.528223e+002 -1.238306e+000
      vertex   8.525924e+001 4.563942e+002 -1.118343e+000
      vertex   8.513928e+001 4.563942e+002 -1.238306e+000
    endloop
  endfacet
  facet normal -7.950398e-001 0.000000e+000 6.065573e-001
    outer loop
      vertex   8.513928e+001 4.528223e+002 -1.238306e+000
      vertex   8.513928e+001 4.563942e+002 -1.238306e+000
      vertex   8.503638e+001 4.528223e+002 -1.373188e+000
    endloop
  endfacet
  facet normal -3.771984e-002 0.000000e+000 2.877748e-002
    outer loop
      vertex   8.503638e+001 4.528223e+002 -1.373188e+000
      vertex   8.513928e+001 4.563942e+002 -1.238306e+000
      vertex   8.503638e+001 4.563942e+002 -1.373188e+000
    endloop
  endfacet
  facet normal -8.687962e-001 0.000000e+000 4.951697e-001
    outer loop
      vertex   8.503638e+001 4.528223e+002 -1.373188e+000
      vertex   8.503638e+001 4.563942e+002 -1.373188e+000
      vertex   8.495237e+001 4.528223e+002 -1.520582e+000
    endloop
  endfacet
  facet normal -4.121885e-002 0.000000e+000 2.349265e-002
    outer loop
      vertex   8.495237e+001 4.528223e+002 -1.520582e+000
      vertex   8.503638e+001 4.563942e+002 -1.373188e+000
      vertex   8.495237e+001 4.563942e+002 -1.520582e+000
    endloop
  endfacet
  facet normal -9.270400e-001 0.000000e+000 3.749623e-001
    outer loop
      vertex   8.495237e+001 4.528223e+002 -1.520582e+000
      vertex   8.495237e+001 4.563942e+002 -1.520582e+000
      vertex   8.488876e+001 4.528223e+002 -1.677858e+000
    endloop
  endfacet
  facet normal -4.398231e-002 0.000000e+000 1.778964e-002
    outer loop
      vertex   8.488876e+001 4.528223e+002 -1.677858e+000
      vertex   8.495237e+001 4.563942e+002 -1.520582e+000
      vertex   8.488876e+001 4.563942e+002 -1.677858e+000
    endloop
  endfacet
  facet normal -9.687564e-001 0.000000e+000 2.480142e-001
    outer loop
      vertex   8.488876e+001 4.528223e+002 -1.677858e+000
      vertex   8.488876e+001 4.563942e+002 -1.677858e+000
      vertex   8.484668e+001 4.528223e+002 -1.842210e+000
    endloop
  endfacet
  facet normal -4.596092e-002 0.000000e+000 1.176659e-002
    outer loop
      vertex   8.484668e+001 4.528223e+002 -1.842210e+000
      vertex   8.488876e+001 4.563942e+002 -1.677858e+000
      vertex   8.484668e+001 4.563942e+002 -1.842210e+000
    endloop
  endfacet
  facet normal -9.931622e-001 0.000000e+000 1.167430e-001
    outer loop
      vertex   8.484668e+001 4.528223e+002 -1.842210e+000
      vertex   8.484668e+001 4.563942e+002 -1.842210e+000
      vertex   8.482687e+001 4.528223e+002 -2.010704e+000
    endloop
  endfacet
  facet normal -1.167068e-001 0.000000e+000 9.931664e-001
    outer loop
      vertex   8.603164e+001 4.385348e+002 -8.059399e-001
      vertex   8.603164e+001 4.421067e+002 -8.059399e-001
      vertex   8.586314e+001 4.385348e+002 -8.257397e-001
    endloop
  endfacet
  facet normal -5.537026e-003 0.000000e+000 4.711971e-002
    outer loop
      vertex   8.586314e+001 4.385348e+002 -8.257397e-001
      vertex   8.603164e+001 4.421067e+002 -8.059399e-001
      vertex   8.586314e+001 4.421067e+002 -8.257397e-001
    endloop
  endfacet
  facet normal -2.477616e-001 0.000000e+000 9.676586e-001
    outer loop
      vertex   8.586314e+001 4.421067e+002 -8.257397e-001
      vertex   8.569879e+001 4.421067e+002 -8.678209e-001
      vertex   8.569879e+001 4.385348e+002 -8.678209e-001
    endloop
  endfacet
  facet normal -2.477616e-001 0.000000e+000 9.676586e-001
    outer loop
      vertex   8.569879e+001 4.385348e+002 -8.678209e-001
      vertex   8.586314e+001 4.385348e+002 -8.257397e-001
      vertex   8.586314e+001 4.421067e+002 -8.257397e-001
    endloop
  endfacet
  facet normal -3.745367e-001 3.469447e-018 9.259976e-001
    outer loop
      vertex   8.569879e+001 4.421067e+002 -8.678209e-001
      vertex   8.554152e+001 4.421067e+002 -9.314326e-001
      vertex   8.554152e+001 4.385348e+002 -9.314326e-001
    endloop
  endfacet
  facet normal -3.745367e-001 3.469447e-018 9.259976e-001
    outer loop
      vertex   8.554152e+001 4.385348e+002 -9.314326e-001
      vertex   8.569879e+001 4.385348e+002 -8.678209e-001
      vertex   8.569879e+001 4.421067e+002 -8.678209e-001
    endloop
  endfacet
  facet normal -4.946157e-001 0.000000e+000 8.678159e-001
    outer loop
      vertex   8.554152e+001 4.421067e+002 -9.314326e-001
      vertex   8.539413e+001 4.421067e+002 -1.015440e+000
      vertex   8.539413e+001 4.385348e+002 -1.015440e+000
    endloop
  endfacet
  facet normal -4.946157e-001 0.000000e+000 8.678159e-001
    outer loop
      vertex   8.539413e+001 4.385348e+002 -1.015440e+000
      vertex   8.554152e+001 4.385348e+002 -9.314326e-001
      vertex   8.554152e+001 4.421067e+002 -9.314326e-001
    endloop
  endfacet
  facet normal -6.058506e-001 0.000000e+000 7.941625e-001
    outer loop
      vertex   8.539413e+001 4.421067e+002 -1.015440e+000
      vertex   8.525924e+001 4.421067e+002 -1.118343e+000
      vertex   8.525924e+001 4.385348e+002 -1.118343e+000
    endloop
  endfacet
  facet normal -6.058506e-001 0.000000e+000 7.941625e-001
    outer loop
      vertex   8.525924e+001 4.385348e+002 -1.118343e+000
      vertex   8.539413e+001 4.385348e+002 -1.015440e+000
      vertex   8.539413e+001 4.421067e+002 -1.015440e+000
    endloop
  endfacet
  facet normal -7.063281e-001 0.000000e+000 7.062930e-001
    outer loop
      vertex   8.525924e+001 4.421067e+002 -1.118343e+000
      vertex   8.513928e+001 4.421067e+002 -1.238306e+000
      vertex   8.513928e+001 4.385348e+002 -1.238306e+000
    endloop
  endfacet
  facet normal -7.063281e-001 0.000000e+000 7.062930e-001
    outer loop
      vertex   8.513928e+001 4.385348e+002 -1.238306e+000
      vertex   8.525924e+001 4.385348e+002 -1.118343e+000
      vertex   8.525924e+001 4.421067e+002 -1.118343e+000
    endloop
  endfacet
  facet normal -7.941445e-001 3.469447e-018 6.058742e-001
    outer loop
      vertex   8.513928e+001 4.421067e+002 -1.238306e+000
      vertex   8.503638e+001 4.421067e+002 -1.373188e+000
      vertex   8.503638e+001 4.385348e+002 -1.373188e+000
    endloop
  endfacet
  facet normal -7.941445e-001 3.469447e-018 6.058742e-001
    outer loop
      vertex   8.503638e+001 4.385348e+002 -1.373188e+000
      vertex   8.513928e+001 4.385348e+002 -1.238306e+000
      vertex   8.513928e+001 4.421067e+002 -1.238306e+000
    endloop
  endfacet
  facet normal -8.678179e-001 0.000000e+000 4.946121e-001
    outer loop
      vertex   8.503638e+001 4.421067e+002 -1.373188e+000
      vertex   8.495237e+001 4.421067e+002 -1.520582e+000
      vertex   8.495237e+001 4.385348e+002 -1.520582e+000
    endloop
  endfacet
  facet normal -8.678179e-001 0.000000e+000 4.946121e-001
    outer loop
      vertex   8.495237e+001 4.385348e+002 -1.520582e+000
      vertex   8.503638e+001 4.385348e+002 -1.373188e+000
      vertex   8.503638e+001 4.421067e+002 -1.373188e+000
    endloop
  endfacet
  facet normal -9.259961e-001 0.000000e+000 3.745400e-001
    outer loop
      vertex   8.495237e+001 4.421067e+002 -1.520582e+000
      vertex   8.488876e+001 4.421067e+002 -1.677858e+000
      vertex   8.488876e+001 4.385348e+002 -1.677858e+000
    endloop
  endfacet
  facet normal -9.259961e-001 0.000000e+000 3.745400e-001
    outer loop
      vertex   8.488876e+001 4.385348e+002 -1.677858e+000
      vertex   8.495237e+001 4.385348e+002 -1.520582e+000
      vertex   8.495237e+001 4.421067e+002 -1.520582e+000
    endloop
  endfacet
  facet normal -9.676655e-001 0.000000e+000 2.477349e-001
    outer loop
      vertex   8.488876e+001 4.421067e+002 -1.677858e+000
      vertex   8.484668e+001 4.421067e+002 -1.842210e+000
      vertex   8.484668e+001 4.385348e+002 -1.842210e+000
    endloop
  endfacet
  facet normal -9.676655e-001 0.000000e+000 2.477349e-001
    outer loop
      vertex   8.484668e+001 4.385348e+002 -1.842210e+000
      vertex   8.488876e+001 4.385348e+002 -1.677858e+000
      vertex   8.488876e+001 4.421067e+002 -1.677858e+000
    endloop
  endfacet
  facet normal -9.931622e-001 0.000000e+000 1.167430e-001
    outer loop
      vertex   8.484668e+001 4.385348e+002 -1.842210e+000
      vertex   8.484668e+001 4.421067e+002 -1.842210e+000
      vertex   8.482687e+001 4.385348e+002 -2.010704e+000
    endloop
  endfacet
  facet normal -1.176801e-002 0.000000e+000 4.596119e-002
    outer loop
      vertex   8.586314e+001 4.492505e+002 -8.257397e-001
      vertex   8.586314e+001 4.528223e+002 -8.257397e-001
      vertex   8.569879e+001 4.528223e+002 -8.678209e-001
    endloop
  endfacet
  facet normal -1.176801e-002 0.000000e+000 4.596119e-002
    outer loop
      vertex   8.569879e+001 4.528223e+002 -8.678209e-001
      vertex   8.569879e+001 4.492505e+002 -8.678209e-001
      vertex   8.586314e+001 4.492505e+002 -8.257397e-001
    endloop
  endfacet
  facet normal -2.477616e-001 0.000000e+000 9.676586e-001
    outer loop
      vertex   8.569879e+001 4.349630e+002 -8.678209e-001
      vertex   8.586314e+001 4.349630e+002 -8.257397e-001
      vertex   8.586314e+001 4.385348e+002 -8.257397e-001
    endloop
  endfacet
  facet normal -1.167068e-001 0.000000e+000 9.931664e-001
    outer loop
      vertex   8.586314e+001 4.385348e+002 -8.257397e-001
      vertex   8.586314e+001 4.349630e+002 -8.257397e-001
      vertex   8.603164e+001 4.385348e+002 -8.059399e-001
    endloop
  endfacet
  facet normal -1.165753e-001 0.000000e+000 9.920480e-001
    outer loop
      vertex   8.603164e+001 4.528223e+002 -8.059399e-001
      vertex   8.586314e+001 4.528223e+002 -8.257397e-001
      vertex   8.586314e+001 4.492505e+002 -8.257397e-001
    endloop
  endfacet
  facet normal -3.745367e-001 3.469447e-018 9.259976e-001
    outer loop
      vertex   8.569879e+001 4.528223e+002 -8.678209e-001
      vertex   8.554152e+001 4.528223e+002 -9.314326e-001
      vertex   8.554152e+001 4.492505e+002 -9.314326e-001
    endloop
  endfacet
  facet normal -3.745367e-001 3.469447e-018 9.259976e-001
    outer loop
      vertex   8.554152e+001 4.492505e+002 -9.314326e-001
      vertex   8.569879e+001 4.492505e+002 -8.678209e-001
      vertex   8.569879e+001 4.528223e+002 -8.678209e-001
    endloop
  endfacet
  facet normal -4.946157e-001 0.000000e+000 8.678159e-001
    outer loop
      vertex   8.554152e+001 4.528223e+002 -9.314326e-001
      vertex   8.539413e+001 4.528223e+002 -1.015440e+000
      vertex   8.539413e+001 4.492505e+002 -1.015440e+000
    endloop
  endfacet
  facet normal -4.946157e-001 0.000000e+000 8.678159e-001
    outer loop
      vertex   8.539413e+001 4.492505e+002 -1.015440e+000
      vertex   8.554152e+001 4.492505e+002 -9.314326e-001
      vertex   8.554152e+001 4.528223e+002 -9.314326e-001
    endloop
  endfacet
  facet normal -6.058506e-001 0.000000e+000 7.941625e-001
    outer loop
      vertex   8.539413e+001 4.528223e+002 -1.015440e+000
      vertex   8.525924e+001 4.528223e+002 -1.118343e+000
      vertex   8.525924e+001 4.492505e+002 -1.118343e+000
    endloop
  endfacet
  facet normal -6.058506e-001 0.000000e+000 7.941625e-001
    outer loop
      vertex   8.525924e+001 4.492505e+002 -1.118343e+000
      vertex   8.539413e+001 4.492505e+002 -1.015440e+000
      vertex   8.539413e+001 4.528223e+002 -1.015440e+000
    endloop
  endfacet
  facet normal -7.063281e-001 0.000000e+000 7.062930e-001
    outer loop
      vertex   8.525924e+001 4.528223e+002 -1.118343e+000
      vertex   8.513928e+001 4.528223e+002 -1.238306e+000
      vertex   8.513928e+001 4.492505e+002 -1.238306e+000
    endloop
  endfacet
  facet normal -7.063281e-001 0.000000e+000 7.062930e-001
    outer loop
      vertex   8.513928e+001 4.492505e+002 -1.238306e+000
      vertex   8.525924e+001 4.492505e+002 -1.118343e+000
      vertex   8.525924e+001 4.528223e+002 -1.118343e+000
    endloop
  endfacet
  facet normal -7.941445e-001 3.469447e-018 6.058742e-001
    outer loop
      vertex   8.513928e+001 4.528223e+002 -1.238306e+000
      vertex   8.503638e+001 4.528223e+002 -1.373188e+000
      vertex   8.503638e+001 4.492505e+002 -1.373188e+000
    endloop
  endfacet
  facet normal -7.941445e-001 3.469447e-018 6.058742e-001
    outer loop
      vertex   8.503638e+001 4.492505e+002 -1.373188e+000
      vertex   8.513928e+001 4.492505e+002 -1.238306e+000
      vertex   8.513928e+001 4.528223e+002 -1.238306e+000
    endloop
  endfacet
  facet normal -8.678179e-001 0.000000e+000 4.946121e-001
    outer loop
      vertex   8.503638e+001 4.528223e+002 -1.373188e+000
      vertex   8.495237e+001 4.528223e+002 -1.520582e+000
      vertex   8.495237e+001 4.492505e+002 -1.520582e+000
    endloop
  endfacet
  facet normal -8.678179e-001 0.000000e+000 4.946121e-001
    outer loop
      vertex   8.495237e+001 4.492505e+002 -1.520582e+000
      vertex   8.503638e+001 4.492505e+002 -1.373188e+000
      vertex   8.503638e+001 4.528223e+002 -1.373188e+000
    endloop
  endfacet
  facet normal -9.259961e-001 0.000000e+000 3.745400e-001
    outer loop
      vertex   8.495237e+001 4.528223e+002 -1.520582e+000
      vertex   8.488876e+001 4.528223e+002 -1.677858e+000
      vertex   8.488876e+001 4.492505e+002 -1.677858e+000
    endloop
  endfacet
  facet normal -9.259961e-001 0.000000e+000 3.745400e-001
    outer loop
      vertex   8.488876e+001 4.492505e+002 -1.677858e+000
      vertex   8.495237e+001 4.492505e+002 -1.520582e+000
      vertex   8.495237e+001 4.528223e+002 -1.520582e+000
    endloop
  endfacet
  facet normal -9.676655e-001 0.000000e+000 2.477349e-001
    outer loop
      vertex   8.488876e+001 4.528223e+002 -1.677858e+000
      vertex   8.484668e+001 4.528223e+002 -1.842210e+000
      vertex   8.484668e+001 4.492505e+002 -1.842210e+000
    endloop
  endfacet
  facet normal -9.676655e-001 0.000000e+000 2.477349e-001
    outer loop
      vertex   8.484668e+001 4.492505e+002 -1.842210e+000
      vertex   8.488876e+001 4.492505e+002 -1.677858e+000
      vertex   8.488876e+001 4.528223e+002 -1.677858e+000
    endloop
  endfacet
  facet normal -9.931622e-001 0.000000e+000 1.167430e-001
    outer loop
      vertex   8.484668e+001 4.492505e+002 -1.842210e+000
      vertex   8.484668e+001 4.528223e+002 -1.842210e+000
      vertex   8.482687e+001 4.492505e+002 -2.010704e+000
    endloop
  endfacet
  facet normal -4.711935e-002 0.000000e+000 5.538727e-003
    outer loop
      vertex   8.482687e+001 4.492505e+002 -2.010704e+000
      vertex   8.484668e+001 4.528223e+002 -1.842210e+000
      vertex   8.482687e+001 4.528223e+002 -2.010704e+000
    endloop
  endfacet
  facet normal -3.745367e-001 3.469447e-018 9.259976e-001
    outer loop
      vertex   8.554152e+001 4.349630e+002 -9.314326e-001
      vertex   8.569879e+001 4.349630e+002 -8.678209e-001
      vertex   8.569879e+001 4.385348e+002 -8.678209e-001
    endloop
  endfacet
  facet normal -2.480409e-001 0.000000e+000 9.687496e-001
    outer loop
      vertex   8.569879e+001 4.385348e+002 -8.678209e-001
      vertex   8.569879e+001 4.349630e+002 -8.678209e-001
      vertex   8.586314e+001 4.385348e+002 -8.257397e-001
    endloop
  endfacet
  facet normal -4.946157e-001 0.000000e+000 8.678159e-001
    outer loop
      vertex   8.539413e+001 4.349630e+002 -1.015440e+000
      vertex   8.554152e+001 4.349630e+002 -9.314326e-001
      vertex   8.554152e+001 4.385348e+002 -9.314326e-001
    endloop
  endfacet
  facet normal -3.749589e-001 0.000000e+000 9.270414e-001
    outer loop
      vertex   8.554152e+001 4.385348e+002 -9.314326e-001
      vertex   8.554152e+001 4.349630e+002 -9.314326e-001
      vertex   8.569879e+001 4.385348e+002 -8.678209e-001
    endloop
  endfacet
  facet normal -6.058506e-001 0.000000e+000 7.941625e-001
    outer loop
      vertex   8.525924e+001 4.349630e+002 -1.118343e+000
      vertex   8.539413e+001 4.349630e+002 -1.015440e+000
      vertex   8.539413e+001 4.385348e+002 -1.015440e+000
    endloop
  endfacet
  facet normal -4.951733e-001 0.000000e+000 8.687943e-001
    outer loop
      vertex   8.539413e+001 4.385348e+002 -1.015440e+000
      vertex   8.539413e+001 4.349630e+002 -1.015440e+000
      vertex   8.554152e+001 4.385348e+002 -9.314326e-001
    endloop
  endfacet
  facet normal -7.063281e-001 0.000000e+000 7.062930e-001
    outer loop
      vertex   8.513928e+001 4.349630e+002 -1.238306e+000
      vertex   8.525924e+001 4.349630e+002 -1.118343e+000
      vertex   8.525924e+001 4.385348e+002 -1.118343e+000
    endloop
  endfacet
  facet normal -6.065337e-001 0.000000e+000 7.950578e-001
    outer loop
      vertex   8.525924e+001 4.385348e+002 -1.118343e+000
      vertex   8.525924e+001 4.349630e+002 -1.118343e+000
      vertex   8.539413e+001 4.385348e+002 -1.015440e+000
    endloop
  endfacet
  facet normal -7.941445e-001 3.469447e-018 6.058742e-001
    outer loop
      vertex   8.503638e+001 4.349630e+002 -1.373188e+000
      vertex   8.513928e+001 4.349630e+002 -1.238306e+000
      vertex   8.513928e+001 4.385348e+002 -1.238306e+000
    endloop
  endfacet
  facet normal -7.071244e-001 0.000000e+000 7.070892e-001
    outer loop
      vertex   8.513928e+001 4.385348e+002 -1.238306e+000
      vertex   8.513928e+001 4.349630e+002 -1.238306e+000
      vertex   8.525924e+001 4.385348e+002 -1.118343e+000
    endloop
  endfacet
  facet normal -8.678179e-001 0.000000e+000 4.946121e-001
    outer loop
      vertex   8.495237e+001 4.349630e+002 -1.520582e+000
      vertex   8.503638e+001 4.349630e+002 -1.373188e+000
      vertex   8.503638e+001 4.385348e+002 -1.373188e+000
    endloop
  endfacet
  facet normal -7.950398e-001 0.000000e+000 6.065573e-001
    outer loop
      vertex   8.503638e+001 4.385348e+002 -1.373188e+000
      vertex   8.503638e+001 4.349630e+002 -1.373188e+000
      vertex   8.513928e+001 4.385348e+002 -1.238306e+000
    endloop
  endfacet
  facet normal -9.259961e-001 0.000000e+000 3.745400e-001
    outer loop
      vertex   8.488876e+001 4.349630e+002 -1.677858e+000
      vertex   8.495237e+001 4.349630e+002 -1.520582e+000
      vertex   8.495237e+001 4.385348e+002 -1.520582e+000
    endloop
  endfacet
  facet normal -8.687962e-001 0.000000e+000 4.951697e-001
    outer loop
      vertex   8.495237e+001 4.385348e+002 -1.520582e+000
      vertex   8.495237e+001 4.349630e+002 -1.520582e+000
      vertex   8.503638e+001 4.385348e+002 -1.373188e+000
    endloop
  endfacet
  facet normal -9.676655e-001 0.000000e+000 2.477349e-001
    outer loop
      vertex   8.484668e+001 4.349630e+002 -1.842210e+000
      vertex   8.488876e+001 4.349630e+002 -1.677858e+000
      vertex   8.488876e+001 4.385348e+002 -1.677858e+000
    endloop
  endfacet
  facet normal -9.270400e-001 0.000000e+000 3.749623e-001
    outer loop
      vertex   8.488876e+001 4.385348e+002 -1.677858e+000
      vertex   8.488876e+001 4.349630e+002 -1.677858e+000
      vertex   8.495237e+001 4.385348e+002 -1.520582e+000
    endloop
  endfacet
  facet normal -9.920438e-001 0.000000e+000 1.166115e-001
    outer loop
      vertex   8.482687e+001 4.349630e+002 -2.010704e+000
      vertex   8.484668e+001 4.349630e+002 -1.842210e+000
      vertex   8.484668e+001 4.385348e+002 -1.842210e+000
    endloop
  endfacet
  facet normal -9.687564e-001 0.000000e+000 2.480142e-001
    outer loop
      vertex   8.484668e+001 4.385348e+002 -1.842210e+000
      vertex   8.484668e+001 4.349630e+002 -1.842210e+000
      vertex   8.488876e+001 4.385348e+002 -1.677858e+000
    endloop
  endfacet
  facet normal -4.711935e-002 0.000000e+000 5.538727e-003
    outer loop
      vertex   8.482687e+001 4.349630e+002 -2.010704e+000
      vertex   8.484668e+001 4.385348e+002 -1.842210e+000
      vertex   8.482687e+001 4.385348e+002 -2.010704e+000
    endloop
  endfacet
  facet normal 0.000000e+000 0.000000e+000 1.000000e+000
    outer loop
      vertex   8.990528e+001 4.599661e+002 -8.043443e-001
      vertex   8.609528e+001 4.599661e+002 -8.043443e-001
      vertex   8.990528e+001 4.536161e+002 -8.043443e-001
    endloop
  endfacet
  facet normal -2.266627e-009 -1.359974e-009 6.519833e-001
    outer loop
      vertex   8.990528e+001 4.536161e+002 -8.043443e-001
      vertex   8.609528e+001 4.599661e+002 -8.043443e-001
      vertex   8.609528e+001 4.313911e+002 -8.043444e-001
    endloop
  endfacet
  facet normal -5.874048e-010 -3.524423e-010 1.689639e-001
    outer loop
      vertex   8.990528e+001 4.536161e+002 -8.043443e-001
      vertex   8.609528e+001 4.313911e+002 -8.043444e-001
      vertex   8.990528e+001 4.250411e+002 -8.043444e-001
    endloop
  endfacet
  facet normal 0.000000e+000 0.000000e+000 8.574933e-001
    outer loop
      vertex   8.990528e+001 4.250411e+002 -8.043444e-001
      vertex   8.609528e+001 4.313911e+002 -8.043444e-001
      vertex   4.837628e+001 4.250411e+002 -8.043444e-001
    endloop
  endfacet
  facet normal 0.000000e+000 0.000000e+000 9.475097e-001
    outer loop
      vertex   4.837628e+001 4.250411e+002 -8.043444e-001
      vertex   8.609528e+001 4.313911e+002 -8.043444e-001
      vertex   4.939228e+001 4.313911e+002 -8.043444e-001
    endloop
  endfacet
  facet normal 0.000000e+000 -0.000000e+000 9.998479e-001
    outer loop
      vertex   4.837628e+001 4.250411e+002 -8.043444e-001
      vertex   4.939228e+001 4.313911e+002 -8.043444e-001
      vertex   1.268928e+001 4.313911e+002 -8.043444e-001
    endloop
  endfacet
  facet normal 0.000000e+000 0.000000e+000 1.000000e+000
    outer loop
      vertex   1.268928e+001 4.428211e+002 -8.043444e-001
      vertex   6.847281e+000 4.428211e+002 -8.043444e-001
      vertex   1.268928e+001 4.313911e+002 -8.043444e-001
    endloop
  endfacet
  facet normal 0.000000e+000 0.000000e+000 9.378049e-001
    outer loop
      vertex   1.268928e+001 4.313911e+002 -8.043444e-001
      vertex   6.847281e+000 4.428211e+002 -8.043444e-001
      vertex   6.847281e+000 4.250411e+002 -8.043444e-001
    endloop
  endfacet
  facet normal 0.000000e+000 0.000000e+000 8.431603e-001
    outer loop
      vertex   1.268928e+001 4.313911e+002 -8.043444e-001
      vertex   6.847281e+000 4.250411e+002 -8.043444e-001
      vertex   4.837628e+001 4.250411e+002 -8.043444e-001
    endloop
  endfacet
  facet normal -1.000000e+000 0.000000e+000 0.000000e+000
    outer loop
      vertex   8.482528e+001 4.313911e+002 -2.074344e+000
      vertex   8.482528e+001 4.599661e+002 -2.074344e+000
      vertex   8.482528e+001 4.313911e+002 -4.614344e+000
    endloop
  endfacet
  facet normal -8.853984e-002 0.000000e+000 0.000000e+000
    outer loop
      vertex   8.482528e+001 4.313911e+002 -4.614344e+000
      vertex   8.482528e+001 4.599661e+002 -2.074344e+000
      vertex   8.482528e+001 4.599661e+002 -4.614344e+000
    endloop
  endfacet
  facet normal 0.000000e+000 1.000000e+000 -0.000000e+000
    outer loop
      vertex   8.482528e+001 4.313911e+002 -4.614344e+000
      vertex   4.875728e+001 4.313911e+002 -4.614344e+000
      vertex   8.482528e+001 4.313911e+002 -2.074344e+000
    endloop
  endfacet
  facet normal 0.000000e+000 1.059343e-001 0.000000e+000
    outer loop
      vertex   8.482528e+001 4.313911e+002 -2.074344e+000
      vertex   4.875728e+001 4.313911e+002 -4.614344e+000
      vertex   4.939228e+001 4.313911e+002 -8.043444e-001
    endloop
  endfacet
  facet normal 0.000000e+000 9.995614e-001 -0.000000e+000
    outer loop
      vertex   8.482528e+001 4.313911e+002 -2.074344e+000
      vertex   4.939228e+001 4.313911e+002 -8.043444e-001
      vertex   8.483614e+001 4.313911e+002 -1.908576e+000
    endloop
  endfacet
  facet normal 0.000000e+000 9.863842e-001 -0.000000e+000
    outer loop
      vertex   8.483614e+001 4.313911e+002 -1.908576e+000
      vertex   4.939228e+001 4.313911e+002 -8.043444e-001
      vertex   8.486855e+001 4.313911e+002 -1.745644e+000
    endloop
  endfacet
  facet normal 0.000000e+000 9.551240e-001 -0.000000e+000
    outer loop
      vertex   8.486855e+001 4.313911e+002 -1.745644e+000
      vertex   4.939228e+001 4.313911e+002 -8.043444e-001
      vertex   8.492195e+001 4.313911e+002 -1.588336e+000
    endloop
  endfacet
  facet normal 0.000000e+000 9.064026e-001 -0.000000e+000
    outer loop
      vertex   8.492195e+001 4.313911e+002 -1.588336e+000
      vertex   4.939228e+001 4.313911e+002 -8.043444e-001
      vertex   8.499543e+001 4.313911e+002 -1.439344e+000
    endloop
  endfacet
  facet normal 0.000000e+000 8.412466e-001 -0.000000e+000
    outer loop
      vertex   8.499543e+001 4.313911e+002 -1.439344e+000
      vertex   4.939228e+001 4.313911e+002 -8.043444e-001
      vertex   8.508772e+001 4.313911e+002 -1.301217e+000
    endloop
  endfacet
  facet normal 0.000000e+000 7.609378e-001 -0.000000e+000
    outer loop
      vertex   8.508772e+001 4.313911e+002 -1.301217e+000
      vertex   4.939228e+001 4.313911e+002 -8.043444e-001
      vertex   8.519726e+001 4.313911e+002 -1.176319e+000
    endloop
  endfacet
  facet normal 0.000000e+000 6.671368e-001 -0.000000e+000
    outer loop
      vertex   8.519726e+001 4.313911e+002 -1.176319e+000
      vertex   4.939228e+001 4.313911e+002 -8.043444e-001
      vertex   8.532215e+001 4.313911e+002 -1.066786e+000
    endloop
  endfacet
  facet normal 0.000000e+000 5.616196e-001 -0.000000e+000
    outer loop
      vertex   8.532215e+001 4.313911e+002 -1.066786e+000
      vertex   4.939228e+001 4.313911e+002 -8.043444e-001
      vertex   8.546028e+001 4.313911e+002 -9.744921e-001
    endloop
  endfacet
  facet normal 0.000000e+000 4.465090e-001 -0.000000e+000
    outer loop
      vertex   8.546028e+001 4.313911e+002 -9.744921e-001
      vertex   4.939228e+001 4.313911e+002 -8.043444e-001
      vertex   8.560928e+001 4.313911e+002 -9.010173e-001
    endloop
  endfacet
  facet normal 0.000000e+000 3.239749e-001 -0.000000e+000
    outer loop
      vertex   8.560928e+001 4.313911e+002 -9.010173e-001
      vertex   4.939228e+001 4.313911e+002 -8.043444e-001
      vertex   8.576658e+001 4.313911e+002 -8.476185e-001
    endloop
  endfacet
  facet normal 0.000000e+000 1.962551e-001 -0.000000e+000
    outer loop
      vertex   8.576658e+001 4.313911e+002 -8.476185e-001
      vertex   4.939228e+001 4.313911e+002 -8.043444e-001
      vertex   8.592951e+001 4.313911e+002 -8.152094e-001
    endloop
  endfacet
  facet normal 0.000000e+000 6.569863e-002 -0.000000e+000
    outer loop
      vertex   8.592951e+001 4.313911e+002 -8.152094e-001
      vertex   4.939228e+001 4.313911e+002 -8.043444e-001
      vertex   8.609528e+001 4.313911e+002 -8.043444e-001
    endloop
  endfacet
  facet normal 0.000000e+000 1.000000e+000 0.000000e+000
    outer loop
      vertex   1.268928e+001 4.313911e+002 -4.614344e+000
      vertex   1.268928e+001 4.313911e+002 -8.043444e-001
      vertex   4.875728e+001 4.313911e+002 -4.614344e+000
    endloop
  endfacet
  facet normal 0.000000e+000 9.982063e-001 -0.000000e+000
    outer loop
      vertex   4.875728e+001 4.313911e+002 -4.614344e+000
      vertex   1.268928e+001 4.313911e+002 -8.043444e-001
      vertex   4.939228e+001 4.313911e+002 -8.043444e-001
    endloop
  endfacet
  facet normal -0.000000e+000 -1.000000e+000 -0.000000e+000
    outer loop
      vertex   8.990528e+001 4.250411e+002 -8.043444e-001
      vertex   4.837628e+001 4.250411e+002 -8.043444e-001
      vertex   8.990528e+001 4.250411e+002 -4.614344e+000
    endloop
  endfacet
  facet normal 0.000000e+000 -9.135944e-002 0.000000e+000
    outer loop
      vertex   8.990528e+001 4.250411e+002 -4.614344e+000
      vertex   4.837628e+001 4.250411e+002 -8.043444e-001
      vertex   4.837628e+001 4.250411e+002 -4.614344e+000
    endloop
  endfacet
  facet normal 0.000000e+000 -9.958180e-001 0.000000e+000
    outer loop
      vertex   4.837628e+001 4.250411e+002 -4.614344e+000
      vertex   4.837628e+001 4.250411e+002 -8.043444e-001
      vertex   6.847281e+000 4.250411e+002 -8.043444e-001
    endloop
  endfacet
  facet normal 0.000000e+000 -9.135944e-002 0.000000e+000
    outer loop
      vertex   4.837628e+001 4.250411e+002 -4.614344e+000
      vertex   6.847281e+000 4.250411e+002 -8.043444e-001
      vertex   6.847281e+000 4.250411e+002 -4.614344e+000
    endloop
  endfacet
  facet normal -1.324414e-001 0.000000e+000 -0.000000e+000
    outer loop
      vertex   6.847281e+000 4.491711e+002 4.671906e+001
      vertex   6.847281e+000 4.491711e+002 -4.614344e+000
      vertex   6.847281e+000 4.428211e+002 -8.043444e-001
    endloop
  endfacet
  facet normal -6.827446e-001 0.000000e+000 -0.000000e+000
    outer loop
      vertex   6.847281e+000 4.428211e+002 -8.043444e-001
      vertex   6.847281e+000 4.491711e+002 -4.614344e+000
      vertex   6.847281e+000 4.250411e+002 -4.614344e+000
    endloop
  endfacet
  facet normal -2.095291e-001 -0.000000e+000 0.000000e+000
    outer loop
      vertex   6.847281e+000 4.428211e+002 -8.043444e-001
      vertex   6.847281e+000 4.250411e+002 -4.614344e+000
      vertex   6.847281e+000 4.250411e+002 -8.043444e-001
    endloop
  endfacet
  facet normal -1.324414e-001 0.000000e+000 0.000000e+000
    outer loop
      vertex   6.847281e+000 4.428211e+002 -8.043444e-001
      vertex   6.847281e+000 4.428211e+002 4.671906e+001
      vertex   6.847281e+000 4.491711e+002 4.671906e+001
    endloop
  endfacet
  facet normal 1.000000e+000 -0.000000e+000 0.000000e+000
    outer loop
      vertex   1.268928e+001 4.313911e+002 -8.043444e-001
      vertex   1.268928e+001 4.313911e+002 -4.614344e+000
      vertex   1.268928e+001 4.428211e+002 -8.043444e-001
    endloop
  endfacet
  facet normal 7.592564e-001 0.000000e+000 0.000000e+000
    outer loop
      vertex   1.268928e+001 4.428211e+002 -8.043444e-001
      vertex   1.268928e+001 4.313911e+002 -4.614344e+000
      vertex   1.268928e+001 4.491711e+002 -4.614344e+000
    endloop
  endfacet
  facet normal 9.109310e-001 -0.000000e+000 0.000000e+000
    outer loop
      vertex   1.268928e+001 4.428211e+002 -8.043444e-001
      vertex   1.268928e+001 4.491711e+002 -4.614344e+000
      vertex   1.268928e+001 4.475836e+002 4.036906e+001
    endloop
  endfacet
  facet normal 2.765996e-001 -0.000000e+000 0.000000e+000
    outer loop
      vertex   1.268928e+001 4.475836e+002 4.036906e+001
      vertex   1.268928e+001 4.491711e+002 -4.614344e+000
      vertex   1.268928e+001 4.491711e+002 4.671906e+001
    endloop
  endfacet
  facet normal 2.425348e-001 0.000000e+000 0.000000e+000
    outer loop
      vertex   1.268928e+001 4.475836e+002 4.036906e+001
      vertex   1.268928e+001 4.491711e+002 4.671906e+001
      vertex   1.268928e+001 4.475836e+002 4.671906e+001
    endloop
  endfacet
  facet normal 9.933767e-001 0.000000e+000 0.000000e+000
    outer loop
      vertex   1.268928e+001 4.475836e+002 4.036906e+001
      vertex   1.268928e+001 4.444086e+002 4.036906e+001
      vertex   1.268928e+001 4.428211e+002 -8.043444e-001
    endloop
  endfacet
  facet normal 3.852767e-002 0.000000e+000 0.000000e+000
    outer loop
      vertex   1.268928e+001 4.428211e+002 -8.043444e-001
      vertex   1.268928e+001 4.444086e+002 4.036906e+001
      vertex   1.268928e+001 4.428211e+002 4.671906e+001
    endloop
  endfacet
  facet normal 9.701427e-001 -0.000000e+000 0.000000e+000
    outer loop
      vertex   1.268928e+001 4.428211e+002 4.671906e+001
      vertex   1.268928e+001 4.444086e+002 4.036906e+001
      vertex   1.268928e+001 4.444086e+002 4.671906e+001
    endloop
  endfacet
  facet normal 0.000000e+000 -1.000000e+000 0.000000e+000
    outer loop
      vertex   6.847281e+000 4.428211e+002 -8.043444e-001
      vertex   1.268928e+001 4.428211e+002 -8.043444e-001
      vertex   6.847281e+000 4.428211e+002 4.671906e+001
    endloop
  endfacet
  facet normal 0.000000e+000 -9.925288e-001 0.000000e+000
    outer loop
      vertex   6.847281e+000 4.428211e+002 4.671906e+001
      vertex   1.268928e+001 4.428211e+002 -8.043444e-001
      vertex   1.268928e+001 4.428211e+002 4.671906e+001
    endloop
  endfacet
  facet normal 0.000000e+000 1.000000e+000 -0.000000e+000
    outer loop
      vertex   1.268928e+001 4.491711e+002 -4.614344e+000
      vertex   6.847281e+000 4.491711e+002 -4.614344e+000
      vertex   1.268928e+001 4.491711e+002 4.671906e+001
    endloop
  endfacet
  facet normal 0.000000e+000 9.935864e-001 0.000000e+000
    outer loop
      vertex   1.268928e+001 4.491711e+002 4.671906e+001
      vertex   6.847281e+000 4.491711e+002 -4.614344e+000
      vertex   6.847281e+000 4.491711e+002 4.671906e+001
    endloop
  endfacet
  facet normal 0.000000e+000 1.000000e+000 0.000000e+000
    outer loop
      vertex   1.268928e+001 4.475836e+002 4.036906e+001
      vertex   1.268928e+001 4.475836e+002 4.671906e+001
      vertex   1.903928e+001 4.475836e+002 4.036906e+001
    endloop
  endfacet
  facet normal 0.000000e+000 7.071066e-001 -0.000000e+000
    outer loop
      vertex   1.903928e+001 4.475836e+002 4.036906e+001
      vertex   1.268928e+001 4.475836e+002 4.671906e+001
      vertex   1.903928e+001 4.475836e+002 4.671906e+001
    endloop
  endfacet
  facet normal 0.000000e+000 0.000000e+000 -1.000000e+000
    outer loop
      vertex   1.268928e+001 4.444086e+002 4.036906e+001
      vertex   1.268928e+001 4.475836e+002 4.036906e+001
      vertex   1.903928e+001 4.444086e+002 4.036906e+001
    endloop
  endfacet
  facet normal 0.000000e+000 0.000000e+000 -8.944260e-001
    outer loop
      vertex   1.903928e+001 4.444086e+002 4.036906e+001
      vertex   1.268928e+001 4.475836e+002 4.036906e+001
      vertex   1.903928e+001 4.475836e+002 4.036906e+001
    endloop
  endfacet
  facet normal 0.000000e+000 -1.000000e+000 0.000000e+000
    outer loop
      vertex   1.268928e+001 4.444086e+002 4.671906e+001
      vertex   1.268928e+001 4.444086e+002 4.036906e+001
      vertex   1.903928e+001 4.444086e+002 4.671906e+001
    endloop
  endfacet
  facet normal 0.000000e+000 -7.071066e-001 -0.000000e+000
    outer loop
      vertex   1.903928e+001 4.444086e+002 4.671906e+001
      vertex   1.268928e+001 4.444086e+002 4.036906e+001
      vertex   1.903928e+001 4.444086e+002 4.036906e+001
    endloop
  endfacet
  facet normal 1.000000e+000 0.000000e+000 0.000000e+000
    outer loop
      vertex   1.903928e+001 4.475836e+002 4.671906e+001
      vertex   1.903928e+001 4.444086e+002 4.671906e+001
      vertex   1.903928e+001 4.475836e+002 4.036906e+001
    endloop
  endfacet
  facet normal 8.944261e-001 0.000000e+000 0.000000e+000
    outer loop
      vertex   1.903928e+001 4.475836e+002 4.036906e+001
      vertex   1.903928e+001 4.444086e+002 4.671906e+001
      vertex   1.903928e+001 4.444086e+002 4.036906e+001
    endloop
  endfacet
  facet normal 0.000000e+000 -0.000000e+000 1.000000e+000
    outer loop
      vertex   1.268928e+001 4.428211e+002 4.671906e+001
      vertex   1.268928e+001 4.444086e+002 4.671906e+001
      vertex   6.847281e+000 4.428211e+002 4.671906e+001
    endloop
  endfacet
  facet normal 0.000000e+000 0.000000e+000 9.650058e-001
    outer loop
      vertex   6.847281e+000 4.428211e+002 4.671906e+001
      vertex   1.268928e+001 4.444086e+002 4.671906e+001
      vertex   6.847281e+000 4.491711e+002 4.671906e+001
    endloop
  endfacet
  facet normal 0.000000e+000 0.000000e+000 4.065012e-001
    outer loop
      vertex   6.847281e+000 4.491711e+002 4.671906e+001
      vertex   1.268928e+001 4.444086e+002 4.671906e+001
      vertex   1.268928e+001 4.475836e+002 4.671906e+001
    endloop
  endfacet
  facet normal -0.000000e+000 0.000000e+000 2.622288e-001
    outer loop
      vertex   6.847281e+000 4.491711e+002 4.671906e+001
      vertex   1.268928e+001 4.475836e+002 4.671906e+001
      vertex   1.268928e+001 4.491711e+002 4.671906e+001
    endloop
  endfacet
  facet normal 0.000000e+000 0.000000e+000 1.000000e+000
    outer loop
      vertex   1.268928e+001 4.444086e+002 4.671906e+001
      vertex   1.903928e+001 4.444086e+002 4.671906e+001
      vertex   1.268928e+001 4.475836e+002 4.671906e+001
    endloop
  endfacet
  facet normal -0.000000e+000 0.000000e+000 4.472159e-001
    outer loop
      vertex   1.268928e+001 4.475836e+002 4.671906e+001
      vertex   1.903928e+001 4.444086e+002 4.671906e+001
      vertex   1.903928e+001 4.475836e+002 4.671906e+001
    endloop
  endfacet
  facet normal 1.000000e+000 0.000000e+000 0.000000e+000
    outer loop
      vertex   8.990528e+001 4.536161e+002 -8.043443e-001
      vertex   8.990528e+001 4.250411e+002 -8.043444e-001
      vertex   8.990528e+001 4.536161e+002 -4.614344e+000
    endloop
  endfacet
  facet normal 1.321638e-001 0.000000e+000 0.000000e+000
    outer loop
      vertex   8.990528e+001 4.536161e+002 -4.614344e+000
      vertex   8.990528e+001 4.250411e+002 -8.043444e-001
      vertex   8.990528e+001 4.250411e+002 -4.614344e+000
    endloop
  endfacet
  facet normal -9.992575e-001 0.000000e+000 0.000000e+000
    outer loop
      vertex   8.990528e+001 4.536161e+002 -8.043443e-001
      vertex   8.990528e+001 4.552036e+002 4.036906e+001
      vertex   8.990528e+001 4.599661e+002 -8.043443e-001
    endloop
  endfacet
  facet normal -7.654499e-002 0.000000e+000 0.000000e+000
    outer loop
      vertex   8.990528e+001 4.599661e+002 -8.043443e-001
      vertex   8.990528e+001 4.552036e+002 4.036906e+001
      vertex   8.990528e+001 4.583786e+002 4.036906e+001
    endloop
  endfacet
  facet normal -3.852767e-002 0.000000e+000 0.000000e+000
    outer loop
      vertex   8.990528e+001 4.599661e+002 -8.043443e-001
      vertex   8.990528e+001 4.583786e+002 4.036906e+001
      vertex   8.990528e+001 4.599661e+002 4.671906e+001
    endloop
  endfacet
  facet normal -9.701427e-001 -0.000000e+000 0.000000e+000
    outer loop
      vertex   8.990528e+001 4.599661e+002 4.671906e+001
      vertex   8.990528e+001 4.583786e+002 4.036906e+001
      vertex   8.990528e+001 4.583786e+002 4.671906e+001
    endloop
  endfacet
  facet normal -3.852841e-002 0.000000e+000 0.000000e+000
    outer loop
      vertex   8.990528e+001 4.536161e+002 -8.043443e-001
      vertex   8.990528e+001 4.536161e+002 4.671906e+001
      vertex   8.990528e+001 4.552036e+002 4.036906e+001
    endloop
  endfacet
  facet normal -2.425392e-001 0.000000e+000 0.000000e+000
    outer loop
      vertex   8.990528e+001 4.552036e+002 4.036906e+001
      vertex   8.990528e+001 4.536161e+002 4.671906e+001
      vertex   8.990528e+001 4.552036e+002 4.671906e+001
    endloop
  endfacet
  facet normal 1.000000e+000 0.000000e+000 0.000000e+000
    outer loop
      vertex   9.574728e+001 4.536161e+002 -4.614344e+000
      vertex   9.574728e+001 4.599661e+002 -4.614344e+000
      vertex   9.574728e+001 4.536161e+002 4.671906e+001
    endloop
  endfacet
  facet normal 9.924357e-001 -0.000000e+000 0.000000e+000
    outer loop
      vertex   9.574728e+001 4.536161e+002 4.671906e+001
      vertex   9.574728e+001 4.599661e+002 -4.614344e+000
      vertex   9.574728e+001 4.599661e+002 4.671906e+001
    endloop
  endfacet
  facet normal 0.000000e+000 0.000000e+000 -1.000000e+000
    outer loop
      vertex   9.574728e+001 4.536161e+002 -4.614344e+000
      vertex   8.990528e+001 4.536161e+002 -4.614344e+000
      vertex   9.574728e+001 4.599661e+002 -4.614344e+000
    endloop
  endfacet
  facet normal -0.000000e+000 0.000000e+000 -7.359312e-001
    outer loop
      vertex   9.574728e+001 4.599661e+002 -4.614344e+000
      vertex   8.990528e+001 4.536161e+002 -4.614344e+000
      vertex   8.482528e+001 4.599661e+002 -4.614344e+000
    endloop
  endfacet
  facet normal 0.000000e+000 0.000000e+000 -6.246948e-001
    outer loop
      vertex   8.482528e+001 4.599661e+002 -4.614344e+000
      vertex   8.990528e+001 4.536161e+002 -4.614344e+000
      vertex   8.482528e+001 4.313911e+002 -4.614344e+000
    endloop
  endfacet
  facet normal 0.000000e+000 0.000000e+000 -7.829862e-001
    outer loop
      vertex   8.482528e+001 4.313911e+002 -4.614344e+000
      vertex   8.990528e+001 4.536161e+002 -4.614344e+000
      vertex   8.990528e+001 4.250411e+002 -4.614344e+000
    endloop
  endfacet
  facet normal 0.000000e+000 -0.000000e+000 -8.764989e-001
    outer loop
      vertex   8.482528e+001 4.313911e+002 -4.614344e+000
      vertex   8.990528e+001 4.250411e+002 -4.614344e+000
      vertex   4.837628e+001 4.250411e+002 -4.614344e+000
    endloop
  endfacet
  facet normal 0.000000e+000 0.000000e+000 -7.359313e-001
    outer loop
      vertex   6.847281e+000 4.250411e+002 -4.614344e+000
      vertex   1.268928e+001 4.313911e+002 -4.614344e+000
      vertex   4.837628e+001 4.250411e+002 -4.614344e+000
    endloop
  endfacet
  facet normal 0.000000e+000 0.000000e+000 -9.932604e-001
    outer loop
      vertex   4.837628e+001 4.250411e+002 -4.614344e+000
      vertex   1.268928e+001 4.313911e+002 -4.614344e+000
      vertex   4.875728e+001 4.313911e+002 -4.614344e+000
    endloop
  endfacet
  facet normal 0.000000e+000 0.000000e+000 -9.731134e-001
    outer loop
      vertex   4.837628e+001 4.250411e+002 -4.614344e+000
      vertex   4.875728e+001 4.313911e+002 -4.614344e+000
      vertex   8.482528e+001 4.313911e+002 -4.614344e+000
    endloop
  endfacet
  facet normal 0.000000e+000 0.000000e+000 -6.770562e-001
    outer loop
      vertex   6.847281e+000 4.250411e+002 -4.614344e+000
      vertex   6.847281e+000 4.491711e+002 -4.614344e+000
      vertex   1.268928e+001 4.313911e+002 -4.614344e+000
    endloop
  endfacet
  facet normal 0.000000e+000 0.000000e+000 -3.121533e-001
    outer loop
      vertex   1.268928e+001 4.313911e+002 -4.614344e+000
      vertex   6.847281e+000 4.491711e+002 -4.614344e+000
      vertex   1.268928e+001 4.491711e+002 -4.614344e+000
    endloop
  endfacet
  facet normal -0.000000e+000 -0.000000e+000 -1.000000e+000
    outer loop
      vertex   8.990528e+001 4.583786e+002 4.036906e+001
      vertex   8.990528e+001 4.552036e+002 4.036906e+001
      vertex   8.355527e+001 4.583786e+002 4.036906e+001
    endloop
  endfacet
  facet normal 0.000000e+000 0.000000e+000 -8.944281e-001
    outer loop
      vertex   8.355527e+001 4.583786e+002 4.036906e+001
      vertex   8.990528e+001 4.552036e+002 4.036906e+001
      vertex   8.355527e+001 4.552036e+002 4.036906e+001
    endloop
  endfacet
  facet normal 0.000000e+000 1.000000e+000 0.000000e+000
    outer loop
      vertex   8.990528e+001 4.583786e+002 4.671906e+001
      vertex   8.990528e+001 4.583786e+002 4.036906e+001
      vertex   8.355527e+001 4.583786e+002 4.671906e+001
    endloop
  endfacet
  facet normal 0.000000e+000 7.071072e-001 0.000000e+000
    outer loop
      vertex   8.355527e+001 4.583786e+002 4.671906e+001
      vertex   8.990528e+001 4.583786e+002 4.036906e+001
      vertex   8.355527e+001 4.583786e+002 4.036906e+001
    endloop
  endfacet
  facet normal 0.000000e+000 -1.000000e+000 0.000000e+000
    outer loop
      vertex   8.990528e+001 4.552036e+002 4.036906e+001
      vertex   8.990528e+001 4.552036e+002 4.671906e+001
      vertex   8.355527e+001 4.552036e+002 4.036906e+001
    endloop
  endfacet
  facet normal 0.000000e+000 -7.071072e-001 0.000000e+000
    outer loop
      vertex   8.355527e+001 4.552036e+002 4.036906e+001
      vertex   8.990528e+001 4.552036e+002 4.671906e+001
      vertex   8.355527e+001 4.552036e+002 4.671906e+001
    endloop
  endfacet
  facet normal -1.000000e+000 0.000000e+000 0.000000e+000
    outer loop
      vertex   8.355527e+001 4.552036e+002 4.671906e+001
      vertex   8.355527e+001 4.583786e+002 4.671906e+001
      vertex   8.355527e+001 4.552036e+002 4.036906e+001
    endloop
  endfacet
  facet normal -8.944278e-001 0.000000e+000 0.000000e+000
    outer loop
      vertex   8.355527e+001 4.552036e+002 4.036906e+001
      vertex   8.355527e+001 4.583786e+002 4.671906e+001
      vertex   8.355527e+001 4.583786e+002 4.036906e+001
    endloop
  endfacet
  facet normal -0.000000e+000 0.000000e+000 1.000000e+000
    outer loop
      vertex   8.990528e+001 4.599661e+002 4.671906e+001
      vertex   8.990528e+001 4.583786e+002 4.671906e+001
      vertex   9.574728e+001 4.599661e+002 4.671906e+001
    endloop
  endfacet
  facet normal 0.000000e+000 0.000000e+000 4.064983e-001
    outer loop
      vertex   9.574728e+001 4.599661e+002 4.671906e+001
      vertex   8.990528e+001 4.583786e+002 4.671906e+001
      vertex   8.990528e+001 4.552036e+002 4.671906e+001
    endloop
  endfacet
  facet normal 0.000000e+000 0.000000e+000 7.750835e-001
    outer loop
      vertex   9.574728e+001 4.599661e+002 4.671906e+001
      vertex   8.990528e+001 4.552036e+002 4.671906e+001
      vertex   9.574728e+001 4.536161e+002 4.671906e+001
    endloop
  endfacet
  facet normal 0.000000e+000 0.000000e+000 2.622334e-001
    outer loop
      vertex   9.574728e+001 4.536161e+002 4.671906e+001
      vertex   8.990528e+001 4.552036e+002 4.671906e+001
      vertex   8.990528e+001 4.536161e+002 4.671906e+001
    endloop
  endfacet
  facet normal 0.000000e+000 0.000000e+000 1.000000e+000
    outer loop
      vertex   8.990528e+001 4.583786e+002 4.671906e+001
      vertex   8.355527e+001 4.583786e+002 4.671906e+001
      vertex   8.990528e+001 4.552036e+002 4.671906e+001
    endloop
  endfacet
  facet normal 0.000000e+000 0.000000e+000 4.472119e-001
    outer loop
      vertex   8.990528e+001 4.552036e+002 4.671906e+001
      vertex   8.355527e+001 4.583786e+002 4.671906e+001
      vertex   8.355527e+001 4.552036e+002 4.671906e+001
    endloop
  endfacet
  facet normal -0.000000e+000 5.000058e-001 0.000000e+000
    outer loop
      vertex   8.483614e+001 4.599661e+002 -1.908576e+000
      vertex   8.546028e+001 4.599661e+002 -9.744921e-001
      vertex   8.482528e+001 4.599661e+002 -2.074344e+000
    endloop
  endfacet
  facet normal 0.000000e+000 6.540434e-002 0.000000e+000
    outer loop
      vertex   8.482528e+001 4.599661e+002 -2.074344e+000
      vertex   8.546028e+001 4.599661e+002 -9.744921e-001
      vertex   8.560928e+001 4.599661e+002 -9.010173e-001
    endloop
  endfacet
  facet normal 0.000000e+000 6.540029e-002 0.000000e+000
    outer loop
      vertex   8.482528e+001 4.599661e+002 -2.074344e+000
      vertex   8.560928e+001 4.599661e+002 -9.010173e-001
      vertex   8.576658e+001 4.599661e+002 -8.476185e-001
    endloop
  endfacet
  facet normal -0.000000e+000 1.305194e-001 0.000000e+000
    outer loop
      vertex   8.486855e+001 4.599661e+002 -1.745644e+000
      vertex   8.492195e+001 4.599661e+002 -1.588336e+000
      vertex   8.483614e+001 4.599661e+002 -1.908576e+000
    endloop
  endfacet
  facet normal 0.000000e+000 6.541084e-002 0.000000e+000
    outer loop
      vertex   8.483614e+001 4.599661e+002 -1.908576e+000
      vertex   8.492195e+001 4.599661e+002 -1.588336e+000
      vertex   8.499543e+001 4.599661e+002 -1.439344e+000
    endloop
  endfacet
  facet normal 0.000000e+000 6.540022e-002 0.000000e+000
    outer loop
      vertex   8.483614e+001 4.599661e+002 -1.908576e+000
      vertex   8.499543e+001 4.599661e+002 -1.439344e+000
      vertex   8.508772e+001 4.599661e+002 -1.301217e+000
    endloop
  endfacet
  facet normal -0.000000e+000 3.214445e-001 0.000000e+000
    outer loop
      vertex   8.508772e+001 4.599661e+002 -1.301217e+000
      vertex   8.519726e+001 4.599661e+002 -1.176319e+000
      vertex   8.483614e+001 4.599661e+002 -1.908576e+000
    endloop
  endfacet
  facet normal 0.000000e+000 6.539723e-002 0.000000e+000
    outer loop
      vertex   8.483614e+001 4.599661e+002 -1.908576e+000
      vertex   8.519726e+001 4.599661e+002 -1.176319e+000
      vertex   8.532215e+001 4.599661e+002 -1.066786e+000
    endloop
  endfacet
  facet normal 0.000000e+000 6.540553e-002 0.000000e+000
    outer loop
      vertex   8.483614e+001 4.599661e+002 -1.908576e+000
      vertex   8.532215e+001 4.599661e+002 -1.066786e+000
      vertex   8.546028e+001 4.599661e+002 -9.744921e-001
    endloop
  endfacet
  facet normal -0.000000e+000 6.593474e-001 0.000000e+000
    outer loop
      vertex   8.576658e+001 4.599661e+002 -8.476185e-001
      vertex   8.592951e+001 4.599661e+002 -8.152094e-001
      vertex   8.482528e+001 4.599661e+002 -2.074344e+000
    endloop
  endfacet
  facet normal 0.000000e+000 5.694766e-001 0.000000e+000
    outer loop
      vertex   8.482528e+001 4.599661e+002 -2.074344e+000
      vertex   8.592951e+001 4.599661e+002 -8.152094e-001
      vertex   8.990528e+001 4.599661e+002 -8.043443e-001
    endloop
  endfacet
  facet normal -0.000000e+000 4.559819e-001 0.000000e+000
    outer loop
      vertex   8.482528e+001 4.599661e+002 -2.074344e+000
      vertex   8.990528e+001 4.599661e+002 -8.043443e-001
      vertex   9.574728e+001 4.599661e+002 -4.614344e+000
    endloop
  endfacet
  facet normal 0.000000e+000 8.376107e-001 -0.000000e+000
    outer loop
      vertex   9.574728e+001 4.599661e+002 -4.614344e+000
      vertex   8.990528e+001 4.599661e+002 -8.043443e-001
      vertex   9.574728e+001 4.599661e+002 4.671906e+001
    endloop
  endfacet
  facet normal 0.000000e+000 9.925288e-001 0.000000e+000
    outer loop
      vertex   9.574728e+001 4.599661e+002 4.671906e+001
      vertex   8.990528e+001 4.599661e+002 -8.043443e-001
      vertex   8.990528e+001 4.599661e+002 4.671906e+001
    endloop
  endfacet
  facet normal 0.000000e+000 6.267505e-002 0.000000e+000
    outer loop
      vertex   8.592951e+001 4.599661e+002 -8.152094e-001
      vertex   8.609528e+001 4.599661e+002 -8.043443e-001
      vertex   8.990528e+001 4.599661e+002 -8.043443e-001
    endloop
  endfacet
  facet normal 0.000000e+000 2.265134e-001 0.000000e+000
    outer loop
      vertex   9.574728e+001 4.599661e+002 -4.614344e+000
      vertex   8.482528e+001 4.599661e+002 -4.614344e+000
      vertex   8.482528e+001 4.599661e+002 -2.074344e+000
    endloop
  endfacet
  facet normal 0.000000e+000 -1.000000e+000 0.000000e+000
    outer loop
      vertex   8.990528e+001 4.536161e+002 -4.614344e+000
      vertex   9.574728e+001 4.536161e+002 -4.614344e+000
      vertex   8.990528e+001 4.536161e+002 -8.043443e-001
    endloop
  endfacet
  facet normal 0.000000e+000 -8.980032e-001 0.000000e+000
    outer loop
      vertex   8.990528e+001 4.536161e+002 -8.043443e-001
      vertex   9.574728e+001 4.536161e+002 -4.614344e+000
      vertex   9.574728e+001 4.536161e+002 4.671906e+001
    endloop
  endfacet
  facet normal 0.000000e+000 -1.220106e-001 0.000000e+000
    outer loop
      vertex   8.990528e+001 4.536161e+002 -8.043443e-001
      vertex   9.574728e+001 4.536161e+002 4.671906e+001
      vertex   8.990528e+001 4.536161e+002 4.671906e+001
    endloop
  endfacet
endsolid
