solid ascii
  facet normal 0.000000e+000 -0.000000e+000 1.000000e+000
    outer loop
      vertex   1.268928e+001 4.428211e+002 4.671906e+001
      vertex   1.268928e+001 4.444086e+002 4.671906e+001
      vertex   6.847281e+000 4.428211e+002 4.671906e+001
    endloop
  endfacet
  facet normal 0.000000e+000 0.000000e+000 9.650058e-001
    outer loop
      vertex   6.847281e+000 4.428211e+002 4.671906e+001
      vertex   1.268928e+001 4.444086e+002 4.671906e+001
      vertex   6.847281e+000 4.491711e+002 4.671906e+001
    endloop
  endfacet
  facet normal 0.000000e+000 0.000000e+000 4.065012e-001
    outer loop
      vertex   6.847281e+000 4.491711e+002 4.671906e+001
      vertex   1.268928e+001 4.444086e+002 4.671906e+001
      vertex   1.268928e+001 4.475836e+002 4.671906e+001
    endloop
  endfacet
  facet normal -0.000000e+000 0.000000e+000 2.622288e-001
    outer loop
      vertex   6.847281e+000 4.491711e+002 4.671906e+001
      vertex   1.268928e+001 4.475836e+002 4.671906e+001
      vertex   1.268928e+001 4.491711e+002 4.671906e+001
    endloop
  endfacet
  facet normal 0.000000e+000 0.000000e+000 1.000000e+000
    outer loop
      vertex   1.268928e+001 4.444086e+002 4.671906e+001
      vertex   1.903928e+001 4.444086e+002 4.671906e+001
      vertex   1.268928e+001 4.475836e+002 4.671906e+001
    endloop
  endfacet
  facet normal -0.000000e+000 0.000000e+000 4.472159e-001
    outer loop
      vertex   1.268928e+001 4.475836e+002 4.671906e+001
      vertex   1.903928e+001 4.444086e+002 4.671906e+001
      vertex   1.903928e+001 4.475836e+002 4.671906e+001
    endloop
  endfacet
  facet normal 1.000000e+000 0.000000e+000 0.000000e+000
    outer loop
      vertex   1.903928e+001 4.475836e+002 4.671906e+001
      vertex   1.903928e+001 4.444086e+002 4.671906e+001
      vertex   1.903928e+001 4.475836e+002 4.036906e+001
    endloop
  endfacet
  facet normal 8.944261e-001 0.000000e+000 0.000000e+000
    outer loop
      vertex   1.903928e+001 4.475836e+002 4.036906e+001
      vertex   1.903928e+001 4.444086e+002 4.671906e+001
      vertex   1.903928e+001 4.444086e+002 4.036906e+001
    endloop
  endfacet
  facet normal 0.000000e+000 -1.000000e+000 0.000000e+000
    outer loop
      vertex   1.268928e+001 4.444086e+002 4.671906e+001
      vertex   1.268928e+001 4.444086e+002 4.036906e+001
      vertex   1.903928e+001 4.444086e+002 4.671906e+001
    endloop
  endfacet
  facet normal 0.000000e+000 -7.071066e-001 -0.000000e+000
    outer loop
      vertex   1.903928e+001 4.444086e+002 4.671906e+001
      vertex   1.268928e+001 4.444086e+002 4.036906e+001
      vertex   1.903928e+001 4.444086e+002 4.036906e+001
    endloop
  endfacet
  facet normal 0.000000e+000 0.000000e+000 -1.000000e+000
    outer loop
      vertex   1.268928e+001 4.444086e+002 4.036906e+001
      vertex   1.268928e+001 4.475836e+002 4.036906e+001
      vertex   1.903928e+001 4.444086e+002 4.036906e+001
    endloop
  endfacet
  facet normal 0.000000e+000 0.000000e+000 -8.944260e-001
    outer loop
      vertex   1.903928e+001 4.444086e+002 4.036906e+001
      vertex   1.268928e+001 4.475836e+002 4.036906e+001
      vertex   1.903928e+001 4.475836e+002 4.036906e+001
    endloop
  endfacet
  facet normal 0.000000e+000 1.000000e+000 0.000000e+000
    outer loop
      vertex   1.268928e+001 4.475836e+002 4.036906e+001
      vertex   1.268928e+001 4.475836e+002 4.671906e+001
      vertex   1.903928e+001 4.475836e+002 4.036906e+001
    endloop
  endfacet
  facet normal 0.000000e+000 7.071066e-001 -0.000000e+000
    outer loop
      vertex   1.903928e+001 4.475836e+002 4.036906e+001
      vertex   1.268928e+001 4.475836e+002 4.671906e+001
      vertex   1.903928e+001 4.475836e+002 4.671906e+001
    endloop
  endfacet
  facet normal 0.000000e+000 1.000000e+000 -0.000000e+000
    outer loop
      vertex   1.268928e+001 4.491711e+002 -4.614344e+000
      vertex   6.847281e+000 4.491711e+002 -4.614344e+000
      vertex   1.268928e+001 4.491711e+002 4.671906e+001
    endloop
  endfacet
  facet normal 0.000000e+000 9.935864e-001 0.000000e+000
    outer loop
      vertex   1.268928e+001 4.491711e+002 4.671906e+001
      vertex   6.847281e+000 4.491711e+002 -4.614344e+000
      vertex   6.847281e+000 4.491711e+002 4.671906e+001
    endloop
  endfacet
  facet normal 0.000000e+000 -1.000000e+000 0.000000e+000
    outer loop
      vertex   6.847281e+000 4.428211e+002 -8.043444e-001
      vertex   1.268928e+001 4.428211e+002 -8.043444e-001
      vertex   6.847281e+000 4.428211e+002 4.671906e+001
    endloop
  endfacet
  facet normal 0.000000e+000 -9.925288e-001 0.000000e+000
    outer loop
      vertex   6.847281e+000 4.428211e+002 4.671906e+001
      vertex   1.268928e+001 4.428211e+002 -8.043444e-001
      vertex   1.268928e+001 4.428211e+002 4.671906e+001
    endloop
  endfacet
  facet normal 1.000000e+000 -0.000000e+000 0.000000e+000
    outer loop
      vertex   1.268928e+001 4.313911e+002 -8.043444e-001
      vertex   1.268928e+001 4.313911e+002 -4.614344e+000
      vertex   1.268928e+001 4.428211e+002 -8.043444e-001
    endloop
  endfacet
  facet normal 7.592564e-001 0.000000e+000 0.000000e+000
    outer loop
      vertex   1.268928e+001 4.428211e+002 -8.043444e-001
      vertex   1.268928e+001 4.313911e+002 -4.614344e+000
      vertex   1.268928e+001 4.491711e+002 -4.614344e+000
    endloop
  endfacet
  facet normal 9.109310e-001 -0.000000e+000 0.000000e+000
    outer loop
      vertex   1.268928e+001 4.428211e+002 -8.043444e-001
      vertex   1.268928e+001 4.491711e+002 -4.614344e+000
      vertex   1.268928e+001 4.475836e+002 4.036906e+001
    endloop
  endfacet
  facet normal 2.765996e-001 -0.000000e+000 0.000000e+000
    outer loop
      vertex   1.268928e+001 4.475836e+002 4.036906e+001
      vertex   1.268928e+001 4.491711e+002 -4.614344e+000
      vertex   1.268928e+001 4.491711e+002 4.671906e+001
    endloop
  endfacet
  facet normal 2.425348e-001 0.000000e+000 0.000000e+000
    outer loop
      vertex   1.268928e+001 4.475836e+002 4.036906e+001
      vertex   1.268928e+001 4.491711e+002 4.671906e+001
      vertex   1.268928e+001 4.475836e+002 4.671906e+001
    endloop
  endfacet
  facet normal 9.933767e-001 0.000000e+000 0.000000e+000
    outer loop
      vertex   1.268928e+001 4.475836e+002 4.036906e+001
      vertex   1.268928e+001 4.444086e+002 4.036906e+001
      vertex   1.268928e+001 4.428211e+002 -8.043444e-001
    endloop
  endfacet
  facet normal 3.852767e-002 0.000000e+000 0.000000e+000
    outer loop
      vertex   1.268928e+001 4.428211e+002 -8.043444e-001
      vertex   1.268928e+001 4.444086e+002 4.036906e+001
      vertex   1.268928e+001 4.428211e+002 4.671906e+001
    endloop
  endfacet
  facet normal 9.701427e-001 -0.000000e+000 0.000000e+000
    outer loop
      vertex   1.268928e+001 4.428211e+002 4.671906e+001
      vertex   1.268928e+001 4.444086e+002 4.036906e+001
      vertex   1.268928e+001 4.444086e+002 4.671906e+001
    endloop
  endfacet
  facet normal -1.324414e-001 0.000000e+000 -0.000000e+000
    outer loop
      vertex   6.847281e+000 4.491711e+002 4.671906e+001
      vertex   6.847281e+000 4.491711e+002 -4.614344e+000
      vertex   6.847281e+000 4.428211e+002 -8.043444e-001
    endloop
  endfacet
  facet normal -6.827446e-001 0.000000e+000 -0.000000e+000
    outer loop
      vertex   6.847281e+000 4.428211e+002 -8.043444e-001
      vertex   6.847281e+000 4.491711e+002 -4.614344e+000
      vertex   6.847281e+000 4.250411e+002 -4.614344e+000
    endloop
  endfacet
  facet normal -2.095291e-001 -0.000000e+000 0.000000e+000
    outer loop
      vertex   6.847281e+000 4.428211e+002 -8.043444e-001
      vertex   6.847281e+000 4.250411e+002 -4.614344e+000
      vertex   6.847281e+000 4.250411e+002 -8.043444e-001
    endloop
  endfacet
  facet normal -1.324414e-001 0.000000e+000 0.000000e+000
    outer loop
      vertex   6.847281e+000 4.428211e+002 -8.043444e-001
      vertex   6.847281e+000 4.428211e+002 4.671906e+001
      vertex   6.847281e+000 4.491711e+002 4.671906e+001
    endloop
  endfacet
  facet normal -0.000000e+000 -1.000000e+000 -0.000000e+000
    outer loop
      vertex   9.574728e+001 4.250411e+002 -8.043444e-001
      vertex   5.129728e+001 4.250411e+002 -8.043444e-001
      vertex   9.574728e+001 4.250411e+002 -4.614344e+000
    endloop
  endfacet
  facet normal 0.000000e+000 -8.540113e-002 0.000000e+000
    outer loop
      vertex   9.574728e+001 4.250411e+002 -4.614344e+000
      vertex   5.129728e+001 4.250411e+002 -8.043444e-001
      vertex   5.129728e+001 4.250411e+002 -4.614344e+000
    endloop
  endfacet
  facet normal 0.000000e+000 -9.963467e-001 0.000000e+000
    outer loop
      vertex   5.129728e+001 4.250411e+002 -4.614344e+000
      vertex   5.129728e+001 4.250411e+002 -8.043444e-001
      vertex   6.847281e+000 4.250411e+002 -8.043444e-001
    endloop
  endfacet
  facet normal 0.000000e+000 -8.540114e-002 0.000000e+000
    outer loop
      vertex   5.129728e+001 4.250411e+002 -4.614344e+000
      vertex   6.847281e+000 4.250411e+002 -8.043444e-001
      vertex   6.847281e+000 4.250411e+002 -4.614344e+000
    endloop
  endfacet
  facet normal -0.000000e+000 1.000000e+000 0.000000e+000
    outer loop
      vertex   1.268928e+001 4.313911e+002 -8.043444e-001
      vertex   5.129728e+001 4.313911e+002 -8.043444e-001
      vertex   1.268928e+001 4.313911e+002 -4.614344e+000
    endloop
  endfacet
  facet normal 0.000000e+000 9.820717e-002 0.000000e+000
    outer loop
      vertex   1.268928e+001 4.313911e+002 -4.614344e+000
      vertex   5.129728e+001 4.313911e+002 -8.043444e-001
      vertex   5.129728e+001 4.313911e+002 -4.614344e+000
    endloop
  endfacet
  facet normal 0.000000e+000 9.951660e-001 0.000000e+000
    outer loop
      vertex   5.129728e+001 4.313911e+002 -4.614344e+000
      vertex   5.129728e+001 4.313911e+002 -8.043444e-001
      vertex   8.990528e+001 4.313911e+002 -8.043444e-001
    endloop
  endfacet
  facet normal 0.000000e+000 9.820716e-002 0.000000e+000
    outer loop
      vertex   5.129728e+001 4.313911e+002 -4.614344e+000
      vertex   8.990528e+001 4.313911e+002 -8.043444e-001
      vertex   8.990528e+001 4.313911e+002 -4.614344e+000
    endloop
  endfacet
  facet normal 0.000000e+000 0.000000e+000 -1.000000e+000
    outer loop
      vertex   8.990528e+001 4.599661e+002 -4.614344e+000
      vertex   9.574728e+001 4.599661e+002 -4.614344e+000
      vertex   8.990528e+001 4.313911e+002 -4.614344e+000
    endloop
  endfacet
  facet normal 0.000000e+000 0.000000e+000 -8.107435e-001
    outer loop
      vertex   8.990528e+001 4.313911e+002 -4.614344e+000
      vertex   9.574728e+001 4.599661e+002 -4.614344e+000
      vertex   9.574728e+001 4.250411e+002 -4.614344e+000
    endloop
  endfacet
  facet normal 0.000000e+000 -0.000000e+000 -8.360564e-001
    outer loop
      vertex   8.990528e+001 4.313911e+002 -4.614344e+000
      vertex   9.574728e+001 4.250411e+002 -4.614344e+000
      vertex   5.129728e+001 4.250411e+002 -4.614344e+000
    endloop
  endfacet
  facet normal 0.000000e+000 0.000000e+000 -7.359313e-001
    outer loop
      vertex   6.847281e+000 4.250411e+002 -4.614344e+000
      vertex   1.268928e+001 4.313911e+002 -4.614344e+000
      vertex   5.129728e+001 4.250411e+002 -4.614344e+000
    endloop
  endfacet
  facet normal 0.000000e+000 0.000000e+000 -9.867426e-001
    outer loop
      vertex   5.129728e+001 4.250411e+002 -4.614344e+000
      vertex   1.268928e+001 4.313911e+002 -4.614344e+000
      vertex   5.129728e+001 4.313911e+002 -4.614344e+000
    endloop
  endfacet
  facet normal 0.000000e+000 0.000000e+000 -9.867426e-001
    outer loop
      vertex   5.129728e+001 4.250411e+002 -4.614344e+000
      vertex   5.129728e+001 4.313911e+002 -4.614344e+000
      vertex   8.990528e+001 4.313911e+002 -4.614344e+000
    endloop
  endfacet
  facet normal 0.000000e+000 0.000000e+000 -6.770562e-001
    outer loop
      vertex   6.847281e+000 4.250411e+002 -4.614344e+000
      vertex   6.847281e+000 4.491711e+002 -4.614344e+000
      vertex   1.268928e+001 4.313911e+002 -4.614344e+000
    endloop
  endfacet
  facet normal 0.000000e+000 0.000000e+000 -3.121533e-001
    outer loop
      vertex   1.268928e+001 4.313911e+002 -4.614344e+000
      vertex   6.847281e+000 4.491711e+002 -4.614344e+000
      vertex   1.268928e+001 4.491711e+002 -4.614344e+000
    endloop
  endfacet
  facet normal -1.000000e+000 0.000000e+000 0.000000e+000
    outer loop
      vertex   8.990528e+001 4.313911e+002 -8.043444e-001
      vertex   8.990528e+001 4.536161e+002 -8.043444e-001
      vertex   8.990528e+001 4.313911e+002 -4.614344e+000
    endloop
  endfacet
  facet normal -1.689640e-001 0.000000e+000 0.000000e+000
    outer loop
      vertex   8.990528e+001 4.313911e+002 -4.614344e+000
      vertex   8.990528e+001 4.536161e+002 -8.043444e-001
      vertex   8.990528e+001 4.599661e+002 -4.614344e+000
    endloop
  endfacet
  facet normal -8.388141e-001 0.000000e+000 0.000000e+000
    outer loop
      vertex   8.990528e+001 4.599661e+002 -4.614344e+000
      vertex   8.990528e+001 4.536161e+002 -8.043444e-001
      vertex   8.990528e+001 4.583786e+002 4.036906e+001
    endloop
  endfacet
  facet normal -3.526870e-002 0.000000e+000 0.000000e+000
    outer loop
      vertex   8.990528e+001 4.599661e+002 -4.614344e+000
      vertex   8.990528e+001 4.583786e+002 4.036906e+001
      vertex   8.990528e+001 4.599661e+002 4.671906e+001
    endloop
  endfacet
  facet normal -9.701427e-001 -0.000000e+000 0.000000e+000
    outer loop
      vertex   8.990528e+001 4.599661e+002 4.671906e+001
      vertex   8.990528e+001 4.583786e+002 4.036906e+001
      vertex   8.990528e+001 4.583786e+002 4.671906e+001
    endloop
  endfacet
  facet normal -9.933767e-001 -0.000000e+000 0.000000e+000
    outer loop
      vertex   8.990528e+001 4.583786e+002 4.036906e+001
      vertex   8.990528e+001 4.536161e+002 -8.043444e-001
      vertex   8.990528e+001 4.552036e+002 4.036906e+001
    endloop
  endfacet
  facet normal -2.797371e-001 -0.000000e+000 0.000000e+000
    outer loop
      vertex   8.990528e+001 4.552036e+002 4.036906e+001
      vertex   8.990528e+001 4.536161e+002 -8.043444e-001
      vertex   8.990528e+001 4.536161e+002 4.671906e+001
    endloop
  endfacet
  facet normal -2.425392e-001 0.000000e+000 0.000000e+000
    outer loop
      vertex   8.990528e+001 4.552036e+002 4.036906e+001
      vertex   8.990528e+001 4.536161e+002 4.671906e+001
      vertex   8.990528e+001 4.552036e+002 4.671906e+001
    endloop
  endfacet
  facet normal 0.000000e+000 0.000000e+000 1.622933e-001
    outer loop
      vertex   5.129728e+001 4.250411e+002 -8.043444e-001
      vertex   9.574728e+001 4.250411e+002 -8.043444e-001
      vertex   8.990528e+001 4.313911e+002 -8.043444e-001
    endloop
  endfacet
  facet normal -0.000000e+000 0.000000e+000 8.419020e-001
    outer loop
      vertex   8.990528e+001 4.313911e+002 -8.043444e-001
      vertex   9.574728e+001 4.250411e+002 -8.043444e-001
      vertex   9.574728e+001 4.536161e+002 -8.043444e-001
    endloop
  endfacet
  facet normal 0.000000e+000 0.000000e+000 2.542216e-001
    outer loop
      vertex   8.990528e+001 4.313911e+002 -8.043444e-001
      vertex   9.574728e+001 4.536161e+002 -8.043444e-001
      vertex   8.990528e+001 4.536161e+002 -8.043444e-001
    endloop
  endfacet
  facet normal 0.000000e+000 0.000000e+000 1.622933e-001
    outer loop
      vertex   8.990528e+001 4.313911e+002 -8.043444e-001
      vertex   5.129728e+001 4.313911e+002 -8.043444e-001
      vertex   5.129728e+001 4.250411e+002 -8.043444e-001
    endloop
  endfacet
  facet normal 0.000000e+000 -0.000000e+000 9.867426e-001
    outer loop
      vertex   5.129728e+001 4.250411e+002 -8.043444e-001
      vertex   5.129728e+001 4.313911e+002 -8.043444e-001
      vertex   1.268928e+001 4.313911e+002 -8.043444e-001
    endloop
  endfacet
  facet normal 0.000000e+000 0.000000e+000 1.622933e-001
    outer loop
      vertex   5.129728e+001 4.250411e+002 -8.043444e-001
      vertex   1.268928e+001 4.313911e+002 -8.043444e-001
      vertex   6.847281e+000 4.250411e+002 -8.043444e-001
    endloop
  endfacet
  facet normal 0.000000e+000 0.000000e+000 6.770562e-001
    outer loop
      vertex   6.847281e+000 4.250411e+002 -8.043444e-001
      vertex   1.268928e+001 4.313911e+002 -8.043444e-001
      vertex   6.847281e+000 4.428211e+002 -8.043444e-001
    endloop
  endfacet
  facet normal -0.000000e+000 0.000000e+000 8.904346e-001
    outer loop
      vertex   6.847281e+000 4.428211e+002 -8.043444e-001
      vertex   1.268928e+001 4.313911e+002 -8.043444e-001
      vertex   1.268928e+001 4.428211e+002 -8.043444e-001
    endloop
  endfacet
  facet normal -0.000000e+000 -0.000000e+000 -1.000000e+000
    outer loop
      vertex   8.990528e+001 4.583786e+002 4.036906e+001
      vertex   8.990528e+001 4.552036e+002 4.036906e+001
      vertex   8.355527e+001 4.583786e+002 4.036906e+001
    endloop
  endfacet
  facet normal 0.000000e+000 0.000000e+000 -8.944281e-001
    outer loop
      vertex   8.355527e+001 4.583786e+002 4.036906e+001
      vertex   8.990528e+001 4.552036e+002 4.036906e+001
      vertex   8.355527e+001 4.552036e+002 4.036906e+001
    endloop
  endfacet
  facet normal 0.000000e+000 1.000000e+000 0.000000e+000
    outer loop
      vertex   8.990528e+001 4.583786e+002 4.671906e+001
      vertex   8.990528e+001 4.583786e+002 4.036906e+001
      vertex   8.355527e+001 4.583786e+002 4.671906e+001
    endloop
  endfacet
  facet normal 0.000000e+000 7.071072e-001 0.000000e+000
    outer loop
      vertex   8.355527e+001 4.583786e+002 4.671906e+001
      vertex   8.990528e+001 4.583786e+002 4.036906e+001
      vertex   8.355527e+001 4.583786e+002 4.036906e+001
    endloop
  endfacet
  facet normal 0.000000e+000 -1.000000e+000 0.000000e+000
    outer loop
      vertex   8.990528e+001 4.552036e+002 4.036906e+001
      vertex   8.990528e+001 4.552036e+002 4.671906e+001
      vertex   8.355527e+001 4.552036e+002 4.036906e+001
    endloop
  endfacet
  facet normal 0.000000e+000 -7.071072e-001 0.000000e+000
    outer loop
      vertex   8.355527e+001 4.552036e+002 4.036906e+001
      vertex   8.990528e+001 4.552036e+002 4.671906e+001
      vertex   8.355527e+001 4.552036e+002 4.671906e+001
    endloop
  endfacet
  facet normal -1.000000e+000 0.000000e+000 0.000000e+000
    outer loop
      vertex   8.355527e+001 4.552036e+002 4.671906e+001
      vertex   8.355527e+001 4.583786e+002 4.671906e+001
      vertex   8.355527e+001 4.552036e+002 4.036906e+001
    endloop
  endfacet
  facet normal -8.944278e-001 0.000000e+000 0.000000e+000
    outer loop
      vertex   8.355527e+001 4.552036e+002 4.036906e+001
      vertex   8.355527e+001 4.583786e+002 4.671906e+001
      vertex   8.355527e+001 4.583786e+002 4.036906e+001
    endloop
  endfacet
  facet normal -0.000000e+000 0.000000e+000 1.000000e+000
    outer loop
      vertex   8.990528e+001 4.599661e+002 4.671906e+001
      vertex   8.990528e+001 4.583786e+002 4.671906e+001
      vertex   9.574728e+001 4.599661e+002 4.671906e+001
    endloop
  endfacet
  facet normal 0.000000e+000 0.000000e+000 4.064983e-001
    outer loop
      vertex   9.574728e+001 4.599661e+002 4.671906e+001
      vertex   8.990528e+001 4.583786e+002 4.671906e+001
      vertex   8.990528e+001 4.552036e+002 4.671906e+001
    endloop
  endfacet
  facet normal 0.000000e+000 0.000000e+000 7.750835e-001
    outer loop
      vertex   9.574728e+001 4.599661e+002 4.671906e+001
      vertex   8.990528e+001 4.552036e+002 4.671906e+001
      vertex   9.574728e+001 4.536161e+002 4.671906e+001
    endloop
  endfacet
  facet normal 0.000000e+000 0.000000e+000 2.622334e-001
    outer loop
      vertex   9.574728e+001 4.536161e+002 4.671906e+001
      vertex   8.990528e+001 4.552036e+002 4.671906e+001
      vertex   8.990528e+001 4.536161e+002 4.671906e+001
    endloop
  endfacet
  facet normal 0.000000e+000 0.000000e+000 1.000000e+000
    outer loop
      vertex   8.990528e+001 4.583786e+002 4.671906e+001
      vertex   8.355527e+001 4.583786e+002 4.671906e+001
      vertex   8.990528e+001 4.552036e+002 4.671906e+001
    endloop
  endfacet
  facet normal 0.000000e+000 0.000000e+000 4.472119e-001
    outer loop
      vertex   8.990528e+001 4.552036e+002 4.671906e+001
      vertex   8.355527e+001 4.583786e+002 4.671906e+001
      vertex   8.355527e+001 4.552036e+002 4.671906e+001
    endloop
  endfacet
  facet normal -0.000000e+000 1.000000e+000 0.000000e+000
    outer loop
      vertex   8.990528e+001 4.599661e+002 4.671906e+001
      vertex   9.574728e+001 4.599661e+002 4.671906e+001
      vertex   8.990528e+001 4.599661e+002 -4.614344e+000
    endloop
  endfacet
  facet normal 0.000000e+000 9.935864e-001 0.000000e+000
    outer loop
      vertex   8.990528e+001 4.599661e+002 -4.614344e+000
      vertex   9.574728e+001 4.599661e+002 4.671906e+001
      vertex   9.574728e+001 4.599661e+002 -4.614344e+000
    endloop
  endfacet
  facet normal 0.000000e+000 -1.000000e+000 0.000000e+000
    outer loop
      vertex   8.990528e+001 4.536161e+002 -8.043444e-001
      vertex   9.574728e+001 4.536161e+002 -8.043444e-001
      vertex   8.990528e+001 4.536161e+002 4.671906e+001
    endloop
  endfacet
  facet normal 0.000000e+000 -9.925288e-001 0.000000e+000
    outer loop
      vertex   8.990528e+001 4.536161e+002 4.671906e+001
      vertex   9.574728e+001 4.536161e+002 -8.043444e-001
      vertex   9.574728e+001 4.536161e+002 4.671906e+001
    endloop
  endfacet
  facet normal 1.000000e+000 -0.000000e+000 0.000000e+000
    outer loop
      vertex   9.574728e+001 4.250411e+002 -8.043444e-001
      vertex   9.574728e+001 4.250411e+002 -4.614344e+000
      vertex   9.574728e+001 4.536161e+002 -8.043444e-001
    endloop
  endfacet
  facet normal 6.233117e-001 0.000000e+000 0.000000e+000
    outer loop
      vertex   9.574728e+001 4.536161e+002 -8.043444e-001
      vertex   9.574728e+001 4.250411e+002 -4.614344e+000
      vertex   9.574728e+001 4.599661e+002 -4.614344e+000
    endloop
  endfacet
  facet normal 9.180799e-001 -0.000000e+000 0.000000e+000
    outer loop
      vertex   9.574728e+001 4.536161e+002 -8.043444e-001
      vertex   9.574728e+001 4.599661e+002 -4.614344e+000
      vertex   9.574728e+001 4.599661e+002 4.671906e+001
    endloop
  endfacet
  facet normal 9.911909e-001 0.000000e+000 0.000000e+000
    outer loop
      vertex   9.574728e+001 4.599661e+002 4.671906e+001
      vertex   9.574728e+001 4.536161e+002 4.671906e+001
      vertex   9.574728e+001 4.536161e+002 -8.043444e-001
    endloop
  endfacet
endsolid
