solid ascii
  facet normal 0.000000e+000 1.000000e+000 0.000000e+000
    outer loop
      vertex   -1.148080e+002 1.635125e+002 4.434840e+001
      vertex   -1.148080e+002 1.635125e+002 5.069840e+001
      vertex   -1.084580e+002 1.635125e+002 4.434840e+001
    endloop
  endfacet
  facet normal 0.000000e+000 7.071064e-001 -0.000000e+000
    outer loop
      vertex   -1.084580e+002 1.635125e+002 4.434840e+001
      vertex   -1.148080e+002 1.635125e+002 5.069840e+001
      vertex   -1.084580e+002 1.635125e+002 5.069840e+001
    endloop
  endfacet
  facet normal 0.000000e+000 0.000000e+000 -1.000000e+000
    outer loop
      vertex   -1.148080e+002 1.603375e+002 4.434840e+001
      vertex   -1.148080e+002 1.635125e+002 4.434840e+001
      vertex   -1.084580e+002 1.603375e+002 4.434840e+001
    endloop
  endfacet
  facet normal 0.000000e+000 0.000000e+000 -8.944268e-001
    outer loop
      vertex   -1.084580e+002 1.603375e+002 4.434840e+001
      vertex   -1.148080e+002 1.635125e+002 4.434840e+001
      vertex   -1.084580e+002 1.635125e+002 4.434840e+001
    endloop
  endfacet
  facet normal 0.000000e+000 -1.000000e+000 0.000000e+000
    outer loop
      vertex   -1.148080e+002 1.603375e+002 5.069840e+001
      vertex   -1.148080e+002 1.603375e+002 4.434840e+001
      vertex   -1.084580e+002 1.603375e+002 5.069840e+001
    endloop
  endfacet
  facet normal 0.000000e+000 -7.071064e-001 -0.000000e+000
    outer loop
      vertex   -1.084580e+002 1.603375e+002 5.069840e+001
      vertex   -1.148080e+002 1.603375e+002 4.434840e+001
      vertex   -1.084580e+002 1.603375e+002 4.434840e+001
    endloop
  endfacet
  facet normal 1.000000e+000 0.000000e+000 0.000000e+000
    outer loop
      vertex   -1.084580e+002 1.635125e+002 5.069840e+001
      vertex   -1.084580e+002 1.603375e+002 5.069840e+001
      vertex   -1.084580e+002 1.635125e+002 4.434840e+001
    endloop
  endfacet
  facet normal 8.944270e-001 0.000000e+000 0.000000e+000
    outer loop
      vertex   -1.084580e+002 1.635125e+002 4.434840e+001
      vertex   -1.084580e+002 1.603375e+002 5.069840e+001
      vertex   -1.084580e+002 1.603375e+002 4.434840e+001
    endloop
  endfacet
  facet normal -0.000000e+000 -0.000000e+000 -1.000000e+000
    outer loop
      vertex   -3.759200e+001 1.635125e+002 4.434840e+001
      vertex   -3.759200e+001 1.603375e+002 4.434840e+001
      vertex   -4.394200e+001 1.635125e+002 4.434840e+001
    endloop
  endfacet
  facet normal 0.000000e+000 0.000000e+000 -8.944271e-001
    outer loop
      vertex   -4.394200e+001 1.635125e+002 4.434840e+001
      vertex   -3.759200e+001 1.603375e+002 4.434840e+001
      vertex   -4.394200e+001 1.603375e+002 4.434840e+001
    endloop
  endfacet
  facet normal 0.000000e+000 1.000000e+000 0.000000e+000
    outer loop
      vertex   -3.759200e+001 1.635125e+002 5.069840e+001
      vertex   -3.759200e+001 1.635125e+002 4.434840e+001
      vertex   -4.394200e+001 1.635125e+002 5.069840e+001
    endloop
  endfacet
  facet normal 0.000000e+000 7.071070e-001 0.000000e+000
    outer loop
      vertex   -4.394200e+001 1.635125e+002 5.069840e+001
      vertex   -3.759200e+001 1.635125e+002 4.434840e+001
      vertex   -4.394200e+001 1.635125e+002 4.434840e+001
    endloop
  endfacet
  facet normal 0.000000e+000 -1.000000e+000 0.000000e+000
    outer loop
      vertex   -3.759200e+001 1.603375e+002 4.434840e+001
      vertex   -3.759200e+001 1.603375e+002 5.069840e+001
      vertex   -4.394200e+001 1.603375e+002 4.434840e+001
    endloop
  endfacet
  facet normal 0.000000e+000 -7.071070e-001 0.000000e+000
    outer loop
      vertex   -4.394200e+001 1.603375e+002 4.434840e+001
      vertex   -3.759200e+001 1.603375e+002 5.069840e+001
      vertex   -4.394200e+001 1.603375e+002 5.069840e+001
    endloop
  endfacet
  facet normal -1.000000e+000 0.000000e+000 0.000000e+000
    outer loop
      vertex   -4.394200e+001 1.603375e+002 5.069840e+001
      vertex   -4.394200e+001 1.635125e+002 5.069840e+001
      vertex   -4.394200e+001 1.603375e+002 4.434840e+001
    endloop
  endfacet
  facet normal -8.944270e-001 0.000000e+000 0.000000e+000
    outer loop
      vertex   -4.394200e+001 1.603375e+002 4.434840e+001
      vertex   -4.394200e+001 1.635125e+002 5.069840e+001
      vertex   -4.394200e+001 1.635125e+002 4.434840e+001
    endloop
  endfacet
  facet normal 1.000000e+000 0.000000e+000 0.000000e+000
    outer loop
      vertex   -1.148080e+002 1.603375e+002 5.069840e+001
      vertex   -1.148080e+002 1.587500e+002 5.069840e+001
      vertex   -1.148080e+002 1.603375e+002 4.434840e+001
    endloop
  endfacet
  facet normal 2.797321e-001 0.000000e+000 0.000000e+000
    outer loop
      vertex   -1.148080e+002 1.603375e+002 4.434840e+001
      vertex   -1.148080e+002 1.587500e+002 5.069840e+001
      vertex   -1.148080e+002 1.587500e+002 3.175000e+000
    endloop
  endfacet
  facet normal 1.530903e-001 0.000000e+000 0.000000e+000
    outer loop
      vertex   -1.148080e+002 1.603375e+002 4.434840e+001
      vertex   -1.148080e+002 1.587500e+002 3.175000e+000
      vertex   -1.148080e+002 1.651000e+002 3.175000e+000
    endloop
  endfacet
  facet normal 9.933767e-001 -0.000000e+000 0.000000e+000
    outer loop
      vertex   -1.148080e+002 1.603375e+002 4.434840e+001
      vertex   -1.148080e+002 1.651000e+002 3.175000e+000
      vertex   -1.148080e+002 1.635125e+002 4.434840e+001
    endloop
  endfacet
  facet normal 2.797321e-001 -0.000000e+000 0.000000e+000
    outer loop
      vertex   -1.148080e+002 1.635125e+002 4.434840e+001
      vertex   -1.148080e+002 1.651000e+002 3.175000e+000
      vertex   -1.148080e+002 1.651000e+002 5.069840e+001
    endloop
  endfacet
  facet normal 2.425348e-001 0.000000e+000 0.000000e+000
    outer loop
      vertex   -1.148080e+002 1.635125e+002 4.434840e+001
      vertex   -1.148080e+002 1.651000e+002 5.069840e+001
      vertex   -1.148080e+002 1.635125e+002 5.069840e+001
    endloop
  endfacet
  facet normal 0.000000e+000 -0.000000e+000 1.000000e+000
    outer loop
      vertex   -1.148080e+002 1.587500e+002 5.069840e+001
      vertex   -1.148080e+002 1.603375e+002 5.069840e+001
      vertex   -1.206500e+002 1.587500e+002 5.069840e+001
    endloop
  endfacet
  facet normal 0.000000e+000 0.000000e+000 9.650058e-001
    outer loop
      vertex   -1.206500e+002 1.587500e+002 5.069840e+001
      vertex   -1.148080e+002 1.603375e+002 5.069840e+001
      vertex   -1.206500e+002 1.651000e+002 5.069840e+001
    endloop
  endfacet
  facet normal 0.000000e+000 0.000000e+000 4.064997e-001
    outer loop
      vertex   -1.206500e+002 1.651000e+002 5.069840e+001
      vertex   -1.148080e+002 1.603375e+002 5.069840e+001
      vertex   -1.148080e+002 1.635125e+002 5.069840e+001
    endloop
  endfacet
  facet normal -0.000000e+000 0.000000e+000 2.622287e-001
    outer loop
      vertex   -1.206500e+002 1.651000e+002 5.069840e+001
      vertex   -1.148080e+002 1.635125e+002 5.069840e+001
      vertex   -1.148080e+002 1.651000e+002 5.069840e+001
    endloop
  endfacet
  facet normal 0.000000e+000 0.000000e+000 1.000000e+000
    outer loop
      vertex   -1.148080e+002 1.603375e+002 5.069840e+001
      vertex   -1.084580e+002 1.603375e+002 5.069840e+001
      vertex   -1.148080e+002 1.635125e+002 5.069840e+001
    endloop
  endfacet
  facet normal -0.000000e+000 0.000000e+000 4.472145e-001
    outer loop
      vertex   -1.148080e+002 1.635125e+002 5.069840e+001
      vertex   -1.084580e+002 1.603375e+002 5.069840e+001
      vertex   -1.084580e+002 1.635125e+002 5.069840e+001
    endloop
  endfacet
  facet normal -1.000000e+000 0.000000e+000 0.000000e+000
    outer loop
      vertex   -3.759200e+001 1.635125e+002 5.069840e+001
      vertex   -3.759200e+001 1.651000e+002 5.069840e+001
      vertex   -3.759200e+001 1.635125e+002 4.434840e+001
    endloop
  endfacet
  facet normal -2.797321e-001 0.000000e+000 0.000000e+000
    outer loop
      vertex   -3.759200e+001 1.635125e+002 4.434840e+001
      vertex   -3.759200e+001 1.651000e+002 5.069840e+001
      vertex   -3.759200e+001 1.651000e+002 3.175000e+000
    endloop
  endfacet
  facet normal -9.992575e-001 -0.000000e+000 -0.000000e+000
    outer loop
      vertex   -3.759200e+001 1.635125e+002 4.434840e+001
      vertex   -3.759200e+001 1.651000e+002 3.175000e+000
      vertex   -3.759200e+001 1.603375e+002 4.434840e+001
    endloop
  endfacet
  facet normal -1.530903e-001 0.000000e+000 -0.000000e+000
    outer loop
      vertex   -3.759200e+001 1.603375e+002 4.434840e+001
      vertex   -3.759200e+001 1.651000e+002 3.175000e+000
      vertex   -3.759200e+001 1.587500e+002 3.175000e+000
    endloop
  endfacet
  facet normal -2.797321e-001 -0.000000e+000 0.000000e+000
    outer loop
      vertex   -3.759200e+001 1.603375e+002 4.434840e+001
      vertex   -3.759200e+001 1.587500e+002 3.175000e+000
      vertex   -3.759200e+001 1.587500e+002 5.069840e+001
    endloop
  endfacet
  facet normal -9.701427e-001 0.000000e+000 0.000000e+000
    outer loop
      vertex   -3.759200e+001 1.587500e+002 5.069840e+001
      vertex   -3.759200e+001 1.603375e+002 5.069840e+001
      vertex   -3.759200e+001 1.603375e+002 4.434840e+001
    endloop
  endfacet
  facet normal -0.000000e+000 0.000000e+000 1.000000e+000
    outer loop
      vertex   -3.759200e+001 1.651000e+002 5.069840e+001
      vertex   -3.759200e+001 1.635125e+002 5.069840e+001
      vertex   -3.174999e+001 1.651000e+002 5.069840e+001
    endloop
  endfacet
  facet normal 0.000000e+000 0.000000e+000 4.064998e-001
    outer loop
      vertex   -3.174999e+001 1.651000e+002 5.069840e+001
      vertex   -3.759200e+001 1.635125e+002 5.069840e+001
      vertex   -3.759200e+001 1.603375e+002 5.069840e+001
    endloop
  endfacet
  facet normal 0.000000e+000 0.000000e+000 7.750824e-001
    outer loop
      vertex   -3.174999e+001 1.651000e+002 5.069840e+001
      vertex   -3.759200e+001 1.603375e+002 5.069840e+001
      vertex   -3.174999e+001 1.587500e+002 5.069840e+001
    endloop
  endfacet
  facet normal 0.000000e+000 0.000000e+000 2.622288e-001
    outer loop
      vertex   -3.174999e+001 1.587500e+002 5.069840e+001
      vertex   -3.759200e+001 1.603375e+002 5.069840e+001
      vertex   -3.759200e+001 1.587500e+002 5.069840e+001
    endloop
  endfacet
  facet normal 0.000000e+000 0.000000e+000 1.000000e+000
    outer loop
      vertex   -3.759200e+001 1.635125e+002 5.069840e+001
      vertex   -4.394200e+001 1.635125e+002 5.069840e+001
      vertex   -3.759200e+001 1.603375e+002 5.069840e+001
    endloop
  endfacet
  facet normal 0.000000e+000 0.000000e+000 4.472138e-001
    outer loop
      vertex   -3.759200e+001 1.603375e+002 5.069840e+001
      vertex   -4.394200e+001 1.635125e+002 5.069840e+001
      vertex   -4.394200e+001 1.603375e+002 5.069840e+001
    endloop
  endfacet
  facet normal 0.000000e+000 -1.220106e-001 0.000000e+000
    outer loop
      vertex   -1.206500e+002 1.587500e+002 5.069840e+001
      vertex   -1.206500e+002 1.587500e+002 -6.350000e-001
      vertex   -1.148080e+002 1.587500e+002 3.175000e+000
    endloop
  endfacet
  facet normal 0.000000e+000 -6.258863e-001 -0.000000e+000
    outer loop
      vertex   -1.148080e+002 1.587500e+002 3.175000e+000
      vertex   -1.206500e+002 1.587500e+002 -6.350000e-001
      vertex   -7.620000e+001 1.587500e+002 -6.350000e-001
    endloop
  endfacet
  facet normal 0.000000e+000 -9.820718e-002 0.000000e+000
    outer loop
      vertex   -1.148080e+002 1.587500e+002 3.175000e+000
      vertex   -7.620000e+001 1.587500e+002 -6.350000e-001
      vertex   -7.620000e+001 1.587500e+002 3.175000e+000
    endloop
  endfacet
  facet normal 0.000000e+000 -1.000000e+000 0.000000e+000
    outer loop
      vertex   -7.620000e+001 1.587500e+002 3.175000e+000
      vertex   -7.620000e+001 1.587500e+002 -6.350000e-001
      vertex   -3.759200e+001 1.587500e+002 3.175000e+000
    endloop
  endfacet
  facet normal 0.000000e+000 -6.258864e-001 -0.000000e+000
    outer loop
      vertex   -3.759200e+001 1.587500e+002 3.175000e+000
      vertex   -7.620000e+001 1.587500e+002 -6.350000e-001
      vertex   -3.174999e+001 1.587500e+002 -6.350000e-001
    endloop
  endfacet
  facet normal 0.000000e+000 -8.980031e-001 0.000000e+000
    outer loop
      vertex   -3.759200e+001 1.587500e+002 3.175000e+000
      vertex   -3.174999e+001 1.587500e+002 -6.350000e-001
      vertex   -3.174999e+001 1.587500e+002 5.069840e+001
    endloop
  endfacet
  facet normal -0.000000e+000 -9.925288e-001 0.000000e+000
    outer loop
      vertex   -3.174999e+001 1.587500e+002 5.069840e+001
      vertex   -3.759200e+001 1.587500e+002 5.069840e+001
      vertex   -3.759200e+001 1.587500e+002 3.175000e+000
    endloop
  endfacet
  facet normal 0.000000e+000 -1.220106e-001 0.000000e+000
    outer loop
      vertex   -1.148080e+002 1.587500e+002 3.175000e+000
      vertex   -1.148080e+002 1.587500e+002 5.069840e+001
      vertex   -1.206500e+002 1.587500e+002 5.069840e+001
    endloop
  endfacet
  facet normal 0.000000e+000 0.000000e+000 -1.000000e+000
    outer loop
      vertex   -1.206500e+002 1.651000e+002 -6.350000e-001
      vertex   -7.620000e+001 1.651000e+002 -6.350000e-001
      vertex   -1.206500e+002 1.587500e+002 -6.350000e-001
    endloop
  endfacet
  facet normal 0.000000e+000 0.000000e+000 -1.414212e-001
    outer loop
      vertex   -1.206500e+002 1.587500e+002 -6.350000e-001
      vertex   -7.620000e+001 1.651000e+002 -6.350000e-001
      vertex   -7.620000e+001 1.587500e+002 -6.350000e-001
    endloop
  endfacet
  facet normal 0.000000e+000 0.000000e+000 -9.899495e-001
    outer loop
      vertex   -7.620000e+001 1.587500e+002 -6.350000e-001
      vertex   -7.620000e+001 1.651000e+002 -6.350000e-001
      vertex   -3.174999e+001 1.651000e+002 -6.350000e-001
    endloop
  endfacet
  facet normal 0.000000e+000 0.000000e+000 -1.414211e-001
    outer loop
      vertex   -7.620000e+001 1.587500e+002 -6.350000e-001
      vertex   -3.174999e+001 1.651000e+002 -6.350000e-001
      vertex   -3.174999e+001 1.587500e+002 -6.350000e-001
    endloop
  endfacet
  facet normal 0.000000e+000 1.000000e+000 0.000000e+000
    outer loop
      vertex   -7.620000e+001 1.651000e+002 3.175000e+000
      vertex   -7.620000e+001 1.651000e+002 -6.350000e-001
      vertex   -1.148080e+002 1.651000e+002 3.175000e+000
    endloop
  endfacet
  facet normal 0.000000e+000 6.258863e-001 0.000000e+000
    outer loop
      vertex   -1.148080e+002 1.651000e+002 3.175000e+000
      vertex   -7.620000e+001 1.651000e+002 -6.350000e-001
      vertex   -1.206500e+002 1.651000e+002 -6.350000e-001
    endloop
  endfacet
  facet normal 0.000000e+000 8.980032e-001 0.000000e+000
    outer loop
      vertex   -1.148080e+002 1.651000e+002 3.175000e+000
      vertex   -1.206500e+002 1.651000e+002 -6.350000e-001
      vertex   -1.206500e+002 1.651000e+002 5.069840e+001
    endloop
  endfacet
  facet normal -0.000000e+000 1.000000e+000 0.000000e+000
    outer loop
      vertex   -7.620000e+001 1.651000e+002 3.175000e+000
      vertex   -3.759200e+001 1.651000e+002 3.175000e+000
      vertex   -7.620000e+001 1.651000e+002 -6.350000e-001
    endloop
  endfacet
  facet normal 0.000000e+000 9.820716e-002 0.000000e+000
    outer loop
      vertex   -7.620000e+001 1.651000e+002 -6.350000e-001
      vertex   -3.759200e+001 1.651000e+002 3.175000e+000
      vertex   -3.174999e+001 1.651000e+002 -6.350000e-001
    endloop
  endfacet
  facet normal 0.000000e+000 8.376107e-001 -0.000000e+000
    outer loop
      vertex   -3.174999e+001 1.651000e+002 -6.350000e-001
      vertex   -3.759200e+001 1.651000e+002 3.175000e+000
      vertex   -3.174999e+001 1.651000e+002 5.069840e+001
    endloop
  endfacet
  facet normal 0.000000e+000 9.925288e-001 0.000000e+000
    outer loop
      vertex   -3.174999e+001 1.651000e+002 5.069840e+001
      vertex   -3.759200e+001 1.651000e+002 3.175000e+000
      vertex   -3.759200e+001 1.651000e+002 5.069840e+001
    endloop
  endfacet
  facet normal -0.000000e+000 9.925288e-001 0.000000e+000
    outer loop
      vertex   -1.206500e+002 1.651000e+002 5.069840e+001
      vertex   -1.148080e+002 1.651000e+002 5.069840e+001
      vertex   -1.148080e+002 1.651000e+002 3.175000e+000
    endloop
  endfacet
  facet normal 1.000000e+000 0.000000e+000 0.000000e+000
    outer loop
      vertex   -3.174999e+001 1.587500e+002 -6.350000e-001
      vertex   -3.174999e+001 1.651000e+002 -6.350000e-001
      vertex   -3.174999e+001 1.587500e+002 5.069840e+001
    endloop
  endfacet
  facet normal 9.924358e-001 -0.000000e+000 0.000000e+000
    outer loop
      vertex   -3.174999e+001 1.587500e+002 5.069840e+001
      vertex   -3.174999e+001 1.651000e+002 -6.350000e-001
      vertex   -3.174999e+001 1.651000e+002 5.069840e+001
    endloop
  endfacet
  facet normal -1.000000e+000 0.000000e+000 0.000000e+000
    outer loop
      vertex   -1.206500e+002 1.651000e+002 -6.350000e-001
      vertex   -1.206500e+002 1.587500e+002 -6.350000e-001
      vertex   -1.206500e+002 1.651000e+002 5.069840e+001
    endloop
  endfacet
  facet normal -9.924358e-001 -0.000000e+000 0.000000e+000
    outer loop
      vertex   -1.206500e+002 1.651000e+002 5.069840e+001
      vertex   -1.206500e+002 1.587500e+002 -6.350000e-001
      vertex   -1.206500e+002 1.587500e+002 5.069840e+001
    endloop
  endfacet
  facet normal 0.000000e+000 0.000000e+000 1.000000e+000
    outer loop
      vertex   -1.148080e+002 1.587500e+002 3.175000e+000
      vertex   -7.620000e+001 1.587500e+002 3.175000e+000
      vertex   -1.148080e+002 1.651000e+002 3.175000e+000
    endloop
  endfacet
  facet normal -0.000000e+000 0.000000e+000 1.622930e-001
    outer loop
      vertex   -1.148080e+002 1.651000e+002 3.175000e+000
      vertex   -7.620000e+001 1.587500e+002 3.175000e+000
      vertex   -7.620000e+001 1.651000e+002 3.175000e+000
    endloop
  endfacet
  facet normal 0.000000e+000 0.000000e+000 9.867426e-001
    outer loop
      vertex   -7.620000e+001 1.651000e+002 3.175000e+000
      vertex   -7.620000e+001 1.587500e+002 3.175000e+000
      vertex   -3.759200e+001 1.587500e+002 3.175000e+000
    endloop
  endfacet
  facet normal -0.000000e+000 0.000000e+000 1.622930e-001
    outer loop
      vertex   -7.620000e+001 1.651000e+002 3.175000e+000
      vertex   -3.759200e+001 1.587500e+002 3.175000e+000
      vertex   -3.759200e+001 1.651000e+002 3.175000e+000
    endloop
  endfacet
endsolid
